<svg xmlns="http://www.w3.org/2000/svg" width="90" height="90" viewBox="0 0 90 90">
  <g id="Group_38" data-name="Group 38" transform="translate(-867 -10627)">
    <circle id="Ellipse_2941" data-name="Ellipse 2941" cx="45" cy="45" r="45" transform="translate(867 10627)" fill="#efd2a5"/>
    <g id="Security_symbol" data-name="Security symbol" transform="translate(886.858 10650)">
      <path id="Path_164" data-name="Path 164" d="M14.254,48.384a.694.694,0,0,1-.694-.694v-.622S13.535,47,13.532,47L9.306,42.238a2.637,2.637,0,0,1-.667-1.759V30.311a2.374,2.374,0,0,1,.683-1.675,2.314,2.314,0,0,1,1.663-.7,2.366,2.366,0,0,1,2.349,2.376l.01,7.131a.7.7,0,0,1-.694.694h0a.693.693,0,0,1-.694-.693l-.01-7.131a.975.975,0,0,0-.96-.989.934.934,0,0,0-.671.285.992.992,0,0,0-.286.7V40.479a1.248,1.248,0,0,0,.316.835l4.227,4.759a1.475,1.475,0,0,1,.377.993v.622A.693.693,0,0,1,14.254,48.384Z" transform="translate(0 -8.537)" fill="#345b94"/>
      <path id="Path_165" data-name="Path 165" d="M21.926,51.99a.7.7,0,0,1-.694-.694V47.379a1.089,1.089,0,0,0-.306-.757l-5.216-5.3a.739.739,0,0,0-1.035,0,.783.783,0,0,0-.067,1.008l2.527,2.981a.695.695,0,1,1-1.06.9l-2.553-3.015a2.188,2.188,0,0,1,.162-2.846,2.159,2.159,0,0,1,3.015,0l5.216,5.3a2.455,2.455,0,0,1,.706,1.73V51.3A.7.7,0,0,1,21.926,51.99Z" transform="translate(-1.355 -12.142)" fill="#345b94"/>
      <g id="Group_17" data-name="Group 17" transform="translate(12.194 38.459)">
        <path id="Path_166" data-name="Path 166" d="M23.774,61.367H14.452a.7.7,0,0,1-.694-.694V56.079a.7.7,0,0,1,.694-.694h9.322a.7.7,0,0,1,.694.694v4.593A.7.7,0,0,1,23.774,61.367Zm-8.627-1.389H23.08v-3.2H15.147Z" transform="translate(-13.758 -55.385)" fill="#345b94"/>
      </g>
      <g id="Group_19" data-name="Group 19" transform="translate(26.818 19.397)">
        <path id="Path_167" data-name="Path 167" d="M46.967,48.383a.694.694,0,0,1-.694-.694v-.622a1.48,1.48,0,0,1,.383-1l4.222-4.751a1.255,1.255,0,0,0,.317-.837V30.311a.992.992,0,0,0-.285-.7.935.935,0,0,0-.674-.287.976.976,0,0,0-.96.987l-.008,7.132a.7.7,0,0,1-.694.693h0a.693.693,0,0,1-.693-.694l.008-7.131a2.366,2.366,0,0,1,2.349-2.376,2.31,2.31,0,0,1,1.665.7,2.366,2.366,0,0,1,.682,1.672V40.479a2.642,2.642,0,0,1-.67,1.76l-4.252,4.827v.622A.693.693,0,0,1,46.967,48.383Z" transform="translate(-38.319 -27.934)" fill="#345b94"/>
        <path id="Path_168" data-name="Path 168" d="M37.87,51.991a.694.694,0,0,1-.694-.694V47.379a2.448,2.448,0,0,1,.707-1.73l5.215-5.3a2.136,2.136,0,0,1,3.2,2.813l-2.578,3.048a.695.695,0,1,1-1.06-.9l2.553-3.015a.771.771,0,0,0-.092-.974.739.739,0,0,0-1.035,0l-5.215,5.3a1.084,1.084,0,0,0-.308.757V51.3A.7.7,0,0,1,37.87,51.991Z" transform="translate(-35.539 -31.54)" fill="#345b94"/>
        <g id="Group_18" data-name="Group 18" transform="translate(0 19.062)">
          <path id="Path_169" data-name="Path 169" d="M44.833,61.367h-9.32a.694.694,0,0,1-.694-.694V56.079a.694.694,0,0,1,.694-.694h9.32a.694.694,0,0,1,.694.694v4.593A.694.694,0,0,1,44.833,61.367Zm-8.626-1.389h7.931v-3.2H36.207Z" transform="translate(-34.818 -55.385)" fill="#345b94"/>
        </g>
      </g>
      <g id="Group_20" data-name="Group 20" transform="translate(14.41 0)">
        <path id="Path_170" data-name="Path 170" d="M27.4,24.955a.678.678,0,0,1-.283-.061L26.5,24.62C15.852,19.847,16.953,6.853,17,6.3l.135-1.43a.7.7,0,0,1,.708-.629l1.412.035a10.332,10.332,0,0,0,6.606-3.062L26.916.2a.7.7,0,0,1,.969,0l1.049,1.02a10.246,10.246,0,0,0,6.625,3.061l1.4-.051a.674.674,0,0,1,.717.637L37.8,6.312c.051.541,1.151,13.535-9.5,18.308l-.612.274A.7.7,0,0,1,27.4,24.955ZM18.462,5.648l-.074.785c-.047.51-1.069,12.549,8.684,16.92l.329.147.328-.148c9.753-4.37,8.731-16.409,8.684-16.919l-.064-.8-.765.028h0a11.74,11.74,0,0,1-7.617-3.455L27.4,1.663l-.565.549a11.622,11.622,0,0,1-7.588,3.456Z" transform="translate(-16.949 0)" fill="#345b94"/>
      </g>
      <g id="Group_21" data-name="Group 21" transform="translate(14.41 0)">
        <path id="Path_171" data-name="Path 171" d="M27.4,24.955a.678.678,0,0,1-.283-.061L26.5,24.62C15.852,19.847,16.953,6.853,17,6.3l.135-1.43a.7.7,0,0,1,.708-.629l1.412.035a10.332,10.332,0,0,0,6.606-3.062L26.916.2a.7.7,0,0,1,.969,0l1.049,1.02a10.246,10.246,0,0,0,6.625,3.061l1.4-.051a.674.674,0,0,1,.717.637L37.8,6.312c.051.541,1.151,13.535-9.5,18.308l-.612.274A.7.7,0,0,1,27.4,24.955ZM18.462,5.648l-.074.785c-.047.51-1.069,12.549,8.684,16.92l.329.147.328-.148c9.753-4.37,8.731-16.409,8.684-16.919l-.064-.8-.765.028h0a11.74,11.74,0,0,1-7.617-3.455L27.4,1.663l-.565.549a11.622,11.622,0,0,1-7.588,3.456Z" transform="translate(-16.949 0)" fill="#345b94"/>
      </g>
    </g>
  </g>
</svg>
