<svg width="16" height="16" viewBox="0 0 16 16" fill="none" xmlns="http://www.w3.org/2000/svg">
<g clip-path="url(#clip0_2932:1006)">
<path d="M10.6667 1.33333C12.8727 1.33333 14.6667 3.12733 14.6667 5.33333C14.6667 7.53933 12.8727 9.33333 10.6667 9.33333C8.46067 9.33333 6.66667 7.53933 6.66667 5.33333C6.66667 3.12733 8.46067 1.33333 10.6667 1.33333ZM10.6667 0C7.72133 0 5.33333 2.388 5.33333 5.33333C5.33333 8.27867 7.72133 10.6667 10.6667 10.6667C13.612 10.6667 16 8.27867 16 5.33333C16 2.388 13.612 0 10.6667 0ZM7.06333 10.9333L6.082 12H4V13.3333H2.66667V14.6667H1.33333V13.214L5.26867 9.23C4.99933 8.85733 4.766 8.458 4.57667 8.03333L0 12.6667V16H4V14.6667H5.33333V13.3333H6.66667L8.30067 11.558C7.864 11.392 7.45 11.1833 7.06333 10.9333ZM12 3.33333C12.3673 3.33333 12.6667 3.63267 12.6667 4C12.6667 4.36733 12.3673 4.66667 12 4.66667C11.6327 4.66667 11.3333 4.36733 11.3333 4C11.3333 3.63267 11.6327 3.33333 12 3.33333ZM12 2.66667C11.264 2.66667 10.6667 3.264 10.6667 4C10.6667 4.736 11.264 5.33333 12 5.33333C12.736 5.33333 13.3333 4.736 13.3333 4C13.3333 3.264 12.736 2.66667 12 2.66667Z" fill="#2B3E50"/>
</g>
<defs>
<clipPath id="clip0_2932:1006">
<rect width="16" height="16" fill="white"/>
</clipPath>
</defs>
</svg>
