<svg width="20" height="18" viewBox="0 0 20 18" fill="none" xmlns="http://www.w3.org/2000/svg">
<path d="M14.167 16.0837L18.3337 9.00033L14.167 1.91699H5.83366L1.66699 9.00033L5.83366 16.0837H14.167Z" stroke="white" stroke-width="2" stroke-linejoin="round"/>
<path d="M10.0003 11.0837C10.5529 11.0837 11.0828 10.8642 11.4735 10.4735C11.8642 10.0828 12.0837 9.55286 12.0837 9.00033C12.0837 8.44779 11.8642 7.91789 11.4735 7.52719C11.0828 7.13649 10.5529 6.91699 10.0003 6.91699C9.44779 6.91699 8.91789 7.13649 8.52719 7.52719C8.13649 7.91789 7.91699 8.44779 7.91699 9.00033C7.91699 9.55286 8.13649 10.0828 8.52719 10.4735C8.91789 10.8642 9.44779 11.0837 10.0003 11.0837Z" stroke="white" stroke-width="2" stroke-linejoin="round"/>
</svg>
