<svg width="50" height="50" viewBox="0 0 50 50" fill="none" xmlns="http://www.w3.org/2000/svg">
<path opacity="0.3" d="M0.307965 29.7557C1.58579 37.3597 6.54108 43.8328 13.4641 47.2273C18.7684 49.8269 26.2373 51.4447 35.442 48.1622C56.6391 40.6012 49.719 17.3025 45.0007 12.0472C45.0007 12.0472 35.663 -1.95081 18.6624 0.230886C3.30453 2.20561 0 19.6172 0 26.2352C0.0049896 27.4152 0.108004 28.5928 0.307965 29.7557Z" fill="#8CD5FE"/>
<path d="M11.3223 25.6366C11.3223 22.0491 11.4453 18.2256 11.6862 15.9059C11.8511 14.323 12.5554 12.8449 13.6808 11.7197C14.8062 10.5944 16.2844 9.89044 17.8673 9.72579L17.9163 9.71979C19.8421 9.51981 20.151 9.36084 24.2155 9.36084C28.2799 9.36084 28.9318 9.51981 30.8585 9.71979L30.9065 9.72579C32.4897 9.8899 33.9682 10.5937 35.0937 11.7191C36.2192 12.8444 36.9233 14.3228 37.0877 15.9059C37.3296 18.2256 37.4516 22.0491 37.4516 25.6366C37.4516 29.2241 37.3296 33.0475 37.0877 35.3682C36.9233 36.9513 36.2192 38.4297 35.0937 39.555C33.9682 40.6804 32.4897 41.3842 30.9065 41.5483H30.8585C28.9328 41.7483 28.2769 41.9073 24.2155 41.9073C20.154 41.9073 19.8451 41.7493 17.9163 41.5483H17.8683C16.2854 41.3837 14.8072 40.6797 13.6818 39.5544C12.5564 38.4292 11.8521 36.9511 11.6872 35.3682C11.4452 33.0485 11.3223 29.2251 11.3223 25.6366Z" fill="url(#paint0_linear_2804_15044)"/>
<path d="M35.4566 25.7473C35.4566 29.7468 35.3136 33.5982 35.0846 35.8009C34.9763 36.8412 34.5136 37.8126 33.7741 38.5522C33.0347 39.2918 32.0634 39.7548 31.0232 39.8634H30.9702C30.6382 39.8984 30.3473 39.9304 30.0703 39.9633C28.6365 40.1243 27.6887 40.2313 24.2061 40.2313C20.9176 40.2313 20.1207 40.1313 18.9129 39.9903C18.5949 39.9524 18.234 39.9094 17.802 39.8644H17.753C16.7122 39.7563 15.7403 39.2935 15.0004 38.5536C14.2605 37.8137 13.7976 36.8417 13.6896 35.8009C13.4606 33.6012 13.3176 29.7468 13.3176 25.7483C13.3176 21.7499 13.4606 17.8974 13.6896 15.6957C13.798 14.6552 14.261 13.6836 15.0009 12.9439C15.7407 12.2042 16.7125 11.7415 17.753 11.6333L17.804 11.6273C18.235 11.5823 18.5959 11.5393 18.9139 11.5013C20.1207 11.3564 20.9136 11.2614 24.2061 11.2614C27.6887 11.2614 28.6355 11.3674 30.0703 11.5283C30.3513 11.5603 30.6432 11.5933 30.9702 11.6283L31.0222 11.6343C32.0626 11.7427 33.0341 12.2055 33.7737 12.9452C34.5134 13.6848 34.9762 14.6563 35.0846 15.6967C35.3136 17.8964 35.4566 21.7509 35.4566 25.7493M38.2712 25.7493C38.2712 21.9349 38.1412 17.8714 37.8842 15.4048C37.7092 13.7219 36.9607 12.1504 35.7642 10.9541C34.5677 9.75777 32.9961 9.00944 31.3131 8.8347L31.2621 8.82871C29.2144 8.61574 28.5175 8.44775 24.2011 8.44775C19.8847 8.44775 19.5548 8.61574 17.5081 8.82871L17.4561 8.8347C15.7733 9.0098 14.2019 9.75825 13.0055 10.9545C11.809 12.1507 11.0604 13.722 10.885 15.4048C10.629 17.8704 10.498 21.9349 10.498 25.7493C10.498 29.5638 10.629 33.6282 10.885 36.0939C11.0607 37.7766 11.8094 39.3478 13.0058 40.5442C14.2021 41.7405 15.7733 42.4893 17.4561 42.665H17.5071C19.5548 42.8779 19.8837 43.0469 24.2011 43.0469C28.5185 43.0469 29.2144 42.8779 31.2621 42.665H31.3131C32.9961 42.4898 34.5676 41.7412 35.764 40.5448C36.9605 39.3483 37.7091 37.7768 37.8842 36.0939C38.1412 33.6282 38.2712 29.5638 38.2712 25.7493Z" fill="url(#paint1_linear_2804_15044)"/>
<path d="M27.7825 6.9502H31.5619C31.8659 6.95046 32.1574 7.07141 32.3722 7.28645C32.5871 7.5015 32.7078 7.79304 32.7078 8.09703V10.3967C32.7078 11.0862 32.4339 11.7474 31.9464 12.2349C31.4588 12.7225 30.7976 12.9963 30.1081 12.9963H18.8887C18.1992 12.9963 17.538 12.7225 17.0505 12.2349C16.563 11.7474 16.2891 11.0862 16.2891 10.3967V8.09703C16.2891 7.79304 16.4098 7.5015 16.6246 7.28645C16.8395 7.07141 17.1309 6.95046 17.4349 6.9502H27.7795H27.7825Z" fill="url(#paint2_linear_2804_15044)"/>
<path d="M27.4862 10.5876H21.51C21.3519 10.5812 21.2024 10.5139 21.0927 10.3998C20.9831 10.2856 20.9219 10.1335 20.9219 9.97522C20.9219 9.81695 20.9831 9.66482 21.0927 9.55067C21.2024 9.43652 21.3519 9.3692 21.51 9.3628H27.4862C27.5687 9.35947 27.651 9.37284 27.7282 9.40212C27.8055 9.43139 27.8759 9.47596 27.9355 9.53315C27.995 9.59035 28.0424 9.65899 28.0748 9.73496C28.1072 9.81092 28.1239 9.89265 28.1239 9.97522C28.1239 10.0578 28.1072 10.1395 28.0748 10.2155C28.0424 10.2914 27.995 10.3601 27.9355 10.4173C27.8759 10.4745 27.8055 10.519 27.7282 10.5483C27.651 10.5776 27.5687 10.591 27.4862 10.5876Z" fill="white"/>
<path d="M25.8999 17.1904H16.7052C16.0083 17.1904 15.4434 17.7554 15.4434 18.4523V18.5482C15.4434 19.2451 16.0083 19.8101 16.7052 19.8101H25.8999C26.5968 19.8101 27.1617 19.2451 27.1617 18.5482V18.4523C27.1617 17.7554 26.5968 17.1904 25.8999 17.1904Z" fill="url(#paint3_linear_2804_15044)"/>
<path d="M32.0785 17.1904H30.2208C29.5239 17.1904 28.959 17.7554 28.959 18.4523V18.5482C28.959 19.2451 29.5239 19.8101 30.2208 19.8101H32.0785C32.7754 19.8101 33.3404 19.2451 33.3404 18.5482V18.4523C33.3404 17.7554 32.7754 17.1904 32.0785 17.1904Z" fill="url(#paint4_linear_2804_15044)"/>
<path d="M32.0785 23.4375H30.2208C29.5239 23.4375 28.959 24.0024 28.959 24.6993V24.7953C28.959 25.4922 29.5239 26.0571 30.2208 26.0571H32.0785C32.7754 26.0571 33.3404 25.4922 33.3404 24.7953V24.6993C33.3404 24.0024 32.7754 23.4375 32.0785 23.4375Z" fill="url(#paint5_linear_2804_15044)"/>
<path d="M25.8999 23.4019H16.7052C16.0083 23.4019 15.4434 23.9668 15.4434 24.6637V24.7597C15.4434 25.4566 16.0083 26.0215 16.7052 26.0215H25.8999C26.5968 26.0215 27.1617 25.4566 27.1617 24.7597V24.6637C27.1617 23.9668 26.5968 23.4019 25.8999 23.4019Z" fill="url(#paint6_linear_2804_15044)"/>
<path d="M25.8999 29.417H16.7052C16.0083 29.417 15.4434 29.9819 15.4434 30.6788V30.7748C15.4434 31.4717 16.0083 32.0366 16.7052 32.0366H25.8999C26.5968 32.0366 27.1617 31.4717 27.1617 30.7748V30.6788C27.1617 29.9819 26.5968 29.417 25.8999 29.417Z" fill="url(#paint7_linear_2804_15044)"/>
<path d="M30.9248 43.583L39.5146 34.9932C39.9297 34.578 40.259 34.0851 40.4836 33.5427C40.7082 33.0002 40.8238 32.4189 40.8238 31.8317C40.8237 31.2446 40.7081 30.6633 40.4833 30.1209C40.2586 29.5785 39.9293 29.0857 39.5141 28.6705C39.0989 28.2554 38.606 27.9261 38.0636 27.7015C37.5211 27.4769 36.9398 27.3613 36.3527 27.3613C35.7656 27.3614 35.1842 27.4771 34.6418 27.7018C34.0994 27.9265 33.6066 28.2559 33.1915 28.6711L24.6027 37.2598C24.1875 37.675 23.8581 38.1678 23.6334 38.7102C23.4087 39.2526 23.293 39.8339 23.293 40.421C23.2929 41.0082 23.4085 41.5895 23.6331 42.132C23.8578 42.6744 24.187 43.1673 24.6022 43.5825C25.0173 43.9977 25.5101 44.327 26.0525 44.5517C26.5949 44.7764 27.1763 44.8921 27.7634 44.8922C28.3505 44.8922 28.9318 44.7766 29.4743 44.552C30.0167 44.3274 30.5096 43.9981 30.9248 43.583Z" fill="#4FDCCA"/>
<path d="M24.6027 37.2568L28.9021 32.9624L35.2242 39.2855L30.9248 43.5829C30.5096 43.998 30.0167 44.3273 29.4743 44.5519C28.9318 44.7766 28.3505 44.8922 27.7634 44.8921C27.1763 44.8921 26.5949 44.7764 26.0525 44.5517C25.5101 44.327 25.0173 43.9976 24.6022 43.5824C24.187 43.1672 23.8578 42.6744 23.6331 42.1319C23.4085 41.5895 23.2929 41.0081 23.293 40.421C23.293 39.8339 23.4087 39.2525 23.6334 38.7101C23.8581 38.1677 24.1875 37.6749 24.6027 37.2598V37.2568Z" fill="url(#paint8_linear_2804_15044)"/>
<path d="M39.3061 36.0421C38.4377 35.1737 37.2892 34.6419 36.0653 34.5413C34.8413 34.4408 33.6215 34.7781 32.623 35.4931L39.855 42.7251C40.5701 41.7267 40.9074 40.5068 40.8068 39.2829C40.7063 38.0589 40.1745 36.9104 39.3061 36.0421Z" fill="url(#paint9_linear_2804_15044)"/>
<path d="M31.977 43.3721C32.8456 44.2402 33.9941 44.7717 35.218 44.872C36.4419 44.9724 37.6616 44.6351 38.66 43.9201L31.428 36.6841C30.7119 37.683 30.3739 38.9039 30.4744 40.1289C30.575 41.3539 31.1075 42.5034 31.977 43.3721Z" fill="url(#paint10_linear_2804_15044)"/>
<path d="M39.3056 43.372C39.5062 43.1719 39.6898 42.9556 39.8546 42.7251L32.6226 35.4932C32.1622 35.8242 31.7587 36.2277 31.4277 36.688L38.6597 43.92C38.8898 43.7555 39.1058 43.5722 39.3056 43.372Z" fill="#FF9500"/>
<defs>
<linearGradient id="paint0_linear_2804_15044" x1="15.2807" y1="25.6366" x2="35.6489" y2="25.6366" gradientUnits="userSpaceOnUse">
<stop stop-color="#D3F3FF"/>
<stop offset="1" stop-color="#FFF2E1"/>
</linearGradient>
<linearGradient id="paint1_linear_2804_15044" x1="24.3851" y1="9.06867" x2="24.3851" y2="42.099" gradientUnits="userSpaceOnUse">
<stop stop-color="#2F9BD9"/>
<stop offset="1" stop-color="#0073CD"/>
</linearGradient>
<linearGradient id="paint2_linear_2804_15044" x1="24.4999" y1="12.6264" x2="24.4999" y2="7.19916" gradientUnits="userSpaceOnUse">
<stop stop-color="#1AB3A3"/>
<stop offset="1" stop-color="#1FC5B1"/>
</linearGradient>
<linearGradient id="paint3_linear_2804_15044" x1="15.4434" y1="18.5002" x2="27.1617" y2="18.5002" gradientUnits="userSpaceOnUse">
<stop stop-color="#2F9BD9"/>
<stop offset="1" stop-color="#0073CD"/>
</linearGradient>
<linearGradient id="paint4_linear_2804_15044" x1="28.959" y1="18.5002" x2="33.3394" y2="18.5002" gradientUnits="userSpaceOnUse">
<stop stop-color="#2F9BD9"/>
<stop offset="1" stop-color="#0073CD"/>
</linearGradient>
<linearGradient id="paint5_linear_2804_15044" x1="28.959" y1="24.7473" x2="33.3394" y2="24.7473" gradientUnits="userSpaceOnUse">
<stop stop-color="#2F9BD9"/>
<stop offset="1" stop-color="#0073CD"/>
</linearGradient>
<linearGradient id="paint6_linear_2804_15044" x1="15.4434" y1="24.7117" x2="27.1617" y2="24.7117" gradientUnits="userSpaceOnUse">
<stop stop-color="#2F9BD9"/>
<stop offset="1" stop-color="#0073CD"/>
</linearGradient>
<linearGradient id="paint7_linear_2804_15044" x1="15.4434" y1="30.7268" x2="27.1617" y2="30.7268" gradientUnits="userSpaceOnUse">
<stop stop-color="#2F9BD9"/>
<stop offset="1" stop-color="#0073CD"/>
</linearGradient>
<linearGradient id="paint8_linear_2804_15044" x1="24.6717" y1="36.193" x2="30.8238" y2="42.3451" gradientUnits="userSpaceOnUse">
<stop stop-color="#1FC5B1"/>
<stop offset="1" stop-color="#1AB3A3"/>
</linearGradient>
<linearGradient id="paint9_linear_2804_15044" x1="34.1568" y1="33.9589" x2="46.3103" y2="46.1124" gradientUnits="userSpaceOnUse">
<stop stop-color="#FFC300"/>
<stop offset="1" stop-color="#FF9A00"/>
</linearGradient>
<linearGradient id="paint10_linear_2804_15044" x1="29.8948" y1="38.2209" x2="43.8455" y2="52.1715" gradientUnits="userSpaceOnUse">
<stop stop-color="#FFC300"/>
<stop offset="1" stop-color="#FF9A00"/>
</linearGradient>
</defs>
</svg>
