<?xml version="1.0" encoding="utf-8"?>
<!-- Generator: Adobe Illustrator 12.0.1, SVG Export Plug-In  -->
<!DOCTYPE svg PUBLIC "-//W3C//DTD SVG 1.1//EN" "http://www.w3.org/Graphics/SVG/1.1/DTD/svg11.dtd" [
	<!ENTITY ns_flows "http://ns.adobe.com/Flows/1.0/">
	<!ENTITY ns_svg "http://www.w3.org/2000/svg">
	<!ENTITY ns_xlink "http://www.w3.org/1999/xlink">
]>
<svg  version="1.1" xmlns="&ns_svg;" xmlns:xlink="&ns_xlink;" xmlns:a="http://ns.adobe.com/AdobeSVGViewerExtensions/3.0/"
	 width="661" height="443" viewBox="-0.973 -0.09 661 443" enable-background="new -0.973 -0.09 661 443" xml:space="preserve">
<defs>
</defs>
<polygon fill="#C20634" points="10.205,432.959 648.846,432.959 648.846,240.376 10.205,240.376 "/>
<path fill="#FFFFFF" d="M10.205,432.959h638.641V240.376H10.205V432.959L10.205,432.959z M0,231.165h659.056v211.01H0V231.165
	L0,231.165z"/>
<polygon fill="#FFFFFF" points="307.086,382.965 307.374,308.067 277.564,308.067 285.26,289.002 381.482,289.002 373.783,308.067 
	351.673,308.067 351.957,382.965 "/>
<path fill="#FFFFFF" d="M517.353,353.182h28.515l-14.253-38.099L517.353,353.182L517.353,353.182z M551.697,368.786h-40.181
	l-5.309,14.18h-25.711l37.925-93.963h47.455l37.939,93.963h-46.811L551.697,368.786L551.697,368.786z"/>
<path fill="#FFFFFF" d="M426.107,308.067v74.898h-41.982v-93.963h73.597c21.832,0,29.171,14.011,29.171,25.078
	c0,14.193-10.453,21.328-16.377,24.982l20.2,43.902h-45.894l-15.103-44.137c6.63,0,15.601-3.771,15.601-16.678
	c0-8.721-6.322-14.084-12.583-14.084H426.107L426.107,308.067z"/>
<path fill="#FFFFFF" d="M171.767,382.965c11.938,0,36.462,1.991,56.354,1.991c46.309,0,54.313-23.337,54.313-34.819
	c0-9.199-4.063-19.656-19.927-27.305c-18.127-8.723-46.88-2.43-46.88-11.732c0-7.83,36.777-5.268,53.701-3.025l7.872-19.065
	c0,0-15.999-2.226-41.403-2.226c-40.689,0-61.189,9.234-61.189,33.42c0,4.848,1.492,14.691,11.545,22.207
	c22.811,17.051,54.183,6.762,54.183,16.875c0,3.012-1.653,5.889-20.286,5.889c-8.794,0-25.346-1.025-39.882-2.877L171.767,382.965
	L171.767,382.965z"/>
<path fill="#FFFFFF" d="M92.088,353.182h28.519l-14.258-38.099L92.088,353.182L92.088,353.182z M126.444,368.786H86.253
	l-5.301,14.18H55.233l37.937-93.963h47.45l37.93,93.963h-46.801L126.444,368.786L126.444,368.786z"/>
<path fill="#FFFFFF" d="M329.531,257.698c-52.556-32.65-100.47-66.005-100.47-111.864c0-31.284,25.367-56.644,56.651-56.644
	c11.247,0,21.621,3.282,30.285,8.943l0.03-15.749h-36.499V60.182c0,0,14.275-3.745,29.261-6.013
	c-6.198-5.815-10.089-14.295-10.089-23.34C298.7,13.801,312.501,0,329.529,0c17.022,0,30.827,13.802,30.827,30.829
	c0,9.045-3.888,17.525-10.085,23.34c14.984,2.268,29.252,6.013,29.252,6.013v22.202h-36.496l0.029,15.749
	c8.666-5.66,19.037-8.943,30.287-8.943c31.295,0,56.651,25.36,56.651,56.644C429.998,191.692,382.082,225.047,329.531,257.698
	L329.531,257.698z"/>
<path d="M391.868,147.397c-12.129,21.924-35.502,36.77-62.337,36.77c-26.837,0-50.214-14.845-62.344-36.77h18.525
	c9.2,12.425,21.159,21.034,36.731,23.032l0.046-24.595c0-20.308-16.468-36.768-36.777-36.768c-20.308,0-36.387,16.459-36.387,36.768
	c0,36.395,48.413,68.15,80.204,88.208c31.787-20.058,80.192-51.813,80.192-88.208c0-20.308-16.069-36.768-36.378-36.768
	c-20.312,0-36.776,16.459-36.776,36.768l0.044,24.595c15.571-1.998,27.53-10.609,36.729-23.032H391.868L391.868,147.397z
	 M318.576,30.829c0,6.05,4.906,10.954,10.956,10.954s10.949-4.904,10.949-10.954c0-6.049-4.899-10.954-10.949-10.954
	S318.576,24.78,318.576,30.829L318.576,30.829z M305.272,30.829c0-13.394,10.859-24.258,24.259-24.258
	c13.396,0,24.257,10.864,24.257,24.258c0,11.004-7.339,20.301-17.379,23.267l0.006,5.125c17.856,1.13,36.533,6.035,36.533,6.035
	v10.559h-36.504l0.065,36.671c8.92-10.258,21.986-16.719,36.834-16.719c27.664,0,50.077,22.416,50.077,50.067
	c0,46.503-58.228,81.249-93.89,104.057c-35.668-22.809-93.89-57.554-93.89-104.057c0-27.651,22.413-50.067,50.071-50.067
	c14.844,0,27.915,6.462,36.835,16.719l0.066-36.671h-36.513V65.256c0,0,18.687-4.905,36.542-6.035l0.007-5.125
	C312.609,51.13,305.272,41.833,305.272,30.829L305.272,30.829z"/>
<path fill="#C20634" d="M391.868,147.397c-12.129,21.924-35.502,36.77-62.337,36.77c-26.837,0-50.214-14.845-62.344-36.77h18.525
	c9.2,12.425,21.159,21.034,36.731,23.032l0.046-24.595c0-20.308-16.468-36.768-36.777-36.768c-20.308,0-36.387,16.459-36.387,36.768
	c0,36.395,48.413,68.15,80.204,88.208c31.787-20.058,80.192-51.813,80.192-88.208c0-20.308-16.069-36.768-36.378-36.768
	c-20.312,0-36.776,16.459-36.776,36.768l0.044,24.595c15.571-1.998,27.53-10.609,36.729-23.032H391.868L391.868,147.397z"/>
</svg>
