<?xml version="1.0" encoding="utf-8"?>
<!-- Generator: Adobe Illustrator 26.3.1, SVG Export Plug-In . SVG Version: 6.00 Build 0)  -->
<svg version="1.1" id="Layer_1" xmlns="http://www.w3.org/2000/svg" xmlns:xlink="http://www.w3.org/1999/xlink" x="0px" y="0px"
	 viewBox="0 0 283.46 283.46" style="enable-background:new 0 0 283.46 283.46;" xml:space="preserve">
<style type="text/css">
	.st0{fill:#464646;}
	.st1{fill:#4D4D4F;}
	.st2{fill:#484848;}
</style>
<g>
	<path class="st2" d="M105.55,163.18c-0.16,0.14-0.33,0.28-0.48,0.44c-0.76,0.76-1.52,1.52-2.29,2.28c-0.14,0.14-0.28,0.29-0.44,0.4
		c-0.43,0.3-0.96,0.25-1.32-0.11c-0.39-0.38-0.43-0.94-0.09-1.39c0.12-0.16,0.27-0.29,0.41-0.43c0.74-0.74,1.48-1.48,2.22-2.23
		c0.16-0.16,0.3-0.33,0.45-0.49c-0.39-0.56-2.15-2.34-2.85-2.88c-0.14,0.12-0.29,0.23-0.43,0.37c-0.72,0.72-1.44,1.45-2.16,2.17
		c-0.2,0.2-0.4,0.41-0.62,0.57c-0.42,0.31-0.96,0.25-1.33-0.09c-0.38-0.37-0.43-0.95-0.11-1.39c0.12-0.16,0.27-0.29,0.41-0.43
		c0.72-0.72,1.44-1.44,2.16-2.17c0.18-0.18,0.35-0.37,0.52-0.55c-0.37-0.54-2.16-2.35-2.84-2.87c-0.16,0.14-0.34,0.27-0.49,0.43
		c-0.77,0.76-1.52,1.52-2.29,2.28c-0.16,0.16-0.33,0.32-0.52,0.44c-0.41,0.25-0.92,0.18-1.25-0.15c-0.33-0.32-0.42-0.85-0.18-1.25
		c0.11-0.19,0.28-0.36,0.44-0.52c0.72-0.73,1.44-1.44,2.16-2.17c0.2-0.2,0.39-0.41,0.58-0.6c-0.4-0.57-2.22-2.4-2.85-2.86
		c-0.16,0.14-0.34,0.28-0.49,0.43c-0.74,0.74-1.48,1.48-2.23,2.22c-0.14,0.14-0.28,0.29-0.43,0.41c-0.44,0.33-1.02,0.3-1.4-0.07
		c-0.36-0.36-0.39-0.96-0.07-1.4c0.08-0.11,0.19-0.21,0.28-0.31c0.16-0.16,0.32-0.32,0.48-0.48c21.11-21.11,42.22-42.22,63.34-63.34
		c0.24-0.24,0.47-0.5,0.74-0.69c0.56-0.41,1.29-0.19,1.57,0.42c0.15,0.34,0.13,0.67-0.08,0.97c-0.13,0.19-0.29,0.35-0.45,0.51
		c-0.72,0.72-1.44,1.44-2.16,2.17c-0.18,0.18-0.35,0.37-0.52,0.55c0.33,0.52,2,2.22,2.82,2.88c0.14-0.11,0.29-0.22,0.43-0.36
		c0.75-0.74,1.49-1.48,2.23-2.22c0.14-0.14,0.27-0.29,0.42-0.42c0.46-0.39,1.08-0.39,1.47-0.02c0.44,0.42,0.44,1.01,0.01,1.52
		c-0.13,0.15-0.27,0.29-0.42,0.43c-0.68,0.68-1.36,1.36-2.04,2.05c-0.18,0.18-0.35,0.37-0.52,0.55c0.35,0.53,1.97,2.19,2.82,2.88
		c0.14-0.11,0.3-0.23,0.43-0.36c0.79-0.78,1.57-1.56,2.35-2.34c0.14-0.14,0.28-0.29,0.44-0.4c0.41-0.29,0.98-0.25,1.33,0.08
		c0.39,0.37,0.44,0.94,0.11,1.39c-0.12,0.16-0.27,0.29-0.41,0.43c-0.74,0.74-1.48,1.48-2.22,2.23c-0.16,0.16-0.31,0.33-0.45,0.49
		c0.35,0.54,1.77,2,2.81,2.9c0.14-0.11,0.3-0.22,0.44-0.36c0.79-0.78,1.57-1.56,2.35-2.34c0.14-0.14,0.27-0.29,0.43-0.41
		c0.44-0.33,1.02-0.27,1.39,0.12c0.33,0.35,0.37,0.92,0.07,1.33c-0.12,0.16-0.26,0.3-0.4,0.44c-0.72,0.72-1.44,1.44-2.16,2.17
		c-0.18,0.18-0.35,0.37-0.51,0.54c0.32,0.53,1.72,1.98,2.8,2.9c0.14-0.12,0.3-0.23,0.43-0.36c0.79-0.78,1.56-1.56,2.35-2.34
		c0.16-0.16,0.32-0.33,0.51-0.45c0.44-0.28,0.97-0.2,1.32,0.17c0.33,0.34,0.37,0.93,0.08,1.33c-0.11,0.16-0.26,0.3-0.4,0.44
		c-0.72,0.72-1.44,1.44-2.16,2.17c-0.18,0.18-0.35,0.37-0.52,0.54c0.31,0.52,1.77,2.04,2.8,2.9c0.14-0.12,0.29-0.23,0.43-0.36
		c0.77-0.76,1.53-1.52,2.29-2.28c0.16-0.16,0.32-0.33,0.5-0.46c0.45-0.33,1.02-0.28,1.39,0.12c0.33,0.35,0.37,0.92,0.07,1.33
		c-0.13,0.18-0.3,0.34-0.46,0.5c-0.68,0.68-1.36,1.36-2.04,2.05c-0.2,0.2-0.39,0.41-0.58,0.6c0.3,0.51,1.92,2.18,2.81,2.9
		c0.14-0.12,0.29-0.23,0.42-0.36c0.79-0.78,1.56-1.56,2.35-2.34c0.16-0.16,0.32-0.33,0.51-0.45c0.42-0.28,0.98-0.19,1.32,0.18
		c0.31,0.34,0.37,0.87,0.11,1.26c-0.13,0.19-0.29,0.34-0.45,0.5c-0.74,0.74-1.48,1.48-2.22,2.23c-0.16,0.16-0.31,0.33-0.46,0.49
		c0.32,0.51,2,2.24,2.83,2.89c0.13-0.11,0.29-0.22,0.42-0.35c0.72-0.72,1.44-1.45,2.16-2.17c0.2-0.2,0.4-0.41,0.62-0.58
		c0.44-0.32,1.04-0.25,1.39,0.13c0.34,0.38,0.37,0.91,0.06,1.33c-0.12,0.16-0.27,0.29-0.41,0.43c-0.72,0.72-1.44,1.44-2.16,2.17
		c-0.18,0.18-0.35,0.37-0.52,0.54c0.33,0.52,1.97,2.2,2.82,2.88c0.14-0.11,0.29-0.22,0.43-0.36c0.77-0.76,1.52-1.52,2.29-2.28
		c0.16-0.16,0.32-0.33,0.5-0.46c0.41-0.29,0.99-0.25,1.34,0.08c0.39,0.37,0.45,0.93,0.12,1.39c-0.11,0.16-0.26,0.3-0.4,0.44
		c-0.72,0.72-1.44,1.44-2.16,2.17c-0.18,0.18-0.35,0.37-0.52,0.55c0.34,0.53,1.89,2.12,2.81,2.89c0.14-0.11,0.3-0.22,0.43-0.36
		c0.77-0.76,1.52-1.52,2.29-2.28c0.16-0.16,0.32-0.33,0.5-0.46c0.41-0.3,0.98-0.26,1.33,0.07c0.36,0.34,0.44,0.89,0.17,1.32
		c-0.07,0.12-0.17,0.22-0.27,0.33c-0.18,0.18-0.36,0.36-0.54,0.54c-21.11,21.11-42.22,42.22-63.34,63.34
		c-0.24,0.24-0.47,0.5-0.74,0.7c-0.65,0.49-1.48,0.18-1.67-0.59c-0.08-0.33,0.02-0.62,0.21-0.88c0.12-0.16,0.27-0.29,0.41-0.43
		c0.74-0.74,1.48-1.48,2.22-2.23c0.16-0.16,0.3-0.33,0.44-0.49c-0.48-0.65-2.28-2.44-2.86-2.84c-0.16,0.14-0.33,0.28-0.49,0.44
		c-0.74,0.74-1.48,1.48-2.23,2.22c-0.16,0.16-0.32,0.32-0.51,0.45c-0.43,0.29-0.97,0.22-1.32-0.13c-0.32-0.33-0.4-0.85-0.15-1.26
		c0.12-0.19,0.28-0.35,0.44-0.51c0.76-0.77,1.52-1.52,2.28-2.29c0.16-0.16,0.3-0.33,0.48-0.54c-0.93-0.95-1.85-1.87-2.81-2.81
		c-0.15,0.11-0.3,0.18-0.41,0.29c-0.79,0.78-1.57,1.56-2.35,2.34c-0.14,0.14-0.27,0.29-0.43,0.42c-0.46,0.38-1.08,0.35-1.46-0.05
		c-0.35-0.37-0.37-0.98-0.03-1.4c0.12-0.15,0.27-0.29,0.41-0.43c0.7-0.7,1.4-1.4,2.1-2.11c0.18-0.18,0.35-0.37,0.52-0.54
		c-0.3-0.53-1.68-1.95-2.8-2.91c-0.14,0.11-0.3,0.21-0.43,0.34c-0.79,0.78-1.56,1.56-2.35,2.34c-0.16,0.16-0.32,0.33-0.5,0.46
		c-0.37,0.26-0.93,0.2-1.26-0.09c-0.36-0.32-0.45-0.91-0.19-1.32c0.12-0.19,0.29-0.35,0.45-0.51c0.72-0.72,1.44-1.44,2.16-2.17
		c0.18-0.18,0.35-0.37,0.51-0.54c-0.31-0.53-1.84-2.11-2.8-2.9c-0.14,0.11-0.29,0.23-0.42,0.36c-0.79,0.78-1.56,1.56-2.35,2.34
		c-0.16,0.16-0.32,0.32-0.51,0.44c-0.44,0.27-0.99,0.18-1.32-0.18c-0.33-0.36-0.37-0.91-0.06-1.33c0.12-0.16,0.26-0.3,0.4-0.44
		c0.74-0.74,1.49-1.48,2.22-2.23c0.16-0.16,0.3-0.33,0.44-0.49c-0.34-0.54-2.02-2.25-2.82-2.88c-0.14,0.12-0.29,0.24-0.42,0.37
		c-0.78,0.78-1.56,1.56-2.35,2.34c-0.16,0.16-0.32,0.33-0.51,0.45c-0.43,0.27-0.98,0.17-1.31-0.2c-0.32-0.35-0.36-0.85-0.09-1.26
		c0.12-0.19,0.29-0.35,0.45-0.51c0.72-0.72,1.44-1.44,2.16-2.17c0.18-0.18,0.34-0.37,0.5-0.55
		C108.02,165.5,106.27,163.73,105.55,163.18z M149.33,93.05c-0.58,0.45-54.95,54.82-55.4,55.41c0.21,0.22,0.42,0.44,0.64,0.66
		c12.21,12.21,24.42,24.42,36.63,36.63c0.14,0.14,0.27,0.29,0.42,0.42c0.12,0.1,0.26,0.19,0.41,0.29
		c18.34-18.34,36.64-36.64,54.94-54.94c0.12-0.12,0.23-0.25,0.35-0.37c0.02-0.02,0.04-0.05,0.04-0.07c0.01-0.02-0.01-0.05,0,0.01
		C174.67,118.38,162.02,105.73,149.33,93.05z"/>
	<path class="st2" d="M149.35,96.04c0.25,0.11,0.5,0.19,0.7,0.32c0.19,0.12,0.33,0.31,0.49,0.47
		c11.01,11.01,22.02,22.01,33.02,33.02c0.16,0.16,0.33,0.31,0.47,0.49c0.35,0.45,0.34,0.95-0.03,1.4c-0.16,0.2-0.35,0.37-0.53,0.55
		c-7.58,7.58-15.16,15.16-22.74,22.74c-9.16,9.16-18.33,18.33-27.49,27.49c-0.22,0.22-0.43,0.45-0.68,0.64
		c-0.35,0.27-0.58,0.26-0.91-0.02c-0.31-0.25-0.6-0.52-0.89-0.79c-2.06-1.99-4.14-3.95-6.18-5.97c-6.14-6.09-12.26-12.19-18.39-18.3
		c-2.85-2.84-5.68-5.71-8.52-8.56c-0.14-0.14-0.29-0.28-0.41-0.43c-0.31-0.41-0.3-0.94,0.01-1.33c0.12-0.15,0.27-0.29,0.41-0.43
		c16.84-16.84,33.68-33.68,50.53-50.53c0.14-0.14,0.27-0.31,0.43-0.41C148.86,96.24,149.1,96.16,149.35,96.04z M149.32,98.75
		c-0.56,0.43-49.21,49.08-49.68,49.69c0.23,0.23,0.46,0.48,0.7,0.72c10.24,10.24,20.49,20.49,30.73,30.73
		c0.18,0.18,0.35,0.37,0.54,0.54c0.12,0.11,0.26,0.19,0.42,0.3c0.29-0.29,0.55-0.54,0.81-0.8c16.02-16.02,32.04-32.04,48.05-48.05
		c0.16-0.16,0.33-0.32,0.48-0.48c0.11-0.12,0.2-0.25,0.26-0.33C170.85,120.28,160.11,109.54,149.32,98.75z"/>
	<path class="st2" d="M135.25,143.37c0.1-0.57,0.2-1.12,0.29-1.68c0.28-1.7,0.56-3.41,0.84-5.11c0.02-0.11,0.03-0.23,0.06-0.33
		c0.15-0.49,0.52-0.72,1-0.8c0.73-0.12,1.45-0.24,2.18-0.36c1.48-0.24,2.96-0.48,4.45-0.72c0.08-0.01,0.16-0.06,0.29-0.11
		c0.11-0.61,0.23-1.25,0.34-1.88c0.25-1.54,0.5-3.08,0.74-4.62c0.2-1.26,0.48-1.32,1.5-1.49c1.87-0.31,3.75-0.61,5.62-0.91
		c0.3-0.05,0.6-0.13,0.93-0.2c0.14-0.85,0.28-1.65,0.42-2.46c0.24-1.45,0.47-2.91,0.71-4.36c0.13-0.75,0.38-1,1.16-1.13
		c2.32-0.39,4.64-0.77,6.96-1.15c0.22-0.04,0.45-0.07,0.68-0.06c0.58,0.01,1,0.44,1.01,1.03c0,0.17-0.04,0.34-0.06,0.5
		c-0.37,2.29-0.74,4.59-1.12,6.88c-0.02,0.14-0.06,0.28-0.09,0.42c-0.1,0.54-0.42,0.84-0.97,0.92c-1.29,0.21-2.57,0.43-3.86,0.64
		c-0.81,0.13-1.62,0.26-2.43,0.39c-0.22,0.04-0.44,0.11-0.69,0.18c-0.09,0.51-0.18,1-0.27,1.5c-0.29,1.76-0.57,3.52-0.87,5.28
		c-0.13,0.8-0.38,1.02-1.22,1.16c-2.1,0.35-4.19,0.69-6.29,1.03c-0.14,0.02-0.27,0.07-0.42,0.1c-0.26,0.62-0.27,1.28-0.39,1.92
		c-0.27,1.53-0.5,3.08-0.75,4.61c-0.03,0.17-0.07,0.33-0.1,0.5c-0.09,0.51-0.39,0.8-0.89,0.89c-0.56,0.1-1.12,0.19-1.67,0.29
		c-1.68,0.28-3.35,0.56-5.03,0.84c-0.08,0.01-0.16,0.04-0.29,0.07c-0.04,0.14-0.11,0.29-0.14,0.45c-0.34,2.01-0.67,4.02-1,6.04
		c-0.03,0.2-0.06,0.39-0.1,0.59c-0.12,0.49-0.42,0.78-0.93,0.87c-1.01,0.16-2.01,0.34-3.02,0.5c-1.15,0.19-2.29,0.37-3.44,0.56
		c-0.16,0.03-0.33,0.08-0.52,0.13c-0.06,0.23-0.12,0.44-0.16,0.66c-0.34,2.01-0.67,4.02-1,6.04c-0.01,0.08-0.02,0.17-0.04,0.25
		c-0.09,0.58-0.45,0.9-1.01,1c-0.42,0.08-0.84,0.14-1.26,0.21c-1.93,0.31-3.86,0.63-5.79,0.94c-0.17,0.03-0.33,0.07-0.5,0.08
		c-0.78,0.05-1.25-0.4-1.21-1.17c0.01-0.25,0.05-0.51,0.09-0.76c0.34-2.1,0.69-4.19,1.03-6.29c0.03-0.2,0.08-0.39,0.11-0.58
		c0.08-0.55,0.41-0.86,0.94-0.95c0.53-0.1,1.06-0.18,1.59-0.27c1.68-0.28,3.35-0.56,5.03-0.83c0.11-0.02,0.22-0.05,0.36-0.09
		c0.24-0.76,0.3-1.55,0.43-2.33c0.25-1.48,0.48-2.96,0.72-4.45c0.01-0.08,0.03-0.17,0.05-0.25c0.12-0.53,0.44-0.83,0.98-0.92
		c1.31-0.21,2.63-0.44,3.94-0.65c0.81-0.13,1.62-0.26,2.43-0.39C134.84,143.5,135.02,143.43,135.25,143.37z M161.19,123.77
		c0.32-1.82,0.61-3.56,0.88-5.38c-0.2-0.01-0.33-0.04-0.46-0.02c-1.64,0.26-3.29,0.51-4.9,0.81c-0.06,0.13-0.11,0.2-0.12,0.28
		c-0.27,1.59-0.53,3.18-0.79,4.77c-0.02,0.12,0.04,0.25,0.07,0.4C157.64,124.35,159.37,124.07,161.19,123.77z M124.67,160.23
		c0.33-1.28,0.85-4.68,0.83-5.37c-0.07-0.01-0.16-0.05-0.23-0.04c-1.7,0.3-3.4,0.52-5.13,0.86c-0.15,0.93-0.3,1.82-0.44,2.71
		c-0.14,0.88-0.37,1.75-0.38,2.73C121.14,160.82,122.9,160.58,124.67,160.23z M137.51,142.9c1.89-0.31,3.64-0.6,5.36-0.89
		c0.3-0.97,0.89-4.75,0.85-5.46c-1.78,0.3-3.56,0.54-5.35,0.9C138.08,139.26,137.75,141,137.51,142.9z M152.88,127.42
		c-1.83,0.3-3.58,0.59-5.33,0.88c-0.05,0.16-0.09,0.26-0.11,0.37c-0.27,1.62-0.53,3.24-0.79,4.86c0,0.03,0,0.06,0.01,0.08
		c0.01,0.02,0.04,0.04,0.12,0.12c0.84-0.04,1.72-0.25,2.61-0.39c0.88-0.15,1.79-0.21,2.69-0.5c0.27-1.61,0.53-3.19,0.79-4.78
		C152.9,127.88,152.88,127.71,152.88,127.42z M128.43,152.01c1.85-0.3,3.61-0.56,5.33-0.88c0.18-0.57,0.79-3.92,0.92-5.05
		c0.01-0.1-0.01-0.21-0.02-0.32c-0.89,0.01-4.75,0.65-5.4,0.9c-0.27,1.62-0.55,3.26-0.82,4.91
		C128.41,151.67,128.43,151.78,128.43,152.01z"/>
	<path class="st2" d="M130.93,132.48c-0.01,0.07-0.03,0.21-0.06,0.35c-0.54,2.05-1.09,4.1-1.63,6.16c-0.14,0.55-0.47,0.87-1.02,1.01
		c-2.03,0.53-4.05,1.07-6.08,1.6c-0.14,0.04-0.28,0.07-0.42,0.08c-0.63,0.02-1.14-0.52-1.08-1.15c0.03-0.25,0.1-0.5,0.17-0.74
		c0.48-1.81,0.96-3.61,1.44-5.42c0.04-0.16,0.09-0.33,0.14-0.49c0.11-0.39,0.37-0.63,0.75-0.74c0.16-0.05,0.33-0.09,0.49-0.14
		c1.8-0.48,3.61-0.97,5.41-1.45c0.22-0.06,0.44-0.12,0.66-0.16C130.36,131.31,130.91,131.78,130.93,132.48z M128.33,134.02
		c-0.24,0.02-0.4,0.02-0.56,0.06c-1.01,0.26-2.02,0.55-3.04,0.8c-0.35,0.09-0.52,0.27-0.6,0.61c-0.26,1.04-0.55,2.08-0.82,3.12
		c-0.03,0.13-0.02,0.26-0.03,0.47c1.39-0.31,2.68-0.69,4.01-1.05C127.65,136.71,128.03,135.42,128.33,134.02z"/>
	<path class="st2" d="M119.4,144.08c-0.02,0.11-0.06,0.3-0.11,0.5c-0.51,1.92-1.02,3.83-1.52,5.74c-0.02,0.08-0.05,0.16-0.07,0.25
		c-0.11,0.49-0.42,0.78-0.9,0.91c-0.74,0.19-1.48,0.39-2.21,0.59c-1.26,0.34-2.53,0.64-3.77,1.02c-1.31,0.4-1.89-0.5-1.59-1.53
		c0.55-1.93,1.05-3.88,1.55-5.82c0.16-0.64,0.51-1.01,1.17-1.17c1.95-0.48,3.89-1.02,5.83-1.53c0.16-0.04,0.33-0.1,0.49-0.11
		C118.91,142.86,119.41,143.34,119.4,144.08z M116.74,145.57c-0.68,0.05-3.23,0.72-3.96,1.04c-0.37,1-0.95,3.34-0.98,3.95
		c0.68-0.05,1.31-0.3,1.96-0.46c0.68-0.18,1.37-0.3,1.99-0.57C116.16,148.36,116.71,146.13,116.74,145.57z"/>
	<path class="st2" d="M133.36,130.14c-0.8,0.02-1.28-0.52-1.19-1.21c0.02-0.14,0.07-0.27,0.1-0.41c0.52-1.94,1.05-3.88,1.54-5.83
		c0.16-0.66,0.52-1.01,1.17-1.18c1.95-0.5,3.88-1.03,5.83-1.54c0.19-0.05,0.39-0.09,0.59-0.09c0.65-0.01,1.12,0.52,1.05,1.16
		c-0.02,0.2-0.08,0.39-0.13,0.58c-0.5,1.89-1,3.77-1.5,5.66c-0.02,0.08-0.05,0.16-0.07,0.24c-0.12,0.48-0.41,0.79-0.91,0.91
		c-0.5,0.12-0.98,0.26-1.48,0.39c-1.48,0.39-2.95,0.78-4.43,1.17C133.7,130.07,133.48,130.12,133.36,130.14z M139.76,122.43
		c-1.37,0.41-2.7,0.67-3.98,1.1c-0.35,1.34-0.74,2.62-1.02,3.95c0.69-0.04,3.32-0.72,4.08-1.06c0.31-1.19,0.64-2.42,0.95-3.64
		C139.81,122.71,139.78,122.63,139.76,122.43z"/>
	<path class="st2" d="M151.38,148.22c-0.76,0.01-1.25-0.55-1.14-1.23c0.03-0.2,0.09-0.39,0.14-0.58c0.5-1.86,0.99-3.72,1.49-5.58
		c0.02-0.08,0.04-0.17,0.06-0.25c0.13-0.52,0.45-0.82,0.97-0.95c0.82-0.2,1.64-0.44,2.46-0.65c1.15-0.3,2.3-0.61,3.45-0.91
		c0.22-0.06,0.44-0.12,0.66-0.12c0.64-0.01,1.11,0.55,1.03,1.18c-0.03,0.2-0.09,0.39-0.14,0.58c-0.5,1.89-1.03,3.77-1.5,5.66
		c-0.17,0.7-0.56,1.05-1.23,1.22c-1.89,0.48-3.78,0.99-5.67,1.49C151.76,148.15,151.53,148.19,151.38,148.22z M153.87,141.57
		c-0.14,0.5-0.26,0.93-0.37,1.37c-0.12,0.44-0.25,0.87-0.35,1.31c-0.09,0.43-0.31,0.84-0.26,1.38c0.72-0.14,1.37-0.33,2.01-0.52
		c0.67-0.2,1.38-0.27,2.01-0.61c0.31-1.18,0.62-2.33,0.92-3.48c0.04-0.15,0.02-0.31,0.03-0.52
		C156.5,140.87,155.22,141.21,153.87,141.57z"/>
	<path class="st2" d="M137.47,162.12c-0.03,0.15-0.07,0.37-0.13,0.59c-0.5,1.89-1,3.78-1.5,5.66c-0.03,0.11-0.07,0.21-0.1,0.32
		c-0.11,0.46-0.42,0.72-0.86,0.85c-0.38,0.11-0.77,0.2-1.15,0.3c-1.64,0.43-3.28,0.88-4.93,1.3c-1.2,0.31-1.82-0.3-1.51-1.5
		c0.51-1.94,1.05-3.88,1.54-5.83c0.17-0.7,0.55-1.05,1.23-1.22c1.89-0.47,3.78-0.99,5.66-1.5c0.16-0.04,0.33-0.09,0.5-0.12
		C136.92,160.88,137.48,161.36,137.47,162.12z M133.79,167.64c0.07-0.17,0.14-0.3,0.18-0.43c0.3-1.15,0.59-2.29,0.88-3.44
		c0.01-0.02,0-0.06-0.01-0.08c-0.01-0.02-0.04-0.04-0.1-0.1c-1.28,0.29-2.57,0.66-3.89,1.02c-0.13,0.46-0.26,0.89-0.38,1.32
		c-0.13,0.46-0.26,0.92-0.36,1.39c-0.1,0.42-0.3,0.83-0.27,1.34C131.19,168.38,132.45,167.99,133.79,167.64z"/>
	<path class="st2" d="M162.86,136.72c-0.63,0-1.1-0.45-1.11-1.01c0-0.19,0.05-0.39,0.1-0.58c0.52-1.97,1.06-3.94,1.56-5.91
		c0.16-0.62,0.49-0.97,1.11-1.13c1.95-0.5,3.89-1.02,5.83-1.54c0.16-0.04,0.33-0.1,0.49-0.12c0.64-0.07,1.18,0.4,1.17,1.04
		c0,0.25-0.07,0.5-0.13,0.75c-0.49,1.86-0.99,3.72-1.48,5.58c-0.02,0.08-0.05,0.16-0.07,0.25c-0.11,0.53-0.44,0.84-0.96,0.97
		c-0.58,0.14-1.15,0.3-1.73,0.45c-1.37,0.36-2.73,0.73-4.1,1.1C163.3,136.63,163.05,136.68,162.86,136.72z M168.36,133.05
		c0.05-0.13,0.13-0.29,0.17-0.45c0.29-1.12,0.58-2.24,0.86-3.36c0.01-0.04-0.04-0.1-0.06-0.15c-0.72,0.06-3.35,0.75-3.95,1.05
		c-0.51,1.56-0.93,3.29-0.96,3.89C165.08,134,167.13,133.48,168.36,133.05z"/>
	<path class="st2" d="M153.94,109.57c-0.02,0.1-0.07,0.33-0.13,0.54c-0.49,1.86-0.98,3.72-1.47,5.58c-0.04,0.16-0.09,0.33-0.14,0.49
		c-0.12,0.34-0.34,0.58-0.69,0.69c-0.19,0.06-0.38,0.11-0.57,0.16c-1.8,0.48-3.61,0.96-5.41,1.44c-0.22,0.06-0.44,0.12-0.66,0.15
		c-0.71,0.07-1.21-0.41-1.16-1.12c0.01-0.17,0.05-0.34,0.09-0.5c0.51-1.91,1.01-3.83,1.52-5.74c0.04-0.16,0.09-0.33,0.14-0.49
		c0.11-0.31,0.33-0.53,0.64-0.64c0.16-0.06,0.33-0.09,0.49-0.14c1.91-0.51,3.83-1.02,5.74-1.52c0.16-0.04,0.33-0.1,0.5-0.11
		C153.47,108.32,153.95,108.79,153.94,109.57z M147.38,111.98c-0.39,0.92-1.03,3.44-1.02,3.99c0.59-0.04,3.08-0.68,3.9-1
		c0.38-0.92,1.02-3.44,1-4.03C149.95,111.28,148.65,111.6,147.38,111.98z"/>
	<path class="st2" d="M148.99,150.61c-0.02,0.1-0.06,0.3-0.11,0.49c-0.51,1.91-1.01,3.83-1.52,5.74c-0.03,0.11-0.06,0.22-0.09,0.33
		c-0.12,0.45-0.4,0.74-0.85,0.85c-0.74,0.19-1.48,0.39-2.22,0.59c-1.28,0.34-2.57,0.69-3.85,1.02c-0.22,0.06-0.44,0.1-0.67,0.1
		c-0.51-0.01-0.92-0.4-0.94-0.91c-0.01-0.25,0.03-0.51,0.09-0.75c0.51-1.94,1.04-3.88,1.54-5.83c0.16-0.62,0.5-0.96,1.12-1.12
		c1.95-0.5,3.88-1.03,5.83-1.54c0.22-0.06,0.45-0.1,0.67-0.09C148.58,149.49,148.99,149.92,148.99,150.61z M141.27,157.2
		c1.46-0.39,2.76-0.74,4.08-1.09c0.13-0.47,0.26-0.9,0.38-1.33c0.13-0.46,0.25-0.93,0.36-1.39c0.1-0.42,0.29-0.83,0.27-1.29
		c-0.71,0.08-3.26,0.75-4.01,1.06C141.97,154.42,141.63,155.72,141.27,157.2z"/>
</g>
</svg>
