<svg xmlns="http://www.w3.org/2000/svg" viewBox="0 0 340 340"><path fill="#66ccff" d="M252.3,110.307a4,4,0,0,1-4-4V98.989a4,4,0,1,1,8,0v7.318A4,4,0,0,1,252.3,110.307Z" class="colorc0c0ce svgShape"></path><path fill="#edf2f4" d="M215.126,205.508l-19.4,29.27c-4.039-12.115-9.155-25.068-12.649-33.6a29.121,29.121,0,0,0-13.063-14.572c-15.179-8.23-27.384-14.452-27.384-14.452V150.37H103.387v22.464L76.964,187.5A39.153,39.153,0,0,0,60.834,204.3c-15.021,30.341-24.765,62.084-29.043,77.477a17.652,17.652,0,0,0,4.659,17.472c17.72,17,41.172,23,41.172,23V330H171.9V265.07l19.007,16.547A12.249,12.249,0,0,0,209.13,279.2c17.048-25.443,41.052-73.7,41.052-73.7Z" class="coloreeedf4 svgShape"></path><path fill="#b3e6ff" d="M215.126,205.508l9.3-14.029a23.951,23.951,0,0,1,19.964-10.719h31.947l-2.528,7.663a24.877,24.877,0,0,1-23.625,17.085H215.126Z" class="colorffc7b3 svgShape"></path><path fill="#4a6370" d="M184.034,165.936H320.558a0,0,0,0,1,0,0v0a14.823,14.823,0,0,1-14.823,14.823H198.857a14.823,14.823,0,0,1-14.823-14.823v0A0,0,0,0,1,184.034,165.936Z" class="color4a5870 svgShape"></path><path fill="#e2e6e8" d="M252.3,102.307h0a62.084,62.084,0,0,0-62.084,62.085v1.544H314.381v-1.544A62.084,62.084,0,0,0,252.3,102.307Z" class="colore3e2e8 svgShape"></path><path fill="#66ccff" d="M149.579,330V216.2a24.842,24.842,0,0,0-8.154-18.382l-14.7-13.307a8.723,8.723,0,0,1-2.865-6.457V150.37h-8v27.686a16.742,16.742,0,0,0,5.5,12.388l14.7,13.306a16.831,16.831,0,0,1,5.524,12.452V330Z" class="colorc0c0ce svgShape"></path><path fill="#ffffff" d="M210.281 148.89a4 4 0 0 1-3.7-5.813 53.919 53.919 0 0 1 13.858-17.313 4 4 0 0 1 5.082 6.179 45.963 45.963 0 0 0-11.81 14.762A4 4 0 0 1 210.281 148.89zM236.242 125.136a4 4 0 0 1-1.537-7.746c1.112-.415 1.79-.608 1.915-.643a4 4 0 0 1 2.14 7.709c-.028.008-.484.14-1.254.428A4.007 4.007 0 0 1 236.242 125.136z" class="colorffffff svgShape"></path><path fill="#66ccff" d="M127.77 217.31a4.031 4.031 0 0 1-2.83-1.18 4.081 4.081 0 0 1-.5-.6 4.241 4.241 0 0 1-.37-.7 3.922 3.922 0 0 1-.22-.74 3.891 3.891 0 0 1 0-1.57 4.252 4.252 0 0 1 .22-.75 4.579 4.579 0 0 1 .37-.69 3.99 3.99 0 0 1 4.86-1.47 3.828 3.828 0 0 1 .69.37 3.188 3.188 0 0 1 .6.5 3.54 3.54 0 0 1 .5.6 3.828 3.828 0 0 1 .37.69 4.3 4.3 0 0 1 .23.75 3.891 3.891 0 0 1 0 1.57 3.956 3.956 0 0 1-.23.74 3.6 3.6 0 0 1-.37.7 3.54 3.54 0 0 1-.5.6 3.62 3.62 0 0 1-.6.5 4.579 4.579 0 0 1-.69.37 4.053 4.053 0 0 1-.75.23A4.129 4.129 0 0 1 127.77 217.31zM127.77 264.79a4.042 4.042 0 0 1-.78-.07 3.832 3.832 0 0 1-.75-.23 4.143 4.143 0 0 1-.69-.37 4 4 0 0 1-1.11-1.11 3.782 3.782 0 0 1-.37-.69 3.922 3.922 0 0 1-.22-.74 3.474 3.474 0 0 1-.08-.79 3.981 3.981 0 0 1 1.17-2.82 3.251 3.251 0 0 1 .61-.5 4.143 4.143 0 0 1 .69-.37 3.832 3.832 0 0 1 .75-.23 3.994 3.994 0 0 1 3.6 6.75A3.981 3.981 0 0 1 127.77 264.79zM127.77 316.33a4.047 4.047 0 0 1-2.83-1.17 3.694 3.694 0 0 1-.5-.61 4.579 4.579 0 0 1-.37-.69 3.809 3.809 0 0 1-.22-.75 3.843 3.843 0 0 1 0-1.56 3.809 3.809 0 0 1 .22-.75 4.579 4.579 0 0 1 .37-.69 4.161 4.161 0 0 1 .5-.61 3.639 3.639 0 0 1 .61-.49 3.519 3.519 0 0 1 .69-.37 3.832 3.832 0 0 1 .75-.23 4.037 4.037 0 0 1 3.6 1.09 3.605 3.605 0 0 1 .5.61 4.033 4.033 0 0 1 .6 1.44 4.129 4.129 0 0 1 .08.78 4.012 4.012 0 0 1-4 4zM314.381 164.392a62.019 62.019 0 0 0-28.361-52.116 44.836 44.836 0 0 1 4.079 16.338c.727 16.425-12.678 30.032-29.118 30.032H190.486c-.173 1.893-.274 3.807-.274 5.746v1.544H314.381zM142.63 172.153V150.37H103.387v10.915L143 172.342z" class="colorc0c0ce svgShape"></path><path fill="#86cef2" d="M85.217,117.859H96.38a0,0,0,0,1,0,0v22.324a0,0,0,0,1,0,0H85.217a11.162,11.162,0,0,1-11.162-11.162v0a11.162,11.162,0,0,1,11.162-11.162Z" class="colorf29a86 svgShape"></path><path fill="#86cef2" d="M162.236,117.859H173.4a0,0,0,0,1,0,0v22.324a0,0,0,0,1,0,0H162.236a11.162,11.162,0,0,1-11.162-11.162v0A11.162,11.162,0,0,1,162.236,117.859Z" transform="rotate(-180 162.237 129.021)" class="colorf29a86 svgShape"></path><path fill="#b3e6ff" d="M123.727,99.158H90.074v27.317l.228,4.618a31.484,31.484,0,0,0,31.446,29.938h3.957a31.484,31.484,0,0,0,31.447-29.938l.227-4.618V99.158Z" class="colorffc7b3 svgShape"></path><path fill="#edf2f4" d="M168.784,78.775V60.935A20.631,20.631,0,1,0,147.7,25.779a24.34,24.34,0,0,0-47.942,0A20.629,20.629,0,1,0,78.669,60.935v17.84a7.232,7.232,0,0,0-7.232,7.232V99.158h104.58V86.007A7.232,7.232,0,0,0,168.784,78.775Z" class="coloreeedf4 svgShape"></path><polygon fill="#86cef2" points="90.074 99.158 90.074 106.661 157.379 106.661 157.379 99.158 123.727 99.158 90.074 99.158" class="colorf29a86 svgShape"></polygon><path fill="#4a6370" d="M80.161 99.158v8.6a20.991 20.991 0 0 0 5.939 14.63l3.974 4.087s13.313-7.207 13.313-27.317zM167.293 99.158v8.6a20.988 20.988 0 0 1-5.94 14.63l-3.974 4.087s-13.312-7.207-13.312-27.317z" class="color4a5870 svgShape"></path><path fill="#66ccff" d="M78.675 70.768h-.006v8.006l17.716-.007a4 4 0 0 0 4-4V67.992a20.649 20.649 0 0 0-1.83-8.526l-.727-1.614a4 4 0 0 0-7.3 3.283l.727 1.615a12.7 12.7 0 0 1 1.125 5.242v2.776zM150.588 78.763l18.2.012V70.763h-14.2V67.986a12.7 12.7 0 0 1 1.125-5.242l.727-1.614a4 4 0 0 0-7.295-3.284l-.727 1.615a20.651 20.651 0 0 0-1.83 8.525v6.777A4 4 0 0 0 150.588 78.763zM131.219 78.775h-7.492a4 4 0 0 1-4-4V57.126a4 4 0 0 1 8 0V70.775h3.492a4 4 0 0 1 0 8z" class="colorc0c0ce svgShape"></path><path fill="#4a6370" d="M112.79 130.48a4.012 4.012 0 0 1-4-4 3.474 3.474 0 0 1 .08-.79 4.252 4.252 0 0 1 .22-.75 4.579 4.579 0 0 1 .37-.69 4.82 4.82 0 0 1 .5-.6 3.976 3.976 0 0 1 4.36-.87 4.579 4.579 0 0 1 .69.37 3.605 3.605 0 0 1 .61.5 4.013 4.013 0 0 1 .49.6 3.828 3.828 0 0 1 .37.69 4.3 4.3 0 0 1 .23.75 4.15 4.15 0 0 1 .08.79 4.023 4.023 0 0 1-1.17 2.82 4.161 4.161 0 0 1-.61.5 4.579 4.579 0 0 1-.69.37 4.053 4.053 0 0 1-.75.23A4.129 4.129 0 0 1 112.79 130.48zM134.67 130.48a4.012 4.012 0 0 1-4-4 3.532 3.532 0 0 1 .08-.79 3.922 3.922 0 0 1 .22-.74 4.241 4.241 0 0 1 .37-.7 4.081 4.081 0 0 1 .5-.6 3.251 3.251 0 0 1 .61-.5 4.143 4.143 0 0 1 .69-.37 4.659 4.659 0 0 1 .75-.23 3.994 3.994 0 0 1 3.6 6.75 3.188 3.188 0 0 1-.6.5 4.579 4.579 0 0 1-.69.37 4.053 4.053 0 0 1-.75.23A4.129 4.129 0 0 1 134.67 130.48z" class="color4a5870 svgShape"></path><path fill="#66ccff" d="M189.657 217.847L186.488 241.9a1.985 1.985 0 0 0 3.622 1.356l5.616-8.473C193.845 229.138 191.732 223.32 189.657 217.847zM77.622 322.249V229.384a3.008 3.008 0 1 0-6.016 0v90.943C75.316 321.66 77.622 322.249 77.622 322.249z" class="colorc0c0ce svgShape"></path><path fill="#66ccff" d="M71.606,254.023l-7.345,21.758a5.788,5.788,0,0,0,2.022,6.49l7.772,5.805Z" class="colorc0c0ce svgShape"></path></svg>