<svg id="Component_6_1" data-name="Component 6 – 1" xmlns="http://www.w3.org/2000/svg" xmlns:xlink="http://www.w3.org/1999/xlink" width="24.238" height="55" viewBox="0 0 24.238 55">
  <defs>
    <clipPath id="clip-path">
      <rect id="Rectangle_616" data-name="Rectangle 616" width="55" height="24.238" fill="#e4e5ea"/>
    </clipPath>
  </defs>
  <g id="Group_1651" data-name="Group 1651" transform="translate(0 55) rotate(-90)">
    <g id="Group_1650" data-name="Group 1650" transform="translate(0 0)" clip-path="url(#clip-path)">
      <path id="Path_1608" data-name="Path 1608" d="M21.015.151c0,.627,0,1.254,0,1.886a10.389,10.389,0,0,1,1.794-.18V0a11.439,11.439,0,0,0-1.789.151M35,11.188H34.1v1.857H35c.024-.306.034-.613.034-.929s-.01-.622-.034-.929" transform="translate(-10.795 0)" fill="#e4e5ea"/>
      <path id="Path_1610" data-name="Path 1610" d="M23.309,13.045H24.2A12.135,12.135,0,0,1,12.121,24.238h-.112a11.439,11.439,0,0,1-1.789-.151,12.118,12.118,0,0,1,0-23.936c0,.627,0,1.254,0,1.886A10.263,10.263,0,0,0,12.009,22.38h.112a10.261,10.261,0,0,0,0-20.523h-.112V0h.112A12.134,12.134,0,0,1,24.2,11.188h-.895Z" transform="translate(0 0)" fill="#e4e5ea"/>
      <path id="Path_1611" data-name="Path 1611" d="M63.3,11.188c-.024.306-.034.617-.034.929s.01.622.034.929H64.2V11.188ZM75.5,0V1.857a10.277,10.277,0,0,1,1.784.18c0-.632,0-1.259,0-1.891A11.94,11.94,0,0,0,75.5,0" transform="translate(-32.508 0)" fill="#e4e5ea"/>
      <path id="Path_1613" data-name="Path 1613" d="M87.543,12.116a12.134,12.134,0,0,1-10.215,11.97,11.439,11.439,0,0,1-1.789.151h-.112A12.139,12.139,0,0,1,63.34,13.045h.895V11.188H63.34A12.139,12.139,0,0,1,75.427,0h.112V1.857h-.112a10.261,10.261,0,1,0,0,20.523h.112A10.26,10.26,0,0,0,77.323,2.037c0-.632,0-1.259,0-1.891a12.135,12.135,0,0,1,10.22,11.97" transform="translate(-32.543 0)" fill="#e4e5ea"/>
      <rect id="Rectangle_615" data-name="Rectangle 615" width="8.381" height="1.858" transform="translate(23.311 11.188)" fill="#e4e5ea"/>
    </g>
  </g>
  <path id="Path_1614" data-name="Path 1614" d="M87.757,14.151A10.349,10.349,0,0,1,77.538,24.487h-.113a10.334,10.334,0,1,1,0-20.667h.113A10.355,10.355,0,0,1,87.757,14.151" transform="translate(-2.035 120.375) rotate(-90)" fill="#fbba39"/>
</svg>
