<svg xmlns="http://www.w3.org/2000/svg" width="34.057" height="38.933" viewBox="0 0 34.057 38.933">
  <path id="Courses" d="M16.97,34.307A1.774,1.774,0,1,1,15.2,36.081a1.774,1.774,0,0,1,1.771-1.774ZM12.418,24.2c2.306,2.591,7.529,2.135,9.458,0a18.018,18.018,0,0,1-1.337-1.805l-.266-.386a5.543,5.543,0,0,1-3.209.95,5.385,5.385,0,0,1-3.509-1.267,10.2,10.2,0,0,1-1.02,2.382.57.57,0,0,1-.117.114Zm-9.28,4.593a1.267,1.267,0,0,0-1.181,1.476l1.118,8.647H.224c0-4.618-1.638-10.281,3.2-12.986,1.8-1,6.436-1.343,8.457-2.67a17.13,17.13,0,0,0,.858-2.243c.022-.07-.016.044.019-.06a17.737,17.737,0,0,1-1.932-2.67L9.156,15.648a4.87,4.87,0,0,1-.95-2.423,1.9,1.9,0,0,1,.181-.877,1.606,1.606,0,0,1,.573-.665,2.084,2.084,0,0,1,.4-.206,42.363,42.363,0,0,1-.079-4.751,6.55,6.55,0,0,1,.206-1.08,7.037,7.037,0,0,1,4.624-4.491C15.152.8,14.749-.059,15.807-.005c2.49.136,6.335,1.739,7.8,3.44,2.065,2.382,1.533,5.315,1.463,8.235h0a1.213,1.213,0,0,1,.871.9,3.673,3.673,0,0,1-.459,2.277h0a.069.069,0,0,1-.029.054l-1.9,3.126a15.523,15.523,0,0,1-2.467,3.345l-.051.044.317.443c.317.485.7,1.036,1.052,1.466,2.065,1.267,6.6,1.628,8.381,2.616,4.434,2.477,2.924,8.593,3.167,12.986H31.131l1.118-8.647A1.267,1.267,0,0,0,31.068,28.8Zm7.184-16.537a1.663,1.663,0,0,0-.849.219.7.7,0,0,0-.241.279,1.023,1.023,0,0,0-.076.447,3.994,3.994,0,0,0,.8,1.932h0l1.666,2.651a14.28,14.28,0,0,0,2.239,2.939,4.577,4.577,0,0,0,3.218,1.3,4.713,4.713,0,0,0,3.383-1.343,14.773,14.773,0,0,0,2.306-3.145l1.875-3.091a3,3,0,0,0,.4-1.644c-.048-.187-.253-.279-.6-.3H24.2a2.533,2.533,0,0,0-.263,0,.554.554,0,0,1-.146,0,2.562,2.562,0,0,1-.513-.029l.633-2.851c-4.77.751-8.34-2.794-13.382-.709l.364,3.367A2.851,2.851,0,0,1,10.321,12.256Z" transform="translate(0.043 0.008)" fill="#fff" fill-rule="evenodd"/>
</svg>
