<svg width="24" height="24" viewBox="0 0 24 24" fill="none" xmlns="http://www.w3.org/2000/svg">
<rect opacity="0.25" x="8" y="4" width="12" height="16" fill="#0C7AF8"/>
<path d="M8 8L8.02523 4.01141H20V20H8V16" stroke="#0C7AF8" stroke-width="2" stroke-linejoin="round"/>
<line x1="13.9991" y1="3" x2="13.9991" y2="21" stroke="#0C7AF8"/>
<line x1="7.99965" y1="8.5" x2="19.9996" y2="8.5" stroke="#0C7AF8"/>
<line x1="7.99965" y1="11.9745" x2="19.9996" y2="11.9745" stroke="#0C7AF8"/>
<line x1="7.99965" y1="15.5" x2="19.9996" y2="15.5" stroke="#0C7AF8"/>
<rect x="1.99965" y="7" width="10" height="10" rx="1" fill="#0C7AF8"/>
<path d="M3.99965 15L6.17369 11.9915L4.18249 9H5.78482L6.87184 10.9123C6.9716 11.0934 7.04043 11.2288 7.07833 11.3184H7.09243C7.16399 11.1736 7.23904 11.0328 7.31757 10.896L8.47918 9H9.95007L7.90747 11.9748L9.99965 15H8.43597L7.18021 12.8993C7.12113 12.8099 7.07105 12.7159 7.03058 12.6186H7.01193C6.97529 12.7138 6.92661 12.805 6.86684 12.8903L5.57651 15H3.99965Z" fill="white"/>
</svg>
