<svg xmlns="http://www.w3.org/2000/svg" version="1.1" xmlns:xlink="http://www.w3.org/1999/xlink" xmlns:svgjs="http://svgjs.com/svgjs" width="45" height="51"><svg width="45" height="51" viewBox="0 0 45 51" fill="none" xmlns="http://www.w3.org/2000/svg">
<path d="M45 0C45 1.31003 44.4456 2.50603 43.5693 3.3606C42.693 4.21451 41.4665 4.75582 40.1238 4.75582H4.87668C2.1901 4.75582 0 2.62006 0 0H45Z" fill="#D3B57C"></path>
<path d="M3.74408 38.812C4.2989 38.755 4.88295 38.7261 5.43776 38.7261C6.51823 38.7261 7.59869 38.8402 8.62076 39.0682C12.8551 39.9791 16.3885 42.6562 18.4034 46.2442C19.2211 47.6964 19.776 49.2915 20.0388 51H25.2659C25.5288 49.2915 26.0836 47.6964 26.9013 46.2442C28.9162 42.6274 32.4495 39.951 36.6839 39.0682C37.706 38.8402 38.7571 38.7261 39.8672 38.7261C40.4512 38.7261 41.0056 38.755 41.5607 38.812V8.34058H3.74408V38.812ZM8.62076 13.0964H36.655V34.2266C32.0698 34.9671 28.0109 37.2457 25.0907 40.4916V34.0844C26.6385 33.6571 28.0109 32.8602 29.1206 31.8064C30.7851 30.1831 31.8071 27.9615 31.8071 25.4843C31.8071 23.0065 30.7851 20.7855 29.1206 19.1622C27.4561 17.5389 25.1784 16.5422 22.6377 16.5422C17.5858 16.5422 13.4975 20.5293 13.4975 25.4555C13.4975 27.9051 14.5196 30.1543 16.1841 31.7775C17.2938 32.8602 18.6663 33.6571 20.214 34.0562V40.4916C17.2938 37.2169 13.2347 34.9389 8.65 34.2266V13.0964H8.62076ZM22.6377 29.6418C20.2724 29.6418 18.3743 27.7623 18.3743 25.4843C18.3743 23.1775 20.3016 21.3268 22.6377 21.3268C25.0031 21.3268 26.9013 23.2063 26.9013 25.4843C26.9013 27.7623 24.9739 29.6418 22.6377 29.6418Z" fill="#D3B57C"></path>
</svg><style>@media (prefers-color-scheme: light) { :root { filter: none; } }
</style></svg>