<svg id="Layer_1" data-name="Layer 1" xmlns="http://www.w3.org/2000/svg" xmlns:xlink="http://www.w3.org/1999/xlink" viewBox="0 0 1453.41 1402.85"><defs><style>.cls-1{fill:#cbcacc;}.cls-2{fill:url(#linear-gradient);}.cls-3{fill:url(#linear-gradient-2);}.cls-4,.cls-7{fill:#fff;}.cls-4{opacity:0.1;}.cls-5{fill:url(#linear-gradient-3);}.cls-6{fill:url(#linear-gradient-4);}.cls-7{opacity:0.15;}</style><linearGradient id="linear-gradient" x1="5449.01" y1="3482.68" x2="5963.18" y2="3482.68" gradientTransform="translate(-2326.47 6763.89) rotate(-90)" gradientUnits="userSpaceOnUse"><stop offset="0" stop-color="#940014"/><stop offset="1" stop-color="#aa0017"/></linearGradient><linearGradient id="linear-gradient-2" x1="1156.22" y1="1314.88" x2="1156.22" y2="800.72" gradientUnits="userSpaceOnUse"><stop offset="0" stop-color="#ff0014"/><stop offset="1" stop-color="#aa0017"/></linearGradient><linearGradient id="linear-gradient-3" x1="6194.3" y1="2825.13" x2="6482.23" y2="2825.13" xlink:href="#linear-gradient"/><linearGradient id="linear-gradient-4" x1="498.67" y1="569.6" x2="498.67" y2="281.66" xlink:href="#linear-gradient-2"/></defs><g id="_3rd_Floor_30k_Cartoon" data-name="3rd Floor 30k Cartoon"><path id="BG_Color" data-name="BG Color" class="cls-1" d="M344.33,87.64H101.48V875.87H374.62v-77h83.27V935.5H594.16V798.9h47.26a119.27,119.27,0,0,0,231,0h73.64v70.36h41.76l223.32,475,210.07-107.87L1211.13,769.19V358.28l45.42-144.78-154.24-53.94-52,172.22L752.75,229.36l4.17-72.64H643.36L606,259.86l-145.8,98.42H344.33Z"/><g id="Executive_Office" data-name="Executive Office"><path class="cls-2" d="M956.6,856.45V800.72h214.74l79.25,166.12L1276.16,954s31.95,66.29,38.34,84.92-6.39,34-23,42.92l-16.61,9,80.95,153-135.49,71.15-218.1-458.05Z"/><path class="cls-3" d="M1169.58,803.5,1248.08,968l1.22,2.57,2.54-1.28,23-11.58c5.92,12.36,31.44,65.86,37,82.06a25.72,25.72,0,0,1-2.61,22.73c-3.94,6.41-10.54,12.23-19.08,16.83l-16.61,8.94-2.44,1.32,1.29,2.44,79.65,150.49-130.45,68.51L1004.76,855.64l-.75-1.58h-1.74l-42.88-.37V803.5h210.19m1.76-2.78H956.6v55.73l45.64.38,218.1,458.05,135.49-71.15-80.95-153,16.61-9c16.62-9,29.4-24.28,23-42.92S1276.16,954,1276.16,954l-25.57,12.86-79.25-166.12Z"/><path class="cls-4" d="M1171.34,800.72l79.25,166.12L1276.16,954s31.95,66.29,38.34,84.92-6.39,34-23,42.92l-16.61,9,80.95,153-135.49,71.15Z"/><path class="cls-4" d="M956.6,856.45V800.72h214.74l79.25,166.12L1276.16,954s31.95,66.29,38.34,84.92-6.39,34-23,42.92l-16.61,9L1002.24,856.83Z"/></g><g id="South_Conf_Rooms" data-name="South Conf Rooms"><path class="cls-5" d="M338.55,523.56s108-176.71,299-241.9l21.28,72.22s-174.6,61.39-268,215.72Z"/><path class="cls-6" d="M635.66,285.25l19.71,66.92c-10.07,3.81-49.51,19.57-97,49.33-50.14,31.39-119.73,85.16-168.2,163.81L342.18,523c5.86-9.14,32.23-48.79,76.34-94.15A643.93,643.93,0,0,1,511.9,349.2c39.79-27.69,81.42-49.19,123.76-63.95m1.84-3.59c-191,65.19-298.95,241.9-298.95,241.9l52.22,46c93.41-154.33,268-215.72,268-215.72L637.5,281.66Z"/><path class="cls-4" d="M637.5,281.66l21.28,72.22s-174.6,61.39-268,215.72C390.77,569.6,446.53,346.85,637.5,281.66Z"/><path class="cls-4" d="M338.55,523.56S421.84,435.7,474,403.42s184.81-49.54,184.81-49.54-174.6,61.39-268,215.72Z"/></g><g id="Unclickable_Rooms" data-name="Unclickable Rooms"><rect class="cls-7" x="-38.61" y="254.32" width="512.84" height="222.42" transform="translate(-147.72 583.33) rotate(-90)"/><rect class="cls-7" x="118.76" y="615.84" width="236.48" height="263.37" transform="translate(-510.53 984.53) rotate(-90)"/><path class="cls-7" d="M1109.14,508.76s-229.87,15.76-426.2-148.92L735.52,306S896,446.87,1109.14,438.88Z"/><rect class="cls-7" x="461.37" y="802.55" width="129.08" height="115.21" transform="translate(-334.25 1386.06) rotate(-90)"/><path class="cls-7" d="M662.07,387.75C515.33,434.5,404.76,598,404.76,598V781.54H667.43a90.44,90.44,0,0,0,180.86,0H1171V520.69C925.32,585.14,662.07,387.75,662.07,387.75Z"/><path class="cls-7" d="M658.78,171.71l-25.14,64.65L668.91,345.1h8.81l57.41-59.37s60.08,54.14,179.16,102,207.19,39.13,207.19,39.13v82.29l49.86-14.2L1171,374.48l46-154.28L1115.6,184.93,1063.12,353,733.56,239.3V171.71Z"/></g></g></svg>