<svg width="260" height="70" viewBox="0 0 260 70" fill="none" xmlns="http://www.w3.org/2000/svg">
    <path d="M104.157 1h-1.52v.582h1.52V1zM104.157 66.047h-1.52v1.164h1.52v-1.164zM104.157 63.676h-1.52v1.165h1.52v-1.165zM104.157 61.347h-1.52v1.165h1.52v-1.165zM104.157 59.018h-1.52v1.165h1.52v-1.165zM104.157 54.319h-1.52v1.164h1.52V54.32zM104.157 56.69h-1.52v1.164h1.52v-1.165zM104.157 47.29h-1.52v1.165h1.52V47.29zM104.157 40.261h-1.52v1.164h1.52v-1.164zM104.157 37.932h-1.52v1.165h1.52v-1.165zM104.157 33.274h-1.52v1.164h1.52v-1.164zM104.157 35.603h-1.52v1.164h1.52v-1.164zM104.157 51.99h-1.52v1.164h1.52V51.99zM104.157 42.632h-1.52v1.165h1.52v-1.165zM104.157 44.961h-1.52v1.165h1.52V44.96zM104.157 12.188h-1.52v1.164h1.52v-1.164zM104.157 49.66h-1.52v1.165h1.52V49.66zM104.157 21.546h-1.52v1.164h1.52v-1.164zM104.157 19.217h-1.52v1.164h1.52v-1.164zM104.157 30.903h-1.52v1.165h1.52v-1.165zM104.157 16.846h-1.52v1.165h1.52v-1.165zM104.157 26.245h-1.52v1.165h1.52v-1.165zM104.157 28.574h-1.52v1.165h1.52v-1.165zM104.157 23.875h-1.52v1.164h1.52v-1.164zM104.157 5.159h-1.52v1.165h1.52V5.159zM104.157 2.83h-1.52v1.165h1.52V2.83zM104.157 14.517h-1.52v1.164h1.52v-1.164zM104.157 7.488h-1.52v1.165h1.52V7.488zM104.157 9.859h-1.52v1.164h1.52V9.86zM104.157 68.418h-1.52V69h1.52v-.582zM113.122 13.602h-1.52v.582h1.52v-.582zM113.122 34.438h-1.52v1.207h1.52v-1.207zM113.122 41.55h-1.52v1.207h1.52V41.55zM113.122 43.921h-1.52v1.206h1.52v-1.206zM113.122 39.18h-1.52v1.206h1.52V39.18zM113.122 46.292h-1.52v1.206h1.52v-1.206zM113.122 48.662h-1.52v1.206h1.52v-1.206zM113.122 53.404h-1.52v1.206h1.52v-1.206zM113.122 51.033h-1.52v1.206h1.52v-1.206zM113.122 36.81h-1.52v1.205h1.52V36.81zM113.122 29.656h-1.52v1.206h1.52v-1.206zM113.122 27.285h-1.52v1.206h1.52v-1.206zM113.122 22.544h-1.52v1.206h1.52v-1.206zM113.122 20.173h-1.52v1.206h1.52v-1.206zM113.122 17.802h-1.52v1.206h1.52v-1.206zM113.122 32.026h-1.52v1.206h1.52v-1.206zM113.122 15.432h-1.52v1.206h1.52v-1.206zM113.122 24.914h-1.52v1.206h1.52v-1.206zM113.122 55.816h-1.52v.582h1.52v-.582zM157.782 13.602h-1.52v.582h1.52v-.582zM157.782 17.802h-1.52v1.206h1.52v-1.206zM157.782 15.432h-1.52v1.206h1.52v-1.206zM157.782 53.404h-1.52v1.206h1.52v-1.206zM157.782 20.173h-1.52v1.206h1.52v-1.206zM157.782 29.656h-1.52v1.206h1.52v-1.206zM157.782 43.921h-1.52v1.206h1.52v-1.206zM157.782 36.81h-1.52v1.205h1.52V36.81zM157.782 41.55h-1.52v1.207h1.52V41.55zM157.782 22.544h-1.52v1.206h1.52v-1.206zM157.782 48.662h-1.52v1.206h1.52v-1.206zM157.782 46.292h-1.52v1.206h1.52v-1.206zM157.782 27.285h-1.52v1.206h1.52v-1.206zM157.782 34.438h-1.52v1.207h1.52v-1.207zM157.782 24.914h-1.52v1.206h1.52v-1.206zM157.782 51.033h-1.52v1.206h1.52v-1.206zM157.782 32.026h-1.52v1.206h1.52v-1.206zM157.782 39.18h-1.52v1.206h1.52V39.18zM157.782 55.816h-1.52v.582h1.52v-.582zM184.622 13.602h-1.52v.582h1.52v-.582zM184.622 24.914h-1.52v1.206h1.52v-1.206zM184.622 53.404h-1.52v1.206h1.52v-1.206zM184.622 22.544h-1.52v1.206h1.52v-1.206zM184.622 27.285h-1.52v1.206h1.52v-1.206zM184.622 20.173h-1.52v1.206h1.52v-1.206zM184.622 51.033h-1.52v1.206h1.52v-1.206zM184.622 15.432h-1.52v1.206h1.52v-1.206zM184.622 17.802h-1.52v1.206h1.52v-1.206zM184.622 36.81h-1.52v1.205h1.52V36.81zM184.622 39.18h-1.52v1.206h1.52V39.18zM184.622 34.438h-1.52v1.207h1.52v-1.207zM184.622 29.656h-1.52v1.206h1.52v-1.206zM184.622 41.55h-1.52v1.207h1.52V41.55zM184.622 48.662h-1.52v1.206h1.52v-1.206zM184.622 46.292h-1.52v1.206h1.52v-1.206zM184.622 43.921h-1.52v1.206h1.52v-1.206zM184.622 32.026h-1.52v1.206h1.52v-1.206zM184.622 55.816h-1.52v.582h1.52v-.582zM86.282 9.36h-1.52v.582h1.52V9.36zM86.282 46.042h-1.52v1.165h1.52v-1.165zM86.282 43.755h-1.52v1.164h1.52v-1.164zM86.282 41.426h-1.52v1.164h1.52v-1.164zM86.282 39.097h-1.52v1.164h1.52v-1.164zM86.282 48.371h-1.52v1.165h1.52V48.37zM86.282 50.7h-1.52v1.165h1.52V50.7zM86.282 57.687h-1.52v1.165h1.52v-1.165zM86.282 55.358h-1.52v1.165h1.52v-1.165zM86.282 36.768h-1.52v1.164h1.52v-1.164zM86.282 53.03h-1.52v1.164h1.52v-1.165zM86.282 15.806h-1.52v1.165h1.52v-1.165zM86.282 22.793h-1.52v1.165h1.52v-1.165zM86.282 34.438h-1.52v1.165h1.52v-1.165zM86.282 25.122h-1.52v1.165h1.52v-1.165zM86.282 18.135h-1.52V19.3h1.52v-1.165zM86.282 20.464h-1.52v1.165h1.52v-1.165zM86.282 13.477h-1.52v1.165h1.52v-1.165zM86.282 32.11h-1.52v1.164h1.52v-1.165zM86.282 29.78h-1.52v1.165h1.52V29.78zM86.282 27.451h-1.52v1.165h1.52V27.45zM86.282 11.19h-1.52v1.164h1.52V11.19zM86.282 60.058h-1.52v.582h1.52v-.582zM166.747 4.286h-1.52v.582h1.52v-.582zM166.747 53.32h-1.52v1.165h1.52V53.32zM166.747 55.691h-1.52v1.165h1.52V55.69zM166.747 50.95h-1.52v1.164h1.52V50.95zM166.747 48.58h-1.52v1.164h1.52v-1.165zM166.747 46.209h-1.52v1.164h1.52V46.21zM166.747 10.815h-1.52v1.165h1.52v-1.165zM166.747 62.761h-1.52v1.165h1.52V62.76zM166.747 6.074h-1.52v1.165h1.52V6.074zM166.747 60.391h-1.52v1.165h1.52V60.39zM166.747 13.186h-1.52v1.165h1.52v-1.165zM166.747 43.88h-1.52v1.164h1.52V43.88zM166.747 8.445h-1.52v1.164h1.52V8.445zM166.747 41.509h-1.52v1.164h1.52V41.51zM166.747 22.627h-1.52v1.165h1.52v-1.165zM166.747 24.998h-1.52v1.164h1.52v-1.164zM166.747 27.327h-1.52v1.164h1.52v-1.164zM166.747 20.256h-1.52v1.165h1.52v-1.165zM166.747 29.697h-1.52v1.165h1.52v-1.165zM166.747 58.02h-1.52v1.165h1.52V58.02zM166.747 36.768h-1.52v1.164h1.52v-1.164zM166.747 32.068h-1.52v1.165h1.52v-1.165zM166.747 34.438h-1.52v1.165h1.52v-1.165zM166.747 39.138h-1.52v1.165h1.52v-1.165zM166.747 17.886h-1.52v1.164h1.52v-1.164zM166.747 15.515h-1.52v1.164h1.52v-1.164zM166.747 65.174h-1.52v.582h1.52v-.582zM95.247 21.629h-1.52v.582h1.52v-.582zM95.247 40.47h-1.52v1.205h1.52V40.47zM95.247 45.335h-1.52v1.206h1.52v-1.206zM95.247 42.881h-1.52v1.206h1.52v-1.206zM95.247 38.057h-1.52v1.206h1.52v-1.206zM95.247 33.19h-1.52v1.207h1.52V33.19zM95.247 23.5h-1.52v1.206h1.52V23.5zM95.247 25.912h-1.52v1.207h1.52v-1.207zM95.247 35.603h-1.52v1.206h1.52v-1.206zM95.247 28.325h-1.52v1.206h1.52v-1.206zM95.247 30.779h-1.52v1.206h1.52v-1.206zM95.247 47.789h-1.52v.582h1.52v-.582zM148.872 21.629h-1.52v.582h1.52v-.582zM148.872 42.881h-1.52v1.206h1.52v-1.206zM148.872 45.335h-1.52v1.206h1.52v-1.206zM148.872 35.603h-1.52v1.206h1.52v-1.206zM148.872 40.47h-1.52v1.205h1.52V40.47zM148.872 38.057h-1.52v1.206h1.52v-1.206zM148.872 33.19h-1.52v1.207h1.52V33.19zM148.872 25.912h-1.52v1.207h1.52v-1.207zM148.872 30.779h-1.52v1.206h1.52v-1.206zM148.872 28.325h-1.52v1.206h1.52v-1.206zM148.872 23.5h-1.52v1.206h1.52V23.5zM148.872 47.789h-1.52v.582h1.52v-.582zM130.997 29.78h-1.52v.582h1.52v-.582zM130.997 34.355h-1.52v1.331h1.52v-1.33zM130.997 31.735h-1.52v1.33h1.52v-1.33zM130.997 36.975h-1.52v1.331h1.52v-1.33zM130.997 39.637h-1.52v.582h1.52v-.582zM139.907 33.108h-1.52v.582h1.52v-.582zM139.907 34.563h-1.52v.874h1.52v-.874zM139.907 36.352h-1.52v.582h1.52v-.582zM122.032 26.952h-1.52v.582h1.52v-.582zM122.032 33.316h-1.52v1.122h1.52v-1.122zM122.032 31.028h-1.52v1.123h1.52v-1.123zM122.032 35.562h-1.52v1.122h1.52v-1.122zM122.032 28.74h-1.52v1.124h1.52V28.74zM122.032 37.849h-1.52v1.123h1.52v-1.123zM122.032 40.136h-1.52v1.123h1.52v-1.123zM122.032 42.465h-1.52v.583h1.52v-.583zM193.532 26.952h-1.52v.582h1.52v-.582zM193.532 31.028h-1.52v1.123h1.52v-1.123zM193.532 40.136h-1.52v1.123h1.52v-1.123zM193.532 28.74h-1.52v1.124h1.52V28.74zM193.532 37.849h-1.52v1.123h1.52v-1.123zM193.532 33.316h-1.52v1.122h1.52v-1.122zM193.532 35.562h-1.52v1.122h1.52v-1.122zM193.532 42.465h-1.52v.583h1.52v-.583zM77.372 26.952h-1.52v.582h1.52v-.582zM77.372 35.562h-1.52v1.122h1.52v-1.122zM77.372 37.849h-1.52v1.123h1.52v-1.123zM77.372 40.136h-1.52v1.123h1.52v-1.123zM77.372 33.316h-1.52v1.122h1.52v-1.122zM77.372 28.74h-1.52v1.124h1.52V28.74zM77.372 31.028h-1.52v1.123h1.52v-1.123zM77.372 42.465h-1.52v.583h1.52v-.583zM68.407 24.956h-1.52v.582h1.52v-.582zM68.407 34.397h-1.52v1.248h1.52v-1.248zM68.407 31.901h-1.52v1.248h1.52v-1.248zM68.407 36.892h-1.52v1.248h1.52v-1.248zM68.407 41.883h-1.52v1.248h1.52v-1.248zM68.407 39.388h-1.52v1.248h1.52v-1.248zM68.407 29.364h-1.52v1.248h1.52v-1.248zM68.407 26.87h-1.52v1.247h1.52v-1.248zM68.407 44.462h-1.52v.582h1.52v-.582zM175.657 23.5h-1.52v.582h1.52V23.5zM175.657 43.589h-1.52v1.164h1.52v-1.164zM175.657 32.15h-1.52v1.166h1.52V32.15zM175.657 27.576h-1.52v1.165h1.52v-1.165zM175.657 29.864h-1.52v1.164h1.52v-1.164zM175.657 25.289h-1.52v1.164h1.52V25.29zM175.657 34.438h-1.52v1.165h1.52v-1.165zM175.657 41.3h-1.52v1.165h1.52v-1.164zM175.657 39.013h-1.52v1.165h1.52v-1.165zM175.657 36.726h-1.52v1.165h1.52v-1.165zM175.657 45.96h-1.52v.581h1.52v-.582zM59.444 32.234h-1.52v.582h1.52v-.582zM58.03 34.647h-.682v.706h.681v.375h1.468v-1.414H58.03v.333zM59.444 37.184h-1.52v.582h1.52v-.582zM202.497 32.234h-1.52v.582h1.52v-.582zM202.445 34.314h-1.468v1.414h1.468v-.375h.157v-.706h-.157v-.333zM202.497 37.184h-1.52v.582h1.52v-.582zM.891 35.021H0h.891zM2.516 35.021h.89v-.042h-.89v.042zM4.98 35.062h.892v-.083H4.98v.083zM7.496 35.062h.891v-.083h-.89v.083zM10.014 35.062h.89v-.124h-.89v.124zM12.477 35.103h.89v-.165h-.89v.165zM14.992 35.103h.891v-.207l-.89.041v.166zM17.455 35.103h.944v-.207h-.944v.207zM19.97 35.145h.892v-.25h-.891v.25zM22.488 35.144h.892v-.29h-.892v.29zM24.951 35.145l.891.042v-.333h-.89v.291zM27.467 35.187h.891v-.333h-.891v.333zM29.984 35.187h.892v-.374h-.892v.374zM32.447 35.229h.892v-.416h-.892v.416zM34.963 35.229h.891v-.416h-.891v.416zM37.48 35.229h.892v-.458h-.892v.458zM39.943 35.27h.892v-.499h-.892v.5zM42.459 35.27h.891v-.54l-.891.041v.5zM44.924 35.27h.944v-.54h-.944v.54zM47.44 35.312h.89v-.582h-.89v.582zM49.955 35.312h.891v-.624h-.89v.624zM52.42 35.312l.891.041v-.665h-.891v.624zM54.935 35.353h.892v-.665h-.892v.665zM204.121 35.353h.944v-.665h-.944v.665zM206.637 35.353h.891v-.665h-.891v.665zM209.152 35.312h.892v-.624h-.892v.624zM211.617 35.312h.944v-.582h-.944v.582zM214.133 35.312l.891-.041v-.541h-.891v.582zM216.648 35.27h.892v-.499l-.892-.041v.54zM219.113 35.27h.892v-.499h-.892v.5zM221.629 35.229h.891v-.458h-.891v.458zM224.145 35.229h.891v-.416l-.891-.042v.458zM226.609 35.229h.892v-.416h-.892v.416zM229.125 35.187h.891v-.374h-.891v.374zM231.588 35.187h.944v-.333h-.944v.333zM234.105 35.187l.892-.042v-.29h-.892v.332zM236.621 35.144h.891v-.29h-.891v.29zM239.084 35.145h.944v-.25h-.944v.25zM241.602 35.145l.891-.042v-.207h-.891v.248zM244.117 35.103h.891v-.166l-.891-.041v.207zM246.58 35.103h.891v-.165h-.891v.165zM249.098 35.062h.891v-.124h-.891v.124zM251.613 35.062h.892v-.083h-.892v.083zM254.076 35.062h.891v-.083h-.891v.083zM256.594 35.021h.891v-.042h-.891v.042zM259.057 35.02H260h-.943z" fill="#4DFFFF" stroke="#4DFFFF" stroke-width=".605"/>
</svg>
