<svg width="10" height="10" viewBox="0 0 10 10" fill="none" xmlns="http://www.w3.org/2000/svg">
<path fill-rule="evenodd" clip-rule="evenodd" d="M5 10C2.23858 10 0 7.76142 0 5C0 2.23858 2.23858 0 5 0C7.76142 0 10 2.23858 10 5C10 7.76142 7.76142 10 5 10ZM4.68519 2.6304C4.85905 2.45653 5.14094 2.45653 5.3148 2.6304L7.36959 4.68519C7.54345 4.85905 7.54345 5.14094 7.36959 5.3148C7.19572 5.48866 6.91384 5.48866 6.73997 5.3148L5.44689 4.02171V7.05487C5.44689 7.30074 5.24756 7.50007 5.00168 7.50007C4.7558 7.50007 4.55648 7.30074 4.55648 7.05487V4.01833L3.26001 5.3148C3.08615 5.48866 2.80426 5.48866 2.6304 5.3148C2.45653 5.14094 2.45653 4.85905 2.6304 4.68519L4.68519 2.6304Z" fill="#40B584"/>
</svg>
