<svg width="66" height="65" viewBox="0 0 66 65" fill="none" xmlns="http://www.w3.org/2000/svg">
<circle cx="33" cy="32.5" r="32.5" fill="#E5E7EB"/>
<path d="M20 39.5V24.5C20 23.7044 20.3161 22.9413 20.8787 22.3787C21.4413 21.8161 22.2044 21.5 23 21.5H32L35 24.5H44C44.7956 24.5 45.5587 24.8161 46.1213 25.3787C46.6839 25.9413 47 26.7044 47 27.5V39.5C47 40.2956 46.6839 41.0587 46.1213 41.6213C45.5587 42.1839 44.7956 42.5 44 42.5H23C22.2044 42.5 21.4413 42.1839 20.8787 41.6213C20.3161 41.0587 20 40.2956 20 39.5Z" stroke="#4B5563" stroke-width="2" stroke-linecap="round" stroke-linejoin="round"/>
</svg>
