<svg width="185" height="137" viewBox="0 0 185 137" fill="none" xmlns="http://www.w3.org/2000/svg">
<path fill-rule="evenodd" clip-rule="evenodd" d="M58.7628 120.154C75.7891 126.911 99.4896 107.908 111.699 77.7089C123.909 47.5098 120.004 17.5507 102.978 10.7935C94.5683 7.4561 84.5309 10.4027 75.0539 17.8786C82.3665 13.2325 89.8123 11.6941 96.1977 14.2282C111.482 20.2941 114.903 47.3975 103.838 74.7654C92.7729 102.133 71.4126 119.402 56.1282 113.336C50.1418 110.96 45.9753 105.357 43.7863 97.775C45.6999 108.747 50.7943 116.992 58.7628 120.154Z" fill="#2D87FF"/>
<path fill-rule="evenodd" clip-rule="evenodd" d="M124.264 82.97C110.181 118.129 80.45 139.294 57.8585 130.245C45.7508 125.395 38.1511 112.851 35.873 96.8399C37.4449 97.5729 39.1256 97.9754 40.8659 98.0726C42.9963 110.392 48.8023 119.755 57.8673 123.386C76.6147 130.896 102.202 111.047 115.018 79.0525C127.834 47.0581 123.025 15.0339 104.278 7.52422C86.2569 0.305611 61.9161 18.3661 48.6736 48.1937C46.3564 48.9677 44.0388 50.1906 41.8231 51.8098C42.0283 51.2729 42.2384 50.7359 42.4534 50.1992C56.5369 15.0405 86.2678 -6.12527 108.859 2.92414C131.451 11.9736 138.348 47.8113 124.264 82.97Z" fill="#76E8FF"/>
<path fill-rule="evenodd" clip-rule="evenodd" d="M68.0748 135.243C90.339 135.709 115.066 115.44 127.468 84.4811C142.106 47.9367 134.036 10.3123 109.45 0.351069C111.361 0.75609 113.244 1.32468 115.088 2.06336C140.114 12.0881 148.613 49.6442 134.071 85.9473C120.603 119.57 92.0936 140.326 68.0748 135.243Z" fill="#F2CC0E"/>
<mask id="mask0_7_65" style="mask-type:alpha" maskUnits="userSpaceOnUse" x="0" y="37" width="185" height="54">
<path fill-rule="evenodd" clip-rule="evenodd" d="M117.449 40.6547C107.663 38.984 97.6832 37.8391 88.2285 37.6583C79.1145 37.484 69.7693 43.2291 53.7531 53.0752C52.1474 54.0623 50.4747 55.0906 48.7285 56.1583C30.3497 55.7028 9.72845 61.1583 0.728455 70.6583V74.6583C6.66478 72.2973 10.4555 71.4862 18.2285 71.1583L12.2285 82.6583L0.728455 84.1583V90.1583H26.3037C24.6718 87.5482 23.7285 84.4633 23.7285 81.1581C23.7285 71.7693 31.3397 64.1581 40.7285 64.1581C50.1174 64.1581 57.7285 71.7693 57.7285 81.1581C57.7285 84.4633 56.7853 87.5482 55.1533 90.1583H55.2285H104.162L112.998 57.2374C98.963 57.466 84.8517 57.3824 77.2286 57.1582C79.2286 52.1582 73.2286 51.1582 68.7286 57.6582L58.2286 58.6582C75.2052 47.3256 83.2527 42.8514 90.7286 43.6582C100.236 43.8961 108.603 44.7263 116.048 45.8759L117.449 40.6547ZM137.091 54.2701C138.136 54.4245 139.19 54.6005 140.233 54.7747C145.166 55.5985 149.858 56.3821 152.229 54.6582C150.808 54.2525 149.343 53.8234 147.826 53.379L147.822 53.3779L147.82 53.3773L147.819 53.3772C144.795 52.4916 141.564 51.5456 138.076 50.6037L139.505 45.2793C162.657 50.9617 180.904 57.8632 182.228 58.6583L183.228 63.1583H170.728C173.654 68.9995 176.952 69.9406 184.228 69.6583C185.228 77.6583 182.228 80.1583 182.228 80.1583C179.228 82.1583 176.868 85.2591 176.228 90.1583H169.153C170.785 87.5482 171.729 84.4633 171.729 81.1581C171.729 71.7693 164.117 64.1581 154.729 64.1581C145.34 64.1581 137.729 71.7693 137.729 81.1581C137.729 84.4633 138.672 87.5482 140.304 90.1583H139.728H127.458L137.091 54.2701Z" fill="black"/>
</mask>
<g mask="url(#mask0_7_65)">
<rect x="0.628479" y="37.5544" width="122" height="58" fill="#2D87FF"/>
<rect x="122.628" y="41.5544" width="62" height="54" fill="#F2CC0E"/>
</g>
<circle cx="40.6285" cy="81.5544" r="14" fill="#2D87FF"/>
<circle cx="154.629" cy="81.5544" r="14" fill="#F2CC0E"/>
</svg>
