<svg width="80" height="22" viewBox="0 0 80 22" fill="none" xmlns="http://www.w3.org/2000/svg">
<path d="M13.5417 1.03484C12.539 0.345504 11.2305 0 9.61629 0H3.3669C2.87204 0 2.59865 0.247486 2.54672 0.741865L0.0079687 16.6775C-0.0184156 16.834 0.0207429 16.9772 0.125086 17.1073C0.228833 17.2378 0.359322 17.3026 0.515599 17.3026H3.48402C4.00466 17.3026 4.29083 17.0557 4.34336 16.5605L5.0463 12.2644C5.07197 12.0562 5.16354 11.8869 5.31982 11.7566C5.47598 11.6264 5.67129 11.5412 5.90565 11.5023C6.14 11.4636 6.36099 11.4441 6.56967 11.4441C6.77776 11.4441 7.02501 11.4573 7.3119 11.4832C7.59806 11.5092 7.78049 11.5218 7.85868 11.5218C10.0979 11.5218 11.8555 10.8909 13.1316 9.62766C14.4071 8.36491 15.0456 6.61387 15.0456 4.37419C15.0456 2.83793 14.544 1.72477 13.5417 1.03436V1.03484ZM10.3195 5.81984C10.1889 6.73135 9.85076 7.32995 9.30397 7.61648C8.75707 7.90337 7.97592 8.04591 6.96054 8.04591L5.67153 8.08507L6.33568 3.90572C6.38749 3.61955 6.55666 3.47629 6.84331 3.47629H7.58565C8.6267 3.47629 9.38229 3.62636 9.851 3.9253C10.3195 4.22496 10.4757 4.85675 10.3195 5.81984Z" fill="white"/>
<path d="M79.4916 0H76.6015C76.3144 0 76.1453 0.143265 76.0938 0.429673L73.5548 16.6781L73.5156 16.7562C73.5156 16.8871 73.5678 17.0101 73.6721 17.1274C73.7758 17.2443 73.9065 17.303 74.0626 17.303H76.6408C77.1348 17.303 77.4083 17.0561 77.4611 16.561L79.9998 0.585948V0.547148C79.9996 0.182662 79.8298 0.000358873 79.4916 0.000358873V0Z" fill="white"/>
<path d="M44.5726 6.28898C44.5726 6.15908 44.5203 6.03516 44.4167 5.91816C44.3122 5.80104 44.195 5.74219 44.0651 5.74219H41.0576C40.7706 5.74219 40.5364 5.87303 40.3544 6.1327L36.2143 12.2262L34.4958 6.36729C34.365 5.95088 34.0788 5.74219 33.6365 5.74219H30.7067C30.5762 5.74219 30.459 5.80093 30.3555 5.91816C30.251 6.03516 30.1992 6.1592 30.1992 6.28898C30.1992 6.34151 30.4532 7.10928 30.9608 8.59349C31.4684 10.0779 32.0153 11.6794 32.6013 13.3981C33.1872 15.1165 33.4928 16.0283 33.5191 16.1318C31.3838 19.0484 30.3165 20.6109 30.3165 20.8189C30.3165 21.1577 30.4856 21.3267 30.8242 21.3267H33.8317C34.1181 21.3267 34.3523 21.1969 34.5348 20.9362L44.4949 6.56213C44.5466 6.51044 44.5726 6.4197 44.5726 6.28886V6.28898Z" fill="white"/>
<path d="M72.5767 5.74226H69.6081C69.2433 5.74226 69.0227 6.17193 68.9445 7.03128C68.2667 5.99023 67.0306 5.46875 65.2336 5.46875C63.3587 5.46875 61.7636 6.17193 60.4489 7.57807C59.1338 8.98432 58.4766 10.6381 58.4766 12.5387C58.4766 14.0753 58.9256 15.299 59.8238 16.21C60.7221 17.122 61.9263 17.5771 63.4372 17.5771C64.1921 17.5771 64.9602 17.4206 65.7413 17.1084C66.5226 16.796 67.134 16.3796 67.5774 15.8586C67.5774 15.8847 67.5509 16.0016 67.4993 16.2098C67.4468 16.4185 67.4211 16.5751 67.4211 16.6785C67.4211 17.0957 67.5899 17.3034 67.929 17.3034H70.6242C71.1183 17.3034 71.4051 17.0565 71.483 16.5613L73.0845 6.36701C73.1102 6.21074 73.0713 6.06771 72.9674 5.93734C72.8628 5.80757 72.733 5.74226 72.5767 5.74226ZM67.4796 13.4369C66.8156 14.088 66.0148 14.4134 65.0775 14.4134C64.3221 14.4134 63.7107 14.2054 63.2417 13.7885C62.7728 13.3727 62.5384 12.7998 62.5384 12.0699C62.5384 11.1071 62.864 10.2929 63.5151 9.62888C64.1653 8.96486 64.9733 8.63284 65.9368 8.63284C66.6653 8.63284 67.2708 8.84774 67.7529 9.27717C68.2342 9.70684 68.4758 10.2995 68.4758 11.0546C68.4756 11.9919 68.1435 12.7863 67.4796 13.4369Z" fill="white"/>
<path d="M28.2097 5.74226H25.2413C24.8762 5.74226 24.6554 6.17193 24.5772 7.03128C23.8741 5.99023 22.6371 5.46875 20.8665 5.46875C18.9917 5.46875 17.3966 6.17193 16.0818 7.57807C14.7666 8.98432 14.1094 10.6381 14.1094 12.5387C14.1094 14.0753 14.5586 15.299 15.457 16.21C16.3554 17.122 17.5594 17.5771 19.0699 17.5771C19.7986 17.5771 20.5542 17.4206 21.3352 17.1084C22.1164 16.796 22.7414 16.3796 23.2101 15.8586C23.1056 16.1709 23.0538 16.4444 23.0538 16.6785C23.0538 17.0957 23.223 17.3034 23.5615 17.3034H26.2566C26.7509 17.3034 27.0377 17.0565 27.1159 16.5613L28.7172 6.36701C28.7429 6.21074 28.7039 6.06771 28.6001 5.93734C28.4959 5.80757 28.3659 5.74226 28.2097 5.74226ZM23.1125 13.4563C22.4484 14.0951 21.6343 14.4134 20.6714 14.4134C19.9158 14.4134 19.3104 14.2054 18.8551 13.7885C18.3992 13.3727 18.1715 12.7998 18.1715 12.0699C18.1715 11.1071 18.4968 10.2929 19.1481 9.62888C19.7986 8.96486 20.6059 8.63284 21.5697 8.63284C22.2984 8.63284 22.9038 8.84774 23.386 9.27729C23.8674 9.70696 24.1086 10.2996 24.1086 11.0547C24.1086 12.018 23.7766 12.819 23.1125 13.4563Z" fill="white"/>
<path d="M57.9129 1.03484C56.9103 0.345504 55.6021 0 53.9876 0H47.7772C47.2562 0 46.9695 0.247486 46.9179 0.741865L44.3791 16.6775C44.3527 16.8342 44.3917 16.9773 44.4962 17.1074C44.5995 17.2378 44.7304 17.3026 44.8867 17.3026H48.0894C48.4018 17.3026 48.61 17.1336 48.7143 16.795L49.4175 12.2644C49.4433 12.0562 49.5345 11.8869 49.6909 11.7566C49.8472 11.6264 50.0423 11.5413 50.2769 11.5023C50.5111 11.4636 50.732 11.4441 50.9409 11.4441C51.149 11.4441 51.3962 11.4573 51.6828 11.4832C51.9692 11.5092 52.1521 11.5218 52.2296 11.5218C54.4692 11.5218 56.2265 10.8909 57.5026 9.62766C58.7786 8.36491 59.4165 6.61387 59.4165 4.37419C59.4167 2.83805 58.9152 1.72489 57.9129 1.03448V1.03484ZM53.9094 7.4602C53.3365 7.85072 52.4772 8.04591 51.3316 8.04591L50.0817 8.08507L50.7457 3.90572C50.7973 3.61955 50.9664 3.47629 51.2533 3.47629H51.9562C52.529 3.47629 52.9845 3.50231 53.3236 3.55425C53.6616 3.60678 53.9876 3.76902 54.3001 4.04242C54.6126 4.31593 54.7688 4.71313 54.7688 5.23389C54.7688 6.32747 54.482 7.06945 53.9094 7.4602Z" fill="white"/>
</svg>
