<svg width="24" height="24" viewBox="0 0 24 24" fill="none" xmlns="http://www.w3.org/2000/svg">
<rect width="24" height="24" rx="12" fill="#B53317"/>
<path d="M15.0641 14.3569L12.7071 11.9999L15.0641 9.64285C15.1231 9.58392 15.1231 9.46607 15.0641 9.40715L14.5927 8.93574C14.5191 8.86209 14.4159 8.87682 14.357 8.93574L12 11.2928L9.64298 8.93574C9.56932 8.86209 9.4662 8.87682 9.40728 8.93574L8.93587 9.40715C8.86221 9.4808 8.86221 9.56919 8.93587 9.64285L11.2929 11.9999L8.93587 14.3569C8.86221 14.4306 8.86221 14.5189 8.93587 14.5926L9.40728 15.064C9.4662 15.1229 9.56932 15.1377 9.64298 15.064L12 12.707L14.357 15.064C14.4159 15.1229 14.5191 15.1377 14.5927 15.064L15.0641 14.5926C15.1231 14.5337 15.1231 14.4158 15.0641 14.3569Z" fill="white"/>
</svg>
