<svg width="32" height="32" viewBox="0 0 32 32" fill="none" xmlns="http://www.w3.org/2000/svg">
<path d="M14.5303 7.53033C14.8232 7.23744 14.8232 6.76256 14.5303 6.46967C14.2374 6.17678 13.7626 6.17678 13.4697 6.46967L4.46967 15.4697C4.32322 15.6161 4.25 15.8081 4.25 16C4.25 16.1017 4.27024 16.1987 4.30691 16.2871C4.34351 16.3755 4.39776 16.4584 4.46967 16.5303L13.4697 25.5303C13.7626 25.8232 14.2374 25.8232 14.5303 25.5303C14.8232 25.2374 14.8232 24.7626 14.5303 24.4697L6.81066 16.75H27C27.4142 16.75 27.75 16.4142 27.75 16C27.75 15.5858 27.4142 15.25 27 15.25H6.81066L14.5303 7.53033Z" fill="black"/>
</svg>
