<svg width="36" height="36" viewBox="0 0 36 36" fill="none" xmlns="http://www.w3.org/2000/svg">
<path d="M4.01952 35.7096C2.97883 35.7096 2.09424 35.3451 1.36576 34.6159C0.637282 33.8867 0.273041 33.0013 0.273041 31.9596V4.04297C0.273041 3.0013 0.637282 2.11589 1.36576 1.38672C2.09424 0.657552 2.97883 0.292969 4.01952 0.292969H31.9099C32.9506 0.292969 33.8352 0.657552 34.5637 1.38672C35.2922 2.11589 35.6564 3.0013 35.6564 4.04297V31.9596C35.6564 33.0013 35.2922 33.8867 34.5637 34.6159C33.8352 35.3451 32.9506 35.7096 31.9099 35.7096H4.01952ZM4.01952 32.5846H31.9099C32.0487 32.5846 32.1875 32.5152 32.3262 32.3763C32.465 32.2374 32.5344 32.0985 32.5344 31.9596V4.04297C32.5344 3.90408 32.465 3.76519 32.3262 3.6263C32.1875 3.48741 32.0487 3.41797 31.9099 3.41797H4.01952C3.88076 3.41797 3.742 3.48741 3.60324 3.6263C3.46448 3.76519 3.3951 3.90408 3.3951 4.04297V31.9596C3.3951 32.0985 3.46448 32.2374 3.60324 32.3763C3.742 32.5152 3.88076 32.5846 4.01952 32.5846ZM7.03751 27.8971H29.0481L22.2316 18.7826L16.3517 26.3867L12.1889 21.0221L7.03751 27.8971Z" fill="#1C1B1F"/>
</svg>
