<svg xmlns="http://www.w3.org/2000/svg" width="38" height="38" viewBox="0 0 38 38">
  <g id="Group_11646" data-name="Group 11646" transform="translate(-209 -137)">
    <path id="Path_69253" data-name="Path 69253" d="M19,0A19,19,0,1,1,0,19,19,19,0,0,1,19,0Z" transform="translate(209 137)" fill="#e0e0e0"/>
    <path id="Path_25711" data-name="Path 25711" d="M15.986,2.251H17.6A3.9,3.9,0,0,1,21.49,6.138v8.746A3.9,3.9,0,0,1,17.6,18.771H3.877A3.9,3.9,0,0,1-.01,14.884V6.138A3.9,3.9,0,0,1,3.877,2.251H5.494A3.044,3.044,0,0,1,6.313.968,3.375,3.375,0,0,1,8.458,0h4.564a3.375,3.375,0,0,1,2.145.968,3.047,3.047,0,0,1,.819,1.283ZM10.74,5.773A4.738,4.738,0,1,1,7.39,7.161,4.723,4.723,0,0,1,10.74,5.773Zm2.319,2.418a3.281,3.281,0,1,0,.96,2.319A3.27,3.27,0,0,0,13.059,8.191ZM17.6,3.708H15.368a.729.729,0,0,1-.729-.729,1.385,1.385,0,0,0-.48-.964,1.851,1.851,0,0,0-1.137-.558H8.458a1.851,1.851,0,0,0-1.137.558,1.385,1.385,0,0,0-.48.964.729.729,0,0,1-.729.729H3.877A2.438,2.438,0,0,0,1.448,6.138v8.746a2.438,2.438,0,0,0,2.429,2.429H17.6a2.438,2.438,0,0,0,2.429-2.429V6.138A2.438,2.438,0,0,0,17.6,3.708Z" transform="translate(217.26 146.615)" fill="#207854"/>
  </g>
</svg>
