<svg width="250" height="250" viewBox="0 0 250 250" fill="none" xmlns="http://www.w3.org/2000/svg">
<path d="M113.97 0H136.028C198.973 0 250 51.4342 250 114.882V135.116C250 198.564 198.973 249.998 136.028 249.998H0V114.882C0 51.4342 51.0264 0 113.97 0Z" fill="url(#paint0_linear_540_122)"/>
<path d="M123.14 158.702C123.072 158.649 116.229 153.391 108.341 147.667C106.053 145.868 103.86 143.95 101.772 141.922C100.66 140.831 99.6238 139.733 98.6942 138.66C97.7185 137.54 96.8025 136.368 95.95 135.151C95.1144 133.959 94.3611 132.71 93.6951 131.415C93.3641 130.767 93.0623 130.111 92.7967 129.462C92.5233 128.796 92.2811 128.122 92.076 127.458C91.8651 126.775 91.6854 126.083 91.5516 125.407C91.4112 124.712 91.3081 124.009 91.243 123.302C91.1079 121.852 91.1406 120.391 91.3406 118.948C91.5322 117.54 91.8372 116.15 92.2527 114.79C92.6235 113.589 93.1034 112.424 93.6863 111.31C94.2123 110.304 94.8361 109.353 95.5486 108.47C97.4731 106.092 100.054 104.332 102.971 103.409C103.891 103.112 104.834 102.89 105.79 102.746C106.738 102.605 107.696 102.534 108.655 102.535C110.267 102.535 111.873 102.728 113.44 103.107C114.196 103.291 114.941 103.519 115.67 103.79C116.371 104.051 117.056 104.354 117.721 104.7C118.356 105.029 118.968 105.402 119.553 105.816C120.107 106.206 120.629 106.64 121.115 107.114C121.969 107.929 122.657 108.901 123.14 109.978C123.624 108.901 124.312 107.929 125.166 107.114C125.652 106.64 126.174 106.207 126.728 105.816C127.313 105.402 127.925 105.029 128.56 104.7C129.226 104.354 129.913 104.051 130.616 103.79C131.345 103.519 132.09 103.291 132.846 103.107C134.411 102.728 136.016 102.536 137.627 102.535V102.535C138.586 102.534 139.544 102.605 140.492 102.746C141.449 102.89 142.392 103.111 143.313 103.409C146.23 104.332 148.811 106.092 150.735 108.47C151.445 109.353 152.067 110.305 152.591 111.31C153.171 112.424 153.649 113.589 154.017 114.789C154.433 116.149 154.738 117.539 154.929 118.948C155.13 120.39 155.162 121.851 155.027 123.301C154.962 124.008 154.859 124.711 154.719 125.406C154.581 126.09 154.405 126.779 154.194 127.457C153.99 128.121 153.747 128.795 153.473 129.461C153.208 130.108 152.906 130.764 152.575 131.414C151.912 132.709 151.162 133.958 150.33 135.151C149.478 136.367 148.563 137.537 147.588 138.656C146.657 139.731 145.621 140.827 144.51 141.918C142.422 143.947 140.23 145.865 137.942 147.664C130.05 153.394 123.208 158.654 123.14 158.706V158.702Z" fill="white"/>
<path fill-rule="evenodd" clip-rule="evenodd" d="M124.999 215.819C161.008 215.819 192.122 194.863 206.811 164.481L175.605 154.345C169.322 165.796 159.408 174.83 147.424 180.026C135.441 185.221 122.069 186.281 109.417 183.039C96.7647 179.797 85.5507 172.437 77.5423 162.119C69.5339 151.801 65.1863 139.112 65.1846 126.051C65.192 110.565 71.3056 95.7064 82.1988 84.699C93.092 73.6916 107.886 67.4234 123.372 67.2544C138.857 67.0854 153.784 73.0291 164.915 83.7961C176.046 94.5631 182.483 109.285 182.828 124.767L215.242 135.296C215.623 131.917 215.819 128.481 215.819 124.999C215.819 74.8408 175.158 34.1794 124.999 34.1794C74.8403 34.1794 34.1787 74.8408 34.1787 124.999C34.1787 175.157 74.8403 215.819 124.999 215.819Z" fill="white"/>
<defs>
<linearGradient id="paint0_linear_540_122" x1="125" y1="0" x2="125" y2="249.998" gradientUnits="userSpaceOnUse">
<stop offset="0.0520833" stop-color="#FE0000"/>
<stop offset="0.244538" stop-color="#FF9801"/>
<stop offset="0.386875" stop-color="#E7EC00"/>
<stop offset="0.554347" stop-color="#009800"/>
<stop offset="0.740232" stop-color="#0000FE"/>
<stop offset="0.968716" stop-color="#9A0199"/>
</linearGradient>
</defs>
</svg>
