<svg width="313" height="25" viewBox="0 0 313 25" fill="none" xmlns="http://www.w3.org/2000/svg">
<path fill-rule="evenodd" clip-rule="evenodd" d="M74.2963 12.3649C74.2963 5.47297 79.9962 0 90.7041 0C101.412 0 107.178 5.47297 107.178 12.3649C107.178 19.3243 101.774 24.8986 90.77 24.8986C79.7656 24.8986 74.2963 19.3243 74.2963 12.3649ZM85.0372 12.2297C84.9713 16.6216 86.6845 21.0811 90.6053 21.1486C94.6248 21.2162 96.3381 16.723 96.437 12.4324C96.5028 7.87162 94.5589 3.81757 90.9018 3.75C87.2446 3.68243 85.1031 7.66892 85.0372 12.2297ZM5.30453 4.12162L16.0783 24.1892H28.5324L39.1085 4.12162H44.4131V0.506757H28.4665V4.12162H33.0792L25.3695 18.75L17.5609 4.12162H23.162V0.506757H0V4.12162H5.30453ZM142.464 4.12162V0.506757H163.814V4.12162H158.477V20.5068H163.419C167.999 20.5068 170.964 17.4324 170.964 13.2095H174.489V24.1892H142.431V20.5068H147.802V4.12162H142.464ZM210.929 4.12162L221.67 24.1892H234.157L244.733 4.12162H250.038V0.506757H234.091V4.12162H238.704L230.994 18.75L223.185 4.12162H228.787V0.506757H205.625V4.12162H210.929ZM279.921 12.3649C279.921 5.47297 285.621 0 296.329 0C307.069 0 312.802 5.47297 312.802 12.3649C312.802 19.3243 307.399 24.8986 296.395 24.8986C285.39 24.8986 279.921 19.3243 279.921 12.3649ZM290.629 12.2297C290.563 16.6216 292.276 21.0811 296.197 21.1486C300.249 21.2162 301.963 16.723 302.029 12.4324C302.094 7.87162 300.151 3.81757 296.493 3.75C292.836 3.68243 290.695 7.66892 290.629 12.2297Z" fill="white"/>
</svg>
