<?xml version="1.0" standalone="no"?>
<!DOCTYPE svg PUBLIC "-//W3C//DTD SVG 20010904//EN"
 "http://www.w3.org/TR/2001/REC-SVG-20010904/DTD/svg10.dtd">
<svg version="1.0" xmlns="http://www.w3.org/2000/svg"
 width="1920.000000pt" height="1080.000000pt" viewBox="0 0 1920.000000 1080.000000"
 preserveAspectRatio="xMidYMid meet">

<g transform="translate(0.000000,1080.000000) scale(0.100000,-0.100000)"
fill="#000000" stroke="none">
<path d="M6821 8610 c-294 -62 -518 -272 -597 -561 -27 -97 -25 -281 4 -383
48 -167 161 -328 297 -421 l55 -38 0 -1468 0 -1468 58 -8 c74 -10 570 -10 645
0 l57 8 0 1471 c0 1396 1 1470 18 1465 9 -2 915 -502 2012 -1109 l1995 -1105
11 -81 c55 -387 366 -662 749 -662 354 0 650 233 736 580 28 110 23 287 -11
395 -50 160 -157 307 -290 398 -25 17 -48 35 -52 41 -4 6 -8 669 -8 1473 l0
1461 -67 9 c-38 4 -176 8 -308 8 -132 0 -270 -4 -307 -8 l-68 -9 0 -1468 c0
-808 -3 -1471 -7 -1473 -5 -3 -912 496 -2018 1108 l-2010 1112 -3 39 c-9 136
-71 299 -157 413 -92 121 -247 225 -400 267 -70 19 -269 27 -334 14z"/>
<path d="M2560 6441 l0 -2159 88 -8 c112 -10 472 -10 585 0 l87 8 0 814 0 814
303 0 303 0 76 -102 c258 -348 501 -751 775 -1284 l123 -242 73 -6 c172 -14
374 -17 536 -7 95 6 176 13 179 16 4 3 -49 117 -117 253 -275 552 -509 951
-770 1314 -50 70 -91 128 -91 131 0 2 26 10 58 17 96 21 252 79 352 131 249
128 408 320 478 577 25 95 26 105 30 477 4 413 -2 502 -45 640 -148 474 -595
718 -1403 765 -96 5 -500 10 -897 10 l-723 0 0 -2159z m1766 1486 c315 -56
467 -173 531 -409 26 -94 25 -475 -1 -568 -59 -213 -207 -327 -501 -386 -64
-13 -174 -17 -557 -21 l-478 -5 0 707 0 707 458 -5 c360 -3 476 -8 548 -20z"/>
<path d="M13575 8588 c-3 -7 -4 -978 -3 -2158 l3 -2144 45 -9 c58 -12 531 -15
633 -4 l77 9 0 774 0 774 379 0 c632 0 926 33 1224 137 323 112 544 308 643
568 57 151 66 222 71 578 6 353 -4 523 -37 652 -108 423 -442 680 -1012 781
-248 43 -313 46 -1180 51 -695 4 -839 3 -843 -9z m1751 -661 c309 -55 468
-172 540 -397 25 -81 32 -482 11 -598 -39 -207 -168 -342 -391 -411 -156 -48
-224 -54 -703 -58 l-453 -5 0 747 0 747 453 -5 c355 -3 471 -8 543 -20z"/>
<path d="M2540 2705 l0 -535 7060 0 7060 0 0 535 0 535 -7060 0 -7060 0 0
-535z m5873 390 c25 -10 43 -12 61 -6 19 8 28 6 41 -8 15 -18 14 -20 -11 -40
-32 -25 -71 -27 -118 -4 -28 13 -41 14 -60 5 -20 -9 -27 -7 -42 10 -18 19 -18
20 5 39 28 23 76 24 124 4z m-4463 -136 c114 -24 154 -101 148 -282 -3 -97 -7
-118 -28 -156 -31 -57 -74 -81 -150 -88 -114 -11 -189 31 -221 124 -21 59 -18
237 4 296 22 54 65 92 123 106 54 13 66 13 124 0z m1134 -22 c46 -25 73 -66
78 -117 l3 -35 -47 -3 c-44 -3 -46 -2 -53 27 -13 62 -99 83 -152 37 -27 -23
-28 -29 -31 -128 -5 -133 9 -172 64 -187 64 -18 124 9 124 56 0 19 -5 23 -30
23 -29 0 -30 2 -30 45 l0 46 78 -3 77 -3 3 -75 c2 -65 0 -81 -20 -110 -38 -56
-81 -75 -173 -75 -96 0 -137 21 -175 87 -22 37 -25 58 -28 161 -5 134 8 184
58 232 58 56 174 66 254 22z m2876 22 c64 -14 114 -59 129 -117 7 -23 9 -47 6
-52 -3 -6 -26 -10 -50 -10 -38 0 -44 3 -53 28 -16 45 -39 62 -85 62 -77 -1
-97 -36 -97 -171 0 -117 15 -154 68 -170 58 -17 93 2 112 63 l15 48 48 0 c42
0 47 -2 47 -22 0 -81 -47 -148 -121 -176 -44 -16 -48 -20 -35 -31 9 -8 16 -26
16 -42 0 -35 -32 -59 -81 -59 -32 0 -36 3 -32 20 4 14 14 20 34 20 22 0 29 5
29 20 0 14 -7 20 -21 20 -15 0 -19 5 -15 18 5 15 -2 21 -33 31 -97 29 -136
101 -136 251 0 52 6 117 14 144 18 63 67 112 123 124 59 13 60 13 118 1z
m1093 -22 c49 -27 73 -67 87 -147 21 -113 -1 -251 -48 -304 -61 -69 -224 -75
-301 -10 -48 40 -64 105 -59 242 4 132 23 183 81 217 66 39 171 40 240 2z
m737 8 c40 -21 70 -59 77 -99 l6 -36 -47 0 c-25 0 -46 4 -46 8 0 5 -9 18 -20
30 -43 46 -160 20 -160 -35 1 -41 31 -58 122 -68 43 -4 79 -14 100 -28 97 -65
86 -213 -19 -262 -117 -56 -274 -7 -304 96 -7 21 -10 41 -8 44 3 2 23 7 46 11
38 6 42 4 54 -22 39 -81 192 -79 192 1 0 42 -31 61 -109 69 -118 12 -174 61
-174 151 0 77 50 135 134 156 39 9 123 1 156 -16z m480 14 c100 -21 150 -106
150 -255 0 -202 -74 -286 -240 -271 -76 7 -119 31 -149 87 -21 37 -25 61 -29
150 -7 178 30 258 135 286 61 16 71 16 133 3z m520 0 c81 -17 140 -82 140
-154 0 -23 -3 -25 -46 -25 -42 0 -46 2 -59 35 -18 41 -41 55 -90 55 -74 0
-103 -68 -92 -215 6 -84 20 -111 63 -125 60 -20 110 9 123 72 6 31 9 33 54 36
46 3 47 2 47 -25 0 -79 -52 -153 -121 -173 -85 -25 -187 1 -226 56 -33 48 -43
92 -43 199 0 168 40 240 145 266 43 10 49 10 105 -2z m2602 0 c64 -14 120 -65
137 -124 17 -61 14 -233 -5 -288 -27 -79 -92 -117 -199 -117 -54 0 -120 26
-147 56 -39 45 -52 95 -52 214 -1 105 2 121 25 165 26 51 65 82 122 95 47 11
60 11 119 -1z m1468 -14 c51 -27 90 -85 90 -134 0 -30 -1 -31 -45 -31 -41 0
-46 2 -59 34 -17 41 -42 56 -91 56 -56 0 -82 -32 -90 -114 -19 -171 32 -259
130 -226 32 10 43 27 60 88 5 19 13 22 52 22 l46 0 -5 -50 c-6 -57 -37 -109
-83 -137 -47 -28 -168 -25 -218 6 -59 36 -80 88 -85 209 -8 185 35 269 148
293 43 9 116 1 150 -16z m-10303 -11 c48 -36 73 -82 73 -136 0 -57 -17 -96
-60 -131 l-30 -26 55 -99 c30 -54 55 -102 55 -106 0 -4 -26 -6 -57 -4 l-58 3
-54 98 c-51 93 -55 97 -87 97 l-33 0 -3 -97 -3 -98 -50 0 -50 0 -3 210 c-4
309 0 317 175 313 85 -3 106 -6 130 -24z m992 13 c11 -14 181 -491 181 -509 0
-5 -24 -8 -52 -6 -53 3 -53 3 -68 46 l-15 43 -90 -3 -89 -3 -12 -40 c-11 -39
-11 -40 -62 -43 -40 -2 -52 0 -52 12 0 22 158 467 175 493 17 26 65 32 84 10z
m515 -152 l101 -159 3 162 2 162 55 0 55 0 0 -247 c0 -215 -2 -249 -17 -265
-20 -22 -51 -23 -79 -3 -12 8 -61 76 -109 152 -49 76 -94 145 -102 153 -11 12
-13 -13 -13 -153 l0 -167 -50 0 -50 0 0 266 0 265 52 -3 52 -3 100 -160z m486
-100 l0 -265 -50 0 -50 0 0 265 0 265 50 0 50 0 0 -265z m500 224 c0 -36 -14
-62 -115 -210 -63 -93 -115 -171 -115 -174 0 -3 52 -5 115 -5 l115 0 0 -51 0
-50 -154 3 c-135 3 -157 5 -175 22 -23 21 -28 65 -9 99 6 12 56 86 110 164 54
78 98 144 98 147 0 3 -47 6 -105 6 l-105 0 0 45 0 45 170 0 170 0 0 -41z m368
28 c11 -13 182 -492 182 -509 0 -5 -24 -8 -52 -6 -53 3 -53 3 -68 46 l-15 43
-89 -3 -89 -3 -15 -42 c-14 -43 -14 -43 -61 -43 -26 0 -50 2 -53 5 -8 8 162
487 180 508 18 20 65 23 80 4z m1026 -9 c16 -25 176 -477 176 -497 0 -8 -17
-11 -52 -9 -51 3 -52 3 -66 46 l-14 42 -88 0 -88 0 -14 -42 c-14 -43 -15 -43
-66 -46 -36 -2 -52 1 -52 9 0 20 160 472 176 497 10 15 24 22 44 22 20 0 34
-8 44 -22z m2744 -240 l-3 -263 -52 -3 -53 -3 0 265 0 266 55 0 55 0 -2 -262z
m402 242 c10 -18 180 -497 180 -506 0 -2 -24 -4 -54 -4 l-54 0 -14 43 -15 42
-90 3 -90 3 -13 -46 -13 -45 -53 0 c-30 0 -54 2 -54 4 0 21 174 494 187 508
22 25 69 24 83 -2z m420 -183 c0 -145 3 -206 12 -215 8 -8 47 -12 110 -12 l98
0 0 -51 0 -52 -112 5 c-123 5 -159 16 -192 61 -20 26 -21 44 -24 248 l-3 219
55 0 56 0 0 -203z m896 184 c23 -10 51 -33 64 -51 41 -58 51 -271 16 -354 -19
-46 -68 -83 -126 -95 -58 -12 -152 -5 -192 15 -56 29 -58 39 -58 281 l0 223
128 0 c102 0 135 -4 168 -19z m1193 -128 l73 -148 74 148 74 147 50 0 50 0 0
-265 0 -265 -50 0 -49 0 -3 153 -3 152 -55 -110 c-44 -88 -60 -111 -78 -113
-35 -5 -56 19 -104 124 l-43 95 -5 -148 -5 -148 -50 0 -50 0 -3 263 -2 262 52
0 53 0 74 -147z m1351 102 l0 -45 -70 0 -70 0 -2 -217 -3 -218 -52 -3 -53 -3
0 220 0 221 -70 0 -70 0 0 45 0 45 195 0 195 0 0 -45z m240 -220 l0 -265 -50
0 -50 0 0 265 0 265 50 0 50 0 0 -265z"/>
<path d="M3823 2846 c-28 -24 -28 -25 -28 -145 0 -118 1 -121 28 -148 32 -33
89 -37 129 -11 66 43 60 296 -7 322 -38 14 -94 6 -122 -18z"/>
<path d="M8873 2855 c-38 -26 -57 -171 -33 -256 14 -51 41 -72 95 -73 36 -1
50 4 72 26 24 24 27 36 31 112 6 106 -3 152 -33 182 -28 28 -98 33 -132 9z"/>
<path d="M10152 2863 c-31 -12 -46 -67 -46 -163 1 -116 12 -146 61 -166 30
-13 44 -14 76 -4 56 17 70 55 65 188 -3 99 -4 105 -31 128 -27 23 -89 32 -125
17z"/>
<path d="M13265 2846 c-30 -30 -39 -76 -33 -182 4 -76 7 -88 31 -112 22 -22
36 -27 72 -26 54 1 81 22 95 73 24 85 5 230 -33 256 -34 24 -104 19 -132 -9z"/>
<path d="M4372 2858 c-7 -7 -12 -39 -12 -75 l0 -63 64 0 c58 0 67 3 86 27 26
33 21 79 -11 106 -25 20 -108 24 -127 5z"/>
<path d="M5481 2723 c-13 -43 -26 -86 -28 -95 -5 -16 2 -18 57 -18 45 0 61 3
58 13 -3 6 -15 49 -28 95 -13 45 -26 82 -30 82 -3 0 -16 -35 -29 -77z"/>
<path d="M7347 2711 c-15 -50 -27 -92 -27 -95 0 -4 27 -6 61 -6 45 0 60 3 56
13 -2 7 -15 49 -28 95 -13 45 -26 82 -30 82 -3 0 -17 -40 -32 -89z"/>
<path d="M8396 2780 c-8 -21 -56 -163 -56 -167 0 -2 27 -3 60 -3 33 0 60 4 60
8 0 26 -59 175 -64 162z"/>
<path d="M11517 2720 c-15 -49 -27 -94 -27 -99 0 -7 23 -11 55 -11 39 0 55 4
55 13 0 14 -48 178 -53 184 -2 1 -16 -37 -30 -87z"/>
<path d="M12710 2717 c0 -181 3 -187 80 -187 37 0 56 6 77 24 28 24 28 25 28
145 0 111 -2 122 -22 143 -18 18 -37 23 -93 26 l-70 4 0 -155z"/>
</g>
</svg>
