<?xml version="1.0" encoding="utf-8"?>
<!-- Generator: Adobe Illustrator 22.1.0, SVG Export Plug-In . SVG Version: 6.00 Build 0)  -->
<svg version="1.1" id="Calque_1" xmlns="http://www.w3.org/2000/svg" xmlns:xlink="http://www.w3.org/1999/xlink" x="0px" y="0px"
	 viewBox="0 0 170.1 170.1" style="enable-background:new 0 0 170.1 170.1;" xml:space="preserve">
<path d="M86.8,96.6c1.6-3.5,3.2-6.9,4.9-10.6C91.8,87.2,87.8,96.1,86.8,96.6z"/>
<path d="M57.5,142.2c0.3,0-0.9-0.1-0.9-0.1c-0.8-1.6-1.6-3.1-2.4-4.6c-1.5-2.9-3.1-5.7-4.5-8.6c-2.6-5.2-5.2-10.4-8.6-15.1
	c-1.5-2.1-3.2-4-5.3-5.3c-0.7-0.4-1.7-0.2-2.6,0.6c-2.2,2-2.8,4.6-2.2,7.4c0.6,2.8,1.7,5.5,2.5,8.2c1,3.5,1.8,7.1,2.8,10.6
	c0.4,1.4,1.2,2.7,1.8,4c0.3,0.6,0.6,1.2,0.9,1.9c-0.1,0.1-0.2,0.2-0.3,0.3c-0.5-0.5-1.1-0.9-1.5-1.5c-2.7-4.1-5.5-8.2-7.5-12.8
	c-2.1-4.7-3.6-9.7-4.4-14.9c-0.2-1.5-0.3-3.1-0.4-4.6c-0.2-3,2.2-4.9,5-4.1c2.2,0.6,4.5,1,6.8,1.4c3.2,0.5,6,1.8,8.5,3.8
	c3.5,2.7,6.1,6.4,8.4,10.2c2.9,4.7,5.8,9.5,8.7,14.2c1.8,2.9,3.4,5.9,5.1,8.9c1.3,0,2.6,0,4,0c-0.2-1.2-0.5-2.4-0.7-3.6
	c-0.3-1.7-0.5-3.4-0.9-5c-0.2-0.8-0.7-1.5-1.2-2.1c-1.4-1.6-2.6-3.5-2.7-5.7c-0.2-2.7-2-4.5-2.5-7c-0.8-4-1.8-8-1.5-12.2
	c0.1-2.1,0.3-4.1,0.4-6.2c0-0.1,0.1-0.3,0.2-0.4c0.2,2-0.1,4,1.1,5.8c-1.3-5.4-0.7-10.7,0.3-16.1c0,2.4-0.6,4.9,1.2,7.2
	c-0.5-7.1-0.3-14,1.8-20.6c-0.2,1.9-0.3,3.8-0.5,5.7c1.3-5.8,3.5-11.3,3.4-17.4c0.1,0,0.2,0.1,0.3,0.1c0.1,1.6,0.3,3.2,0.4,4.8
	c0.1,0,0.1,0,0.2,0c0.8-2.6,1.7-5.2,2.4-7.8c0.7-2.6,1.3-5.3,2.1-7.9c-0.3,2.5-0.5,5-0.8,7.6c0.1,0,0.2,0.1,0.2,0.1
	c0.8-1.7,1.7-3.3,2.3-5c1.3-3.5,2.3-7.1,3.6-10.5c0.9-2.3,2-4.4,3-6.6c0.2-0.4,0.4-0.8,0.8-1.1c-0.1,0.4-0.2,0.8-0.4,1.1
	c-2.1,4.5-4,9.1-5.4,13.9c-0.3,0.9-0.4,1.9-0.4,2.9C82.5,48.3,85,40,89,32.4c0.1,0,0.2,0.1,0.2,0.1c-0.3,0.7-0.4,1.5-0.8,2.2
	c-2.3,4.4-4.2,8.9-5.7,13.6c-0.7,2.2-1.3,4.5-1,7.1c2-4,3.3-8,4.8-12.1c-1.6,7-3.5,13.9-5.9,20.7c1.8-2,2.5-4.7,3.9-7
	c-1.7,5.4-4.6,10.3-5.4,16.2c0.6-1.9,1.3-3.9,1.9-5.8c0.1,0,0.2,0,0.3,0.1c-0.1,0.8-0.2,1.6-0.4,2.3c-0.8,2.9-1.7,5.8-2.6,8.7
	c-0.3,1.2-0.6,2.3-0.8,3.6c0.7-1.7,1.4-3.3,2.1-5c0,0,0.1,0,0.1,0c0,0.3,0,0.7-0.1,1c-0.9,3.6-1.7,7.1-2.6,10.7
	c0.5,2-0.7,3.7-0.7,5.7c0,2.3-0.5,4.7-0.8,7c-0.2,1.4-0.4,2.7-0.6,4.3c1.2-2.4,1.3-4.9,2.1-7.2c-0.1,3.4-0.2,6.8-0.4,10.1
	c-0.2,2.2-0.7,4.5-1,6.7c-0.1,1.1,0,2.2-0.3,3.3c-0.3,1.7-0.9,3.3-1.2,5c-0.3,1.6-0.4,3.2-0.7,4.7c-0.3,1.3-0.8,2.6-1.1,3.9
	c-0.5,2.1-0.1,4.1,0.2,6.2c0.2,1.2,0.5,2.4,0.8,3.7c4.1,0,8.1,0,12.2,0c0-0.3,0-0.7,0-1c0-2.3,0-4.6,0-6.9c0-3,0.1-6.1,0.2-9.1
	c0.2-3.9,0.6-7.9,0.7-11.8c0-2.1-0.6-4.2-0.9-6.4c-0.4-2.7-0.7-5.5-1.1-8.2c-0.2-1.6-0.7-3.1-0.8-4.7c-0.1-1.6,0-3.2,0-4.8
	c0-0.1,0.1-0.1,0.3-0.3c0.1,1.6,0.2,3.1,0.2,3.9c0.1-1.7,0.2-4.1,0.3-6.4c0.1-2.4,0.2-4.7,0.5-7.1c-0.2,2.6,0.3,5,1,7.4
	c0.4-3.8,0.7-7.5,1.2-11.2c0.5-3.7,2.1-7.1,3.4-10.5c0.1,0,0.2,0.1,0.3,0.1c-0.2,0.7-0.5,1.4-0.7,2c-0.8,2.1-1.6,4.2-1.4,6.6
	c0.1,0.8,0.3,1.5,0.5,2.3c1.9-7.9,3.7-15.7,7.5-22.9c-1.9,5-4.1,10-3.3,16c2.4-9.1,5.5-17.6,9.9-25.5c-1.6,4.5-4.2,8.7-4.5,13.6
	c3.2-7.4,6.9-14.6,10.6-21.7c0.1,0.1,0.2,0.1,0.4,0.2c-1.7,3.6-3.4,7.3-5.1,10.9c0.1,0.1,0.2,0.2,0.4,0.2c4.2-5.5,8.4-11.1,12-17.2
	c0.1,0.1,0.2,0.1,0.3,0.2c-1.9,3.4-3.8,6.9-5.8,10.3c5.1-4.7,8.1-11,12-16.7c0.1,0,0.1,0.1,0.2,0.1c-0.6,1-1.1,2.1-1.7,3.1
	c-1.3,2.2-2.6,4.4-4,6.6c-1,1.5-1.2,3.2-1.6,4.9c-0.1,0.3-0.1,0.6,0,1c1.8-2.8,3.5-5.7,5.3-8.5c0.1,0,0.1,0.1,0.2,0.1
	c-0.6,1.1-1.1,2.2-1.8,3.2c-1.8,3-3.6,6-5.3,9.1c-0.6,1-0.8,2.2-1.1,3.5c1.5-2.1,3-4.2,4.5-6.3c0.1,0,0.1,0.1,0.2,0.1
	c-1.5,3-3.1,6-4.6,9c-1.5,3-3.1,6-4.6,9c0.1,0.1,0.3,0.2,0.4,0.2c1.6-2.8,3.2-5.5,4.8-8.3c0.1,0.1,0.2,0.1,0.3,0.2
	c-2.8,5.3-5.5,10.5-8.3,15.8c0.1,0.1,0.2,0.1,0.3,0.2c1.2-1.8,2.3-3.6,3.5-5.4c0.1,0,0.2,0.1,0.2,0.1c-0.5,1.1-0.9,2.2-1.5,3.2
	c-2.1,3.4-4.4,6.6-5.9,10.3c-0.6,1.4-1.2,2.8-1.7,4.3c2-3.8,3.3-8,6.2-11.5c0,0.3,0.1,0.5,0,0.6c-2.9,4-4.4,8.6-5.7,13.4
	c-0.5,1.9-1.3,3.7-1.9,5.6c0.9-1.9,1.8-3.8,2.8-5.6c0.1,0,0.2,0.1,0.3,0.1c0,0.2,0,0.5-0.1,0.7c-1.9,4.5-3.7,9-5.7,13.4
	c-0.6,1.4-1.6,2.6-2.2,4c-1.1,2.2-2,4.4-3,6.6c-0.6,1.4-1.4,2.6-2,4c-0.6,1.4-1.1,2.9-1.3,4.4c-0.5,3-0.9,6.1-1.1,9.1
	c-0.3,3.9-0.3,7.9-0.4,11.8c0,1.7,0.2,3.4,0.4,5.1c1.1-6.1,2.8-12.1,4.8-18c1.7-5,3.5-9.9,5.2-14.8c2.1-5.9,4.2-11.8,6.4-17.6
	c2-5.4,4-10.7,6.2-16c1.5-3.6,3.6-7,6.4-9.6c1.6-1.5,3.5-2.7,5.2-4.1c2.3-1.8,4.5-3.8,6.9-5.5c3.8-2.7,7.9-4.4,12.3-5.5
	c0.8-0.2,1.5-0.4,2.3-0.6c0.3,1.6,0.3,1.7-1,2.3c-4.4,1.9-8.6,4.3-12.5,7.3c-3.4,2.6-6.5,5.5-9.2,8.9c-1.4,1.8-3,3.5-4,5.6
	c-1.8,3.5-3.5,7.1-4.9,10.8c-2.8,7.7-5.2,15.5-8,23.1c-1.9,5.2-4.2,10.2-6.5,15.1c-3,6.3-5.9,12.5-7.8,19.3c0,0.1,0,0.2,0,0.5H57.5z
	 M72.2,124.5c1.7-1.9,2.2-4.2,2.6-6.8c-1.3,1.2-1.4,2.8-1.9,4.2C72.7,122.8,72.5,123.7,72.2,124.5c-0.1-0.4-0.3-0.9-0.2-1.3
	c0.2-0.9,0.5-1.8,0.8-2.7c-0.6,0.7-1.3,1.4-1.6,2.3c-0.2,0.5,0.3,1.2,0.5,1.8C71.7,124.6,72,124.6,72.2,124.5z M79.9,60.1
	c-0.1,0.2-0.2,0.4-0.3,0.6c-1.1,2.1-2.2,4.1-3.3,6.2c-0.3,0.7-0.5,1.4-0.8,2.4c0.3-0.2,0.4-0.2,0.5-0.3c1.6-2.1,2.8-4.4,3.6-7
	C79.8,61.5,79.8,60.8,79.9,60.1c0.1,0.4,0.3,0.7,0.3,1.1c-0.1,0.6-0.2,1.2-0.4,1.8c-0.4,1.2-0.9,2.4-1.3,3.6
	c1.3-2.1,3.2-7.6,3.1-8.8C81,58.6,80.5,59.4,79.9,60.1z M71.1,131.4c-0.1-0.1-0.2-0.2-0.2-0.3c-0.5-2.6-2.5-4-4-5.7
	c0.5,2.6,1.8,4.8,3.5,6.6c0.3,0.3,0.6,0.7,0.7,1.2c0.3,1.7,0.4,3.5,0.6,5.3c0.2,1.2,0.4,2.4,0.6,3.6c0.1,0,0.2,0,0.3-0.1
	c-0.2-1.6-0.5-3.2-0.7-4.8c-0.3-2.5-0.6-4.9,0.5-7.3c0.5-1.2,0.7-2.7,1-4c-0.1,0-0.2-0.1-0.3-0.1c-0.1,0.3-0.2,0.5-0.3,0.8
	C72.2,128.2,71.6,129.8,71.1,131.4z M47.7,120c-0.1,0.1-0.2,0.2-0.4,0.3c-3.2-6.3-7.6-11.2-13.4-14.7c0.9,0.8,1.8,1.6,2.8,2.3
	c2.7,2.1,5.1,4.4,6.8,7.5c2.2,4,4.3,8,6.4,12c2.3,4.4,4.6,8.9,6.8,13.4c0.7,1.4,0.7,1.4,2.1,1.1c-1.7-3.5-3.4-7-5.1-10.5
	c0.1-0.1,0.2-0.1,0.3-0.2c0.4,0.7,0.8,1.5,1.2,2.2c1.4,2.7,2.8,5.3,4.2,8c0.1,0.2,0.5,0.4,0.7,0.6c0-0.1,0.1-0.1,0.1-0.2
	c-1-2.1-2.1-4.2-3.1-6.4c0.1-0.1,0.2-0.1,0.3-0.2c0.1,0.1,0.2,0.3,0.3,0.4c0.7,1.4,1.5,2.8,2.2,4.3c1.1,2.1,1.2,2.2,2.9,1.8
	c-0.8-1.5-1.5-3.1-2.3-4.6c0.1,0,0.2-0.1,0.2-0.1c0.8,1.4,1.6,2.8,2.4,4.2c0.2,0.3,0.5,0.6,0.7,0.7c0.9,0.1,1.8,0,2.7,0
	c-1.6-2.9-3.1-5.6-4.7-8.3c-3.1-5.1-6.2-10.1-9.3-15.1c-1.9-3.1-4-6-6.7-8.4c-0.5-0.5-1.1-0.9-1.7-1.4c1.6,1.9,3.2,3.8,4.2,6.2
	c-0.8-1-1.5-2.1-2.3-3c-1.7-2.1-1.9-2.2-2.7-2.4c0.7,0.9,1.6,1.8,2.4,2.8c-0.1,0.1-0.2,0.2-0.3,0.3c-0.6-0.7-1.1-1.5-1.7-2.2
	c-0.1,0.1-0.1,0.1-0.2,0.2c0.4,0.6,0.8,1.1,1.4,1.9c-2.9-2.4-5.6-4.6-8.3-6.9c-0.1,0.1-0.1,0.2-0.2,0.3c0.8,0.6,1.7,1.2,2.5,1.9
	c0.8,0.7,1.6,1.4,2.4,2.2c0.8,0.8,1.6,1.6,2.3,2.5c0.7,0.8,1.3,1.7,2,2.5c-0.1,0.1-0.2,0.1-0.2,0.2c-0.6-0.7-1.2-1.5-2-2.3
	C45,115.5,46.3,117.7,47.7,120z M117.4,65.4c-2.7,2.4-4.9,5.3-6.3,8.6c-2,4.6-3.9,9.3-5.6,14c-2.3,6-4.4,12.1-6.5,18.2
	c-2.1,5.9-4.2,11.8-6.2,17.8c-0.7,2-1.2,4.1-1.8,6.2c0,0,0.1,0,0.1,0c1.3-3.9,2.7-7.8,4-11.7c0.1,0,0.2,0.1,0.3,0.1
	c-0.6,1.9-1.1,3.8-1.7,5.7c0,0,0.1,0,0.1,0c1.8-5.2,3.6-10.4,5.4-15.6c0.1,0,0.2,0.1,0.3,0.1c-2.1,6.2-4.1,12.5-6.2,18.7
	c4.3-10.3,8.4-20.6,12.8-30.8c0.1,0,0.2,0.1,0.3,0.1c-3.2,8.1-6.5,16.2-9.7,24.2c1.5-2.8,3-5.6,4.2-8.6c2.6-6.9,5-13.9,7.5-20.8
	c1.6-4.4,3.2-8.8,4.8-13.1c0.4-1,0.8-2,1.2-3c-0.1,0-0.2-0.1-0.3-0.1c-3.4,7.5-6.8,15.1-10.2,22.6c3.9-11.1,9-21.6,14.6-31.8
	c-3.7,4.7-6.8,9.8-9.3,15.4c0.9-3.3,2.6-6.3,4.1-9.3c-1.5,2.5-2.9,5.1-4.1,7.8c-1.2,2.7-2.2,5.5-3.2,8.2
	C108.1,79.8,112,72.2,117.4,65.4z M34.3,131.7c0,0,0.1,0,0.1,0c-0.5-2.1-0.8-4.2-1.4-6.3c-1-3.4-2.5-6.5-2.8-10.2
	c-0.2-1.8,0-3.5,0.9-5c0.7-1.1,1.4-2.1,2.2-3.2c-1.1-1.5-2.5-2.4-4.1-2.8c-1.5-0.4-2.9,0.5-3.4,2.3c-0.5,2,0,3.9,0.3,5.7
	c0.4,2.5,0.9,4.9,1.6,7.4c0.6,2.1,1.4,4.2,2.1,6.3c0,0,0.1,0,0.1-0.1c-0.7-2.7-1.4-5.3-2-8c0.1,0,0.2-0.1,0.3-0.1
	c1,4.4,2.4,8.7,4.3,12.7c-2.4-5.9-4-12-4.5-18.4c0.4,1.6,0.7,3.3,1,4.9c0.3,1.6,0.7,3.3,1.1,4.9c0.4,1.6,1,3.2,1.5,4.8
	c0.5,1.6,1.1,3.1,1.7,4.6c-0.7-2.8-1.6-5.6-2.5-8.4c-1.1-3.3-2.1-6.7-1.7-10.3c0.2-1.2,0.7-3,1.4-3.6c-0.1,0.3-0.2,0.5-0.2,0.6
	c-1,2.3-1.2,4.7-0.6,7.1c0.8,3.1,1.7,6.1,2.6,9.1C33.1,127.8,33.7,129.8,34.3,131.7z M101.2,81.1c-1.9,1.7-3.5,3.3-5.3,4.7
	c-3.6,2.8-4.7,6.8-5,11.6c0.8-1.4,1.4-2.6,2.1-3.7c0.7-1.1,1.1-2.5,2.3-3.2c-0.9,1.7-1.8,3.3-2.7,5c0.1,0,0.1,0.1,0.2,0.1
	c2-3.2,4-6.5,6-9.7C99,86,99,86,99.1,86.1c-1.7,2.9-3.4,5.9-5.1,8.8C97.7,91.2,99.6,86.4,101.2,81.1z M89.6,94.4
	c-0.3-1.8-0.5-3.7-0.7-5.5c-0.2-1.8-0.4-3.6-0.5-5.4c0.1,0,0.2,0,0.3,0c0.5,4.1,1,8.3,1.5,12.5c0.2-1,0.4-1.8,0.6-2.7
	c0.8-2.6,0.9-5.3,0.1-8c-0.7-2.2-1.2-4.5-1.9-6.8c-0.3-1-0.6-2-1-3.2c-1.1,3.7-1.1,11.6-0.1,14.1c-0.1-2.9-0.3-6.3-0.5-9.6
	c0.1,0,0.2,0,0.3,0C87.9,84.8,88.3,89.7,89.6,94.4z M101.8,66.9c2.3-2.3,4.7-4.6,6.2-7.6c1.3-2.5,2.6-5.1,3.9-7.6
	c0.6-1.2,1.2-2.4,1.8-3.6c-0.9,0.9-1.6,1.8-2.4,2.8c-2.9,3.6-5.8,7.2-8.7,10.9c-1.1,1.4-2,3-2.9,4.5c-0.3,0.6-0.4,1.4-0.6,2
	c0.1,0.1,0.2,0.1,0.3,0.2c0.5-0.6,1-1.1,1.4-1.7c1.2-1.6,2.3-3.3,3.4-5c1-1.6,2.6-2.8,3.5-4.6c0.3-0.7,0.7-1.5,1.1-2.2
	c0.1,0.1,0.2,0.1,0.3,0.2C107.4,59.6,105,63.5,101.8,66.9z M75.7,95.9c-0.1,0.1-0.2,0.1-0.3,0.2c-1.3,1.7-2.6,3.4-3.9,5.2
	c-1.1,1.7-2.2,3.4-2,5.6c0.1,1.3,0.4,2.7,0.6,4.1c1.4-3.6,2.8-7.1,4.2-10.6c-0.3,2-0.7,3.9-1.3,5.7c-0.6,1.8-1.5,3.6-2.4,5.5
	C74.7,107.2,75.1,101.5,75.7,95.9z M63,106.5c-0.7,2.9,0,9.2,2.4,10.7c-1.7-3.2-2-4.9-1.6-6.7c1.1,3.8,2.6,7.3,5.8,9.6
	C69.4,114.4,66.4,110.3,63,106.5z M104.2,70.5c-0.6,0.6-1.1,1.2-1.6,1.6c-2,2-4.1,3.9-5.9,6.1c-1.2,1.4-2.1,3.2-2.9,4.9
	c-0.5,1.1-0.7,2.3-1.1,3.5c0.1,0.1,0.3,0.1,0.4,0.2c1.7-3,3.4-6.1,5.1-9.1c0.1,0,0.1,0.1,0.2,0.1c-0.9,1.9-1.8,3.8-2.6,5.8
	c0,0,0.1,0.1,0.1,0.1c1.6-2.3,3.1-4.6,4.7-6.9c-1.1,3.1-3,5.5-4.9,8C99.8,81.1,102.1,76,104.2,70.5z M65.8,89.4
	c0,4.3,0.4,8.6,2,12.8c-0.4-3.3-0.9-6.4-1.3-9.6c0.1,0,0.2,0,0.3-0.1c0.5,2.9,0.9,5.8,1.4,9c0.3-1.2,0.5-2.1,0.8-3.1
	c0.7-2.5,0.8-4.9-0.2-7.4c-0.7-1.6-1.3-3.3-2-4.9c-0.3-0.9-0.6-1.8-1-2.9c-0.2,2.9-0.3,5.5-0.4,8.2c0,0,0.1,0,0.1,0
	C65.6,90.8,65.7,90.1,65.8,89.4z M92.2,84.6c0.1,0,0.2,0,0.3,0c0.5-1.7,1-3.5,1.6-5.2c0.4-1.1,0.4-2.2,0.1-3.4
	c-0.8-3-1.9-5.9-1.8-9.1c-0.4,1.3-0.8,2.6-1.1,4c-0.8,3-1.5,6-0.8,9.1c0.3,1.3,0.7,2.5,1,3.7c0,0,0.1,0,0.1-0.1
	c-0.4-2.3-0.8-4.7-1.2-7c0.1,0,0.2-0.1,0.3-0.1c0.2,0.8,0.4,1.6,0.6,2.6c-0.1-2.6,0.2-5,1-7.2C91.6,76.1,91.4,80.3,92.2,84.6z
	 M69.2,88.7c0.1,0,0.2,0.1,0.3,0.1c0.4-0.7,0.8-1.4,1.1-2.2c0.8-1.8,1.2-3.7,0.8-5.7c-0.5-2.3-0.9-4.7-1.3-7c-0.1-0.5-0.2-1-0.4-1.7
	c-0.5,1.7-1,3.3-1.4,4.8c-0.7,2.3-1.2,4.7-1,7.1c0.1,1.1,0.4,2.1,0.6,3.2c0.1,0,0.2,0,0.3-0.1c-0.8-3.8-0.5-7.4,0.9-11
	c-1,4.2-1.2,8.4-0.1,12.9c0-2.3,0-4.3,0-6.4c0.1,0,0.1,0,0.2,0C69.2,84.7,69.2,86.7,69.2,88.7z M78.5,75.6c-1.3,1.8-2.6,3.5-3.8,5.2
	c-2,2.8-3.9,5.7-4.5,9.2c-0.2,1-0.3,2.2,0.2,3.2C72.3,92.1,76.4,83.1,78.5,75.6z M66.5,109.4c-0.8-2.6-1.7-5.4-2.5-8.2
	c0.1,0,0.2-0.1,0.3-0.1c0.6,1.9,1.2,3.7,1.9,5.6c0.7,1.8,1.5,3.6,2.2,5.4c0.1,0,0.1-0.1,0.2-0.1c-0.6-2.4-1.1-4.8-1.7-7.1
	c0.1,0,0.2-0.1,0.4-0.1c0.7,2.9,1.5,5.9,2.2,8.9c0.4-1,0.4-3.2-0.3-4.9c-1.3-3.4-2.7-6.7-4.1-10.1c-0.4-0.9-1-1.7-1.5-2.6
	C63.2,101,63.9,105.6,66.5,109.4z M94.5,73.6c0.1,0,0.2,0,0.3,0c0.3-3.1,0.5-6.2,1.9-9c-0.6,3.1-1.4,6.3-1.4,9.5
	c0.6-1,1.2-1.9,1.7-2.9c0.2-0.4,0.6-0.7,0.7-1.1c0.2-1.6,0.5-3.3,0.6-4.9c0.1-2.4-0.1-4.8-0.2-7.2c0-0.3,0-0.7,0-1.2
	c-0.2,0.5-0.4,0.7-0.5,1c-1.4,4-2.7,8.1-3.2,12.3C94.2,71.2,94.4,72.4,94.5,73.6z M73.5,97.2c2.2-4.1,2.9-8.8,4-13.4
	c-0.4,0.5-0.7,1.1-1,1.6c-2.1,3.6-4.6,6.9-6,11c-0.8,2.2-1.4,4.5-1.3,7c1.8-4.1,3.5-8.1,5.2-12.1c0.1,0.1,0.2,0.1,0.4,0.2
	c-0.9,2.1-1.8,4.3-2.6,6.4c0.1,0,0.2,0.1,0.3,0.1c1.1-2.8,2.2-5.6,3.4-8.4c0.1,0,0.2,0.1,0.3,0.1C75.2,92.2,74.3,94.7,73.5,97.2z
	 M70.8,120.9c1.2-3.1,2.4-6.2,3.6-9.3c0.1,0.1,0.2,0.1,0.4,0.2c-0.9,2.5-1.8,5-2.9,7.7c2.5-4.3,4.5-11.3,4-13.4
	c-1,1.5-2,3.1-3.1,4.5C70.5,113.6,69.7,117,70.8,120.9z M137.6,52.6c-4.5,2.2-8.5,5-12.3,8.4c2.9-3.3,6.3-5.8,9.9-7.9
	c-0.1-0.1-0.1-0.2-0.2-0.3c-2.6,1.6-5.2,3.2-7.7,4.9c0,0-0.1-0.1-0.1-0.1c0.8-0.7,1.7-1.4,2.5-2.1c-5.3,2.9-8.9,7.4-11.2,13.3
	C123.9,62,130.4,56.8,137.6,52.6z M86.9,96c0.1,0,0.2-0.1,0.3-0.1c0.5,1.9,1,3.9,1.5,5.8c1.3-3.1-1-12.1-3.6-14.5
	c0.1,3.8-0.5,7.7,1.2,11.3c-0.5-2.3-0.9-4.7-0.6-7.1c0.1,0.9,0.2,1.8,0.3,2.8c0.1,0.9,0.3,1.8,0.5,2.6c0.2,0.9,0.4,1.8,0.7,2.7
	c0.2,0.8,0.6,1.7,0.9,2.5c0,0,0.1,0,0.1,0C87.8,99.9,87.3,97.9,86.9,96z M72.6,80.8c0.1,0.1,0.3,0.1,0.4,0.2
	c1.7-3.4,3.4-6.8,5.1-10.2c-0.5,1.8-1.1,3.6-2,5.3c-0.8,1.7-1.8,3.2-2.7,4.8c0.9-0.9,1.7-1.8,2.4-2.8c1.1-1.5,1.8-3.2,2.2-5
	c0.3-1.2,0.7-2.3,1-3.4c0.3-1.1,0.6-2.2,0.9-3.5C75.9,70.3,73.8,75.2,72.6,80.8z M102,69c0.1,0.1,0.2,0.1,0.3,0.2
	c-0.9,1.3-1.8,2.6-2.7,3.8c2.6-3.4,6.1-6,7.7-10.3c-0.3,0.3-0.6,0.5-0.9,0.8c-2,1.7-4,3.4-5.9,5.3c-1.3,1.2-2.6,2.5-3.5,4
	c-0.9,1.4-1.3,3.2-1.9,4.9c0.1,0.1,0.2,0.1,0.3,0.2c1.1-1.5,2.1-3,3.2-4.5C99.7,71.9,100.9,70.5,102,69z M71.1,127.9
	c0.5-1.3,0.4-2.5-0.3-3.7c-1.7-2.9-4.2-4.9-7-6.6c0.8,1.9,1.6,3.9,2.4,5.8c0.1,0,0.1-0.1,0.2-0.1c-0.2-0.9-0.5-1.7-0.7-2.6
	c0.1-0.1,0.2-0.1,0.3-0.2C66.9,123.6,68.6,126,71.1,127.9z M104.4,55.6c1.5-2.4,2.9-4.8,4.4-7c1.5-2.1,1.2-4.6,1.3-7
	c-0.9,0.9-1.6,1.9-2.1,3.1c-1.1,2.7-2.4,5.3-3.5,8C104.2,53.5,103.7,54.4,104.4,55.6z M103.4,49.2c-2.3,3.9-4.4,9.1-3.9,12.3
	c0.1-1.1,0.2-2,0.4-3c0.2-0.9,0.3-1.8,0.6-2.7c0.3-0.8,0.7-1.6,1.1-2.4c0.1,0,0.2,0.1,0.2,0.1c-1.2,2.7-1.7,5.5-1.9,8.7
	c0.6-2.5,1.1-4.8,1.6-7.1c0.1,0,0.3,0.1,0.4,0.1c-0.6,2.9-1.2,5.7-1.9,8.8c0.4-0.4,0.7-0.6,0.8-0.8c0.7-1.4,1.4-2.7,2-4.2
	c0.5-1.3,0.3-2.6,0.3-3.9C103,53.1,103.3,51.1,103.4,49.2z M71.8,79.3c0.1,0,0.2,0,0.3,0c0.5-2.2,1.3-4.3,1.4-6.5
	c0.2-3.3,0.1-6.6,0.1-9.6c-1,3.4-2.8,6.9-2.7,11c0.2-1,0.3-2.1,0.4-3.1c0.2-1,0.5-2,0.7-3c0.1,0,0.2,0,0.2,0.1
	C71.7,71.8,71.1,75.5,71.8,79.3z M98.1,92c0,0.1,0.1,0.2,0.1,0.3c-0.8,0.7-1.6,1.3-2.4,2c-1.4,1.4-2.9,2.8-4.1,4.3
	c-1,1.2-1.8,2.6-2,4.5c1.5-2.1,2.4-4.3,4-6c0.1,0.1,0.1,0.1,0.2,0.2c-1.1,1.8-2.3,3.7-3.4,5.5c0.1,0,0.2-0.1,0.3-0.2
	c1.1-1.4,2.2-2.8,3.4-4.2c0.4-0.5,1.2-0.9,1.4-1.3C96.7,95.4,97.3,93.7,98.1,92z M74.6,70.6c0-0.1,0.1-0.2,0.1-0.3
	c0.5-1.5,0.8-3.3,1.6-4.6c1.6-2.6,1.5-5.3,1.4-8.1c0-0.1-0.1-0.1-0.4-0.4c-0.2,1-0.3,1.8-0.5,2.6c-0.3,1-0.7,2-1.1,3
	C75,65.3,74.4,67.9,74.6,70.6z M111.2,45c2.5-2,4.5-5.5,4.6-8.2c-1.3,1.6-2.6,3.3-3.9,5C111.2,42.7,111.1,43.8,111.2,45z
	 M105.5,55.8c2.2-3.2,4.4-6.4,6.6-9.6c0.1,0.1,0.2,0.1,0.3,0.2c-0.7,1.1-1.4,2.3-2.1,3.4c-0.7,1.1-1.5,2.2-2.2,3.3
	c1.3-1.2,2.3-2.7,3.5-3.9c1.4-1.4,1.2-3.2,1.8-4.9C110.1,47.7,107.7,51.7,105.5,55.8z M86,103.4c0,0,0.1,0,0.1,0
	c0.3,1.6,0.6,3.3,1,4.9c0.8-1,1.4-2,1.1-3.2c-0.5-2.1-1.6-3.8-3-5.4c0.2,1.5,0.4,3,0.7,4.7C86,104,86,103.7,86,103.4z M92.5,103.2
	c-0.1,0-0.1-0.1-0.2-0.1c-0.4,0.5-0.8,1-1.3,1.4c-1.4,1.4-2.4,3.2-3.2,5.1c-0.2,0.5-0.2,1-0.3,1.5c0.1,0,0.2,0,0.2,0.1
	c0.9-1.5,1.7-2.9,2.6-4.4c0.1,0.1,0.2,0.1,0.3,0.2c-0.4,0.8-0.8,1.7-1.2,2.5c0.1,0,0.2,0.1,0.3,0.1
	C90.7,107.4,91.6,105.3,92.5,103.2z M81.2,52.5c-1.1,2.4-2.6,4.7-2.4,7.6C80.1,59.5,81.4,55.7,81.2,52.5z M103.9,52.9
	c0.8-2.1,1.6-4.2,2.4-6.2C104.8,48.4,103.9,50.4,103.9,52.9z M86.6,122.7c0.1,0,0.1,0,0.2,0c0.3-2.9,0.5-5.8,0.8-8.7
	c-0.1,0-0.2,0-0.3,0C87,116.9,86.8,119.8,86.6,122.7z M74.4,65.6c0.5-1.7,1.1-3.3,1.7-5.2C75,62.1,74.6,63.8,74.4,65.6z M119.4,64.2
	c-0.1-0.1-0.1-0.1-0.2-0.2c-0.9,1.1-1.7,2.2-2.6,3.3c0,0,0.1,0.1,0.1,0.1C117.7,66.4,118.6,65.3,119.4,64.2z"/>
<path d="M61.7,135.4c0.1,0.2,0.1,0.3,0.2,0.5c-0.1,0.1-0.2,0.1-0.3,0.2c-1.1-1.5-2.3-2.9-3.4-4.4c0.1-0.1,0.2-0.2,0.3-0.3
	c1,1.2,1.9,2.5,2.9,3.7C61.5,135.2,61.6,135.3,61.7,135.4z"/>
<g>
</g>
<g>
</g>
<g>
</g>
<g>
</g>
<g>
</g>
<g>
</g>
</svg>
