<svg id="svg" version="1.1" xmlns="http://www.w3.org/2000/svg" xmlns:xlink="http://www.w3.org/1999/xlink" width="400" height="291.29287598944586" viewBox="0, 0, 400,291.29287598944586"><g id="svgg"><path id="path0" d="M132.696 24.237 C 127.902 28.008,123.533 49.242,125.004 61.617 C 125.950 69.574,126.619 70.608,132.802 73.662 C 139.282 76.863,143.079 79.483,148.211 84.295 C 151.089 86.993,152.039 87.392,152.688 86.179 C 153.169 85.280,152.846 79.255,152.121 75.601 C 150.187 65.853,148.816 58.225,148.970 58.070 C 150.296 56.745,154.151 66.779,156.100 76.626 C 157.664 84.527,158.738 85.017,162.304 79.456 C 163.151 78.137,165.469 74.763,167.456 71.959 C 174.315 62.281,174.530 61.611,172.212 57.185 C 165.161 43.724,152.994 31.899,139.403 25.299 C 135.440 23.374,134.069 23.157,132.696 24.237 M260.709 24.753 C 246.814 31.075,233.829 43.574,226.767 57.425 C 224.605 61.664,224.851 62.422,231.336 71.532 C 233.050 73.941,235.326 77.243,236.393 78.871 C 239.858 84.160,241.688 84.616,242.241 80.330 C 243.327 71.913,248.208 57.684,250.009 57.684 C 250.493 57.684,250.240 59.883,249.274 64.067 C 248.113 69.102,247.202 74.050,246.586 78.660 C 245.308 88.243,245.901 89.103,250.645 84.546 C 255.903 79.496,259.107 77.271,266.218 73.728 C 272.190 70.753,272.415 70.480,273.569 64.822 C 275.841 53.670,274.312 41.342,269.135 29.083 C 266.648 23.195,265.468 22.588,260.709 24.753 M198.835 39.028 C 197.903 39.409,197.198 40.341,193.867 45.594 C 190.226 51.336,178.461 69.483,171.675 79.825 C 166.655 87.475,164.496 91.305,162.473 96.147 C 152.438 120.169,158.709 148.397,177.657 164.493 C 179.691 166.220,183.258 169.479,185.584 171.734 C 191.855 177.814,193.402 178.236,195.417 174.415 C 196.195 172.940,196.215 172.776,196.308 167.083 C 196.442 158.934,196.083 157.552,193.347 155.693 L 192.260 154.955 194.120 153.151 C 196.677 150.673,196.810 150.195,196.731 143.773 C 196.591 132.277,198.320 113.328,199.510 113.328 C 200.831 113.328,202.620 132.722,202.290 143.481 C 202.207 146.205,202.258 151.777,202.404 155.863 L 202.670 163.292 203.777 165.475 C 205.143 168.165,205.331 169.968,204.687 174.196 C 203.663 180.920,204.007 180.784,214.890 170.166 C 218.273 166.866,222.836 162.473,225.030 160.405 C 240.044 146.251,245.402 122.088,238.274 100.678 C 235.695 92.933,234.036 89.849,225.210 76.410 C 216.667 63.400,214.390 59.897,207.922 49.818 C 200.783 38.694,200.493 38.350,198.835 39.028 M83.806 58.503 C 82.940 59.412,82.649 60.266,80.265 68.900 C 74.551 89.586,75.387 103.431,83.245 118.281 C 94.602 139.742,116.940 155.455,153.241 167.519 C 159.771 169.688,161.586 170.076,162.227 169.435 C 162.977 168.685,162.249 167.808,157.133 163.300 C 140.320 148.486,108.698 113.170,108.671 109.177 C 108.660 107.661,109.579 108.453,115.767 115.293 C 120.950 121.022,130.671 130.491,136.064 135.064 C 150.941 147.675,152.900 148.525,150.896 141.496 C 149.185 135.494,149.104 134.631,149.004 121.486 C 148.859 102.545,148.036 97.498,143.998 90.814 C 140.102 84.366,136.090 81.869,118.135 74.719 C 100.977 67.885,95.692 65.107,87.219 58.468 C 85.992 57.507,84.743 57.520,83.806 58.503 M312.533 58.103 C 312.095 58.331,310.639 59.375,309.296 60.424 C 306.151 62.880,300.357 66.331,295.557 68.607 C 291.812 70.384,289.704 71.255,277.203 76.188 C 259.018 83.365,254.298 87.867,251.249 100.947 L 250.434 104.443 250.271 119.155 L 250.108 133.867 248.664 139.477 C 246.544 147.710,247.170 147.887,255.370 141.372 C 265.323 133.464,277.484 122.024,285.028 113.473 C 287.733 110.407,289.695 108.680,290.059 109.044 C 290.738 109.723,288.498 113.189,283.347 119.426 C 269.475 136.225,252.617 154.124,242.530 162.766 C 232.996 170.934,234.376 171.672,249.235 166.357 C 283.801 153.992,303.493 140.127,314.769 120.217 C 323.055 105.585,324.695 90.805,319.993 73.125 C 315.927 57.837,315.333 56.642,312.533 58.103 M75.892 149.927 C 59.383 152.436,43.592 161.151,22.870 179.191 C 16.611 184.640,16.598 185.384,22.735 186.876 C 32.928 189.355,39.062 191.984,56.956 201.545 C 79.357 213.514,89.512 216.890,103.132 216.894 L 110.561 216.897 114.295 215.934 C 123.264 213.623,131.685 209.829,143.250 202.890 C 154.990 195.845,161.907 192.285,170.068 189.085 C 174.364 187.401,175.045 186.818,173.725 185.953 C 172.463 185.127,155.488 185.229,143.773 186.134 C 125.937 187.511,119.328 186.949,98.325 182.272 C 91.178 180.680,85.495 179.634,80.699 179.027 C 71.465 177.858,74.083 176.040,85.798 175.487 C 91.477 175.219,95.744 175.717,102.484 177.435 C 114.789 180.571,115.601 180.704,123.234 180.841 C 130.734 180.976,134.518 180.610,137.622 179.448 C 140.721 178.289,140.121 177.430,134.884 175.528 C 128.114 173.071,124.183 170.872,114.363 164.050 C 101.877 155.377,96.127 152.382,88.274 150.462 C 86.414 150.007,77.811 149.635,75.892 149.927 M312.454 150.151 C 304.242 151.730,298.190 154.705,286.089 163.114 C 274.913 170.881,271.142 173.023,264.242 175.528 C 257.731 177.892,258.269 179.328,266.112 180.521 C 274.383 181.779,283.095 180.899,296.642 177.439 C 303.382 175.717,307.636 175.219,313.345 175.486 C 324.202 175.993,327.611 177.939,319.301 178.885 C 315.313 179.339,307.603 180.751,300.218 182.379 C 279.315 186.988,273.191 187.502,255.353 186.143 C 243.802 185.263,228.876 185.154,227.144 185.938 C 225.008 186.904,225.936 187.780,231.507 190.055 C 236.019 191.897,244.946 196.463,250.692 199.866 C 268.369 210.338,274.701 213.318,284.797 215.921 L 288.565 216.892 295.994 216.888 C 309.492 216.881,320.438 213.255,341.879 201.687 C 359.046 192.425,365.350 189.666,374.750 187.303 C 383.303 185.153,383.279 185.007,372.978 176.433 C 354.838 161.335,342.001 154.005,328.205 150.864 C 323.598 149.815,315.993 149.471,312.454 150.151 M190.240 194.027 C 156.978 200.042,143.130 214.989,151.484 235.859 C 154.601 243.645,158.774 248.640,168.420 256.131 C 173.488 260.066,185.525 270.020,193.154 276.585 C 199.207 281.794,199.711 281.890,203.602 278.570 C 219.210 265.254,224.146 261.165,232.067 254.992 C 239.875 248.906,243.344 244.816,246.756 237.672 C 257.086 216.047,242.542 199.636,207.958 193.893 C 202.200 192.937,202.438 192.423,201.993 206.786 C 201.432 224.896,200.654 232.775,199.427 232.775 C 198.521 232.775,197.915 227.416,197.516 215.878 C 196.646 190.718,197.322 192.747,190.240 194.027 " stroke="none" fill="#2c2f3f" fill-rule="evenodd"></path><path id="path1" d="M0.000 145.666 L 0.000 291.333 200.000 291.333 L 400.000 291.333 400.000 145.666 L 400.000 0.000 200.000 0.000 L 0.000 0.000 0.000 145.666 M139.403 25.299 C 152.994 31.899,165.161 43.724,172.212 57.185 C 174.530 61.611,174.315 62.281,167.456 71.959 C 165.469 74.763,163.151 78.137,162.304 79.456 C 158.738 85.017,157.664 84.527,156.100 76.626 C 154.151 66.779,150.296 56.745,148.970 58.070 C 148.816 58.225,150.187 65.853,152.121 75.601 C 152.846 79.255,153.169 85.280,152.688 86.179 C 152.039 87.392,151.089 86.993,148.211 84.295 C 143.079 79.483,139.282 76.863,132.802 73.662 C 127.227 70.908,126.844 70.492,125.743 65.987 C 123.101 55.181,125.140 39.158,130.637 27.515 C 132.811 22.912,133.915 22.633,139.403 25.299 M266.665 24.587 C 270.924 28.846,275.372 47.980,274.483 58.219 C 273.540 69.075,272.811 70.444,266.218 73.728 C 259.107 77.271,255.903 79.496,250.645 84.546 C 245.901 89.103,245.308 88.243,246.586 78.660 C 247.202 74.050,248.113 69.102,249.274 64.067 C 250.240 59.883,250.493 57.684,250.009 57.684 C 248.208 57.684,243.327 71.913,242.241 80.330 C 241.688 84.616,239.858 84.160,236.393 78.871 C 235.326 77.243,233.050 73.941,231.336 71.532 C 224.851 62.422,224.605 61.664,226.767 57.425 C 233.829 43.574,246.814 31.075,260.709 24.753 C 264.001 23.256,265.298 23.219,266.665 24.587 M201.214 39.724 C 201.561 40.068,204.580 44.610,207.922 49.818 C 214.390 59.897,216.667 63.400,225.210 76.410 C 234.036 89.849,235.695 92.933,238.274 100.678 C 245.402 122.088,240.044 146.251,225.030 160.405 C 222.836 162.473,218.273 166.866,214.890 170.166 C 204.007 180.784,203.663 180.920,204.687 174.196 C 205.331 169.968,205.143 168.165,203.777 165.475 L 202.670 163.292 202.404 155.863 C 202.258 151.777,202.207 146.205,202.290 143.481 C 202.620 132.722,200.831 113.328,199.510 113.328 C 198.320 113.328,196.591 132.277,196.731 143.773 C 196.810 150.195,196.677 150.673,194.120 153.151 L 192.260 154.955 193.347 155.693 C 196.083 157.552,196.442 158.934,196.308 167.083 C 196.215 172.776,196.195 172.940,195.417 174.415 C 193.402 178.236,191.855 177.814,185.584 171.734 C 183.258 169.479,179.691 166.220,177.657 164.493 C 158.709 148.397,152.438 120.169,162.473 96.147 C 164.496 91.305,166.655 87.475,171.675 79.825 C 178.461 69.483,190.226 51.336,193.867 45.594 C 198.437 38.387,199.227 37.756,201.214 39.724 M87.219 58.468 C 95.692 65.107,100.977 67.885,118.135 74.719 C 146.296 85.934,148.761 89.669,149.004 121.486 C 149.104 134.631,149.185 135.494,150.896 141.496 C 152.900 148.525,150.941 147.675,136.064 135.064 C 130.671 130.491,120.950 121.022,115.767 115.293 C 109.579 108.453,108.660 107.661,108.671 109.177 C 108.698 113.170,140.320 148.486,157.133 163.300 C 162.249 167.808,162.977 168.685,162.227 169.435 C 161.586 170.076,159.771 169.688,153.241 167.519 C 113.531 154.323,89.839 136.243,80.318 111.872 C 74.723 97.551,75.173 85.985,82.266 61.805 C 83.408 57.911,85.075 56.789,87.219 58.468 M315.315 58.548 C 316.267 59.680,317.141 62.402,319.993 73.125 C 324.695 90.805,323.055 105.585,314.769 120.217 C 303.493 140.127,283.801 153.992,249.235 166.357 C 234.376 171.672,232.996 170.934,242.530 162.766 C 258.498 149.087,292.110 111.095,290.059 109.044 C 289.695 108.680,287.733 110.407,285.028 113.473 C 277.484 122.024,265.323 133.464,255.370 141.372 C 247.170 147.887,246.544 147.710,248.664 139.477 L 250.108 133.867 250.271 119.155 L 250.434 104.443 251.249 100.947 C 254.298 87.867,259.018 83.365,277.203 76.188 C 289.704 71.255,291.812 70.384,295.557 68.607 C 300.357 66.331,306.151 62.880,309.296 60.424 C 313.213 57.365,314.090 57.092,315.315 58.548 M88.274 150.462 C 96.127 152.382,101.877 155.377,114.363 164.050 C 124.183 170.872,128.114 173.071,134.884 175.528 C 140.121 177.430,140.721 178.289,137.622 179.448 C 134.518 180.610,130.734 180.976,123.234 180.841 C 115.601 180.704,114.789 180.571,102.484 177.435 C 95.744 175.717,91.477 175.219,85.798 175.487 C 74.083 176.040,71.465 177.858,80.699 179.027 C 85.495 179.634,91.178 180.680,98.325 182.272 C 119.328 186.949,125.937 187.511,143.773 186.134 C 155.488 185.229,172.463 185.127,173.725 185.953 C 175.045 186.818,174.364 187.401,170.068 189.085 C 161.907 192.285,154.990 195.845,143.250 202.890 C 131.685 209.829,123.264 213.623,114.295 215.934 L 110.561 216.897 103.132 216.894 C 89.512 216.890,79.357 213.514,56.956 201.545 C 39.062 191.984,32.928 189.355,22.735 186.876 C 16.598 185.384,16.611 184.640,22.870 179.191 C 43.592 161.151,59.383 152.436,75.892 149.927 C 77.811 149.635,86.414 150.007,88.274 150.462 M328.205 150.864 C 342.001 154.005,354.838 161.335,372.978 176.433 C 383.279 185.007,383.303 185.153,374.750 187.303 C 365.350 189.666,359.046 192.425,341.879 201.687 C 320.438 213.255,309.492 216.881,295.994 216.888 L 288.565 216.892 284.797 215.921 C 274.701 213.318,268.369 210.338,250.692 199.866 C 244.946 196.463,236.019 191.897,231.507 190.055 C 225.936 187.780,225.008 186.904,227.144 185.938 C 228.876 185.154,243.802 185.263,255.353 186.143 C 273.191 187.502,279.315 186.988,300.218 182.379 C 307.603 180.751,315.313 179.339,319.301 178.885 C 327.611 177.939,324.202 175.993,313.345 175.486 C 307.636 175.219,303.382 175.717,296.642 177.439 C 283.095 180.899,274.383 181.779,266.112 180.521 C 258.269 179.328,257.731 177.892,264.242 175.528 C 271.142 173.023,274.913 170.881,286.089 163.114 C 304.243 150.499,314.059 147.644,328.205 150.864 M196.061 194.485 C 196.869 195.279,196.736 193.325,197.516 215.878 C 197.915 227.416,198.521 232.775,199.427 232.775 C 200.654 232.775,201.432 224.896,201.993 206.786 C 202.438 192.423,202.200 192.937,207.958 193.893 C 239.176 199.077,254.085 212.811,249.006 231.708 C 246.614 240.609,241.500 247.639,232.067 254.992 C 224.146 261.165,219.210 265.254,203.602 278.570 C 199.711 281.890,199.207 281.794,193.154 276.585 C 185.525 270.020,173.488 260.066,168.420 256.131 C 158.774 248.640,154.601 243.645,151.484 235.859 C 143.130 214.989,156.978 200.042,190.240 194.027 C 193.763 193.390,195.048 193.491,196.061 194.485 " stroke="none" fill="#fbfbfb" fill-rule="evenodd"></path></g></svg>