<svg width="1080" height="1080" viewBox="0 0 1080 1080" fill="none" xmlns="http://www.w3.org/2000/svg">
<path d="M414.016 968.446L509.862 900.329V1080H574.089V901.316L663.019 966.472L540.494 591.335L414.016 968.446Z" fill="#F47421"/>
<path d="M159.085 743.364L274.694 763.108L148.216 889.47L192.681 934.881L319.158 809.507L335.956 918.099L514.803 565.668L159.085 743.364Z" fill="#EE2A7B"/>
<path d="M179.835 510.384H0V573.565H177.859L112.644 662.413L489.113 540L111.656 414.625L179.835 510.384Z" fill="#92278F"/>
<path d="M145.254 193.492L270.743 318.866L162.052 335.649L514.806 514.333L336.947 158.94L317.185 274.442L190.707 148.08L145.254 193.492Z" fill="#2B3990"/>
<path d="M506.897 0V178.684L417.967 113.528L540.493 488.665L665.982 111.554L570.136 179.671V0H506.897Z" fill="#0099BD"/>
<path d="M761.828 270.493L745.03 161.901L566.183 514.332L921.901 336.635L806.293 316.891L932.77 190.529L887.317 145.118L761.828 270.493Z" fill="#1F8A71"/>
<path d="M591.875 540L968.344 665.375L901.152 569.616H1080V506.436H902.141L967.356 417.587L591.875 540Z" fill="#BED73C"/>
<path d="M744.042 921.061L763.804 805.558L890.282 931.92L935.735 886.508L809.257 761.134L917.949 744.351L566.183 565.668L744.042 921.061Z" fill="#FEE110"/>
</svg>
