<?xml version="1.0" standalone="no"?>
<!DOCTYPE svg PUBLIC "-//W3C//DTD SVG 20010904//EN"
 "http://www.w3.org/TR/2001/REC-SVG-20010904/DTD/svg10.dtd">
<svg version="1.0" xmlns="http://www.w3.org/2000/svg"
 width="2480.000000pt" height="3508.000000pt" viewBox="0 0 2480.000000 3508.000000"
 preserveAspectRatio="xMidYMid meet">

<g transform="translate(0.000000,3508.000000) scale(0.100000,-0.100000)"
fill="#000000" stroke="none">
<path d="M10330 28759 c-946 -8 -1467 -30 -1598 -70 -59 -17 -54 -7 -123 -284
-16 -66 -36 -145 -44 -175 -8 -30 -31 -122 -50 -205 -20 -82 -45 -186 -55
-230 -11 -44 -36 -147 -55 -230 -20 -82 -45 -188 -56 -235 -22 -90 -60 -252
-85 -360 -8 -36 -21 -90 -29 -120 -15 -60 -30 -126 -70 -300 -15 -63 -33 -140
-40 -170 -15 -58 -35 -143 -59 -250 -8 -36 -26 -112 -40 -170 -34 -148 -75
-324 -92 -400 -8 -36 -21 -90 -28 -120 -8 -30 -21 -86 -30 -125 -21 -91 -74
-319 -86 -370 -16 -68 -69 -297 -80 -350 -13 -60 -35 -156 -95 -410 -14 -60
-33 -139 -41 -175 -8 -36 -26 -114 -40 -175 -40 -176 -52 -225 -69 -305 -9
-41 -22 -100 -30 -130 -8 -30 -21 -89 -30 -130 -15 -68 -28 -125 -54 -245 -5
-22 -16 -69 -25 -105 -8 -36 -22 -96 -31 -135 -8 -38 -20 -88 -25 -110 -5 -22
-16 -74 -25 -115 -17 -76 -34 -151 -60 -262 -8 -35 -24 -108 -36 -163 -12 -55
-25 -116 -29 -135 -5 -19 -15 -66 -23 -105 -8 -38 -25 -115 -36 -170 -12 -55
-26 -127 -32 -159 -15 -86 -21 -94 -81 -100 -186 -17 -719 -36 -1903 -66 -696
-17 -1206 -59 -1555 -126 -271 -53 -496 -137 -660 -247 -203 -137 -329 -279
-558 -626 -169 -258 -241 -405 -258 -536 -4 -25 -11 -45 -16 -45 -5 0 -8 -92
-8 -210 1 -115 5 -210 10 -210 4 0 11 -30 15 -67 3 -38 11 -86 15 -108 5 -22
16 -78 25 -125 26 -139 116 -495 179 -705 14 -44 38 -127 56 -185 17 -58 37
-123 44 -145 7 -22 21 -65 30 -95 29 -100 95 -301 202 -620 58 -173 109 -328
114 -345 4 -16 47 -142 94 -280 48 -137 97 -281 111 -320 21 -64 124 -358 196
-565 17 -47 34 -98 39 -115 5 -16 25 -75 45 -130 82 -224 95 -262 95 -278 0
-9 4 -18 9 -22 5 -3 13 -20 17 -37 3 -18 10 -39 15 -48 4 -8 31 -82 60 -165
28 -82 76 -220 106 -305 66 -188 123 -349 158 -450 14 -41 30 -84 35 -95 5
-11 18 -49 31 -85 26 -78 93 -269 113 -325 35 -97 109 -305 127 -360 11 -33
25 -69 30 -80 5 -11 21 -54 34 -95 48 -142 74 -215 105 -300 17 -47 42 -116
55 -155 46 -135 76 -220 85 -240 4 -11 15 -40 24 -65 19 -58 93 -265 111 -310
8 -19 37 -98 65 -175 29 -77 61 -162 72 -190 31 -76 71 -172 106 -255 167
-398 350 -664 476 -696 14 -3 26 -10 26 -15 0 -5 11 -9 25 -9 14 0 25 4 25 9
0 5 14 11 32 15 17 3 50 22 74 41 39 32 47 46 78 144 44 136 145 495 166 591
4 19 29 116 55 215 26 99 51 196 55 215 4 19 31 130 59 245 29 116 70 284 92
375 22 91 58 239 80 330 42 173 60 252 85 360 9 36 22 90 29 120 8 30 21 87
30 125 20 92 31 137 49 215 9 36 29 124 46 195 17 72 35 148 40 170 5 22 17
72 25 110 9 39 23 99 31 135 29 120 74 317 110 480 8 36 22 94 30 130 9 36 19
83 24 105 9 39 24 106 54 235 9 36 34 148 56 250 23 102 47 212 55 245 8 33
22 94 31 135 20 95 42 194 54 245 5 22 23 103 40 180 29 130 47 212 70 310 5
22 16 74 25 115 23 111 45 210 55 255 11 50 37 169 55 255 28 130 46 216 56
255 5 22 14 63 19 90 5 28 17 82 25 120 9 39 20 90 25 115 5 25 23 110 40 190
48 226 61 292 70 335 4 22 22 110 40 195 18 85 36 173 40 195 32 174 33 177
57 186 29 11 524 26 1258 39 308 5 792 14 1075 20 283 5 796 10 1138 10 343 0
627 2 632 5 4 3 264 5 576 5 313 0 1030 4 1594 10 1072 10 3663 35 5015 48
l790 7 60 33 c52 28 157 78 405 194 220 103 615 296 695 340 705 388 1291 888
1766 1504 62 81 223 313 276 399 45 74 138 234 178 310 27 50 52 97 57 105 8
14 76 163 103 225 7 17 32 77 55 135 23 58 48 120 56 138 8 18 14 39 14 47 0
8 6 29 14 47 74 172 174 607 207 901 7 59 16 107 20 107 5 0 9 7 9 15 0 8 -4
15 -10 15 -5 0 -10 7 -10 15 0 8 5 15 10 15 16 0 13 577 -2 583 -10 4 -9 8 2
16 8 6 10 11 4 11 -8 0 -14 31 -19 83 -3 45 -13 118 -21 162 -8 44 -19 107
-25 140 -20 105 -90 362 -117 428 -7 16 -12 33 -12 38 0 5 -4 17 -9 27 -5 9
-17 37 -26 62 -60 153 -132 302 -207 425 -10 17 -21 37 -25 45 -10 22 -129
195 -182 265 -171 227 -416 464 -656 637 -96 68 -250 170 -275 182 -8 3 -31
16 -50 27 -35 22 -108 61 -270 147 -47 24 -107 57 -135 72 -27 15 -105 55
-172 90 l-122 62 -330 6 c-261 4 -331 2 -331 -8 0 -6 19 -47 43 -89 105 -187
170 -337 249 -581 23 -69 46 -128 52 -132 6 -4 88 -8 181 -8 l170 0 90 -62
c50 -34 153 -104 230 -156 267 -181 391 -279 510 -403 384 -401 565 -765 647
-1293 19 -123 21 -183 21 -466 1 -367 -13 -508 -81 -820 -42 -195 -60 -263
-111 -418 -94 -283 -200 -499 -391 -797 -143 -222 -435 -570 -676 -805 -334
-324 -647 -562 -1054 -800 -27 -16 -252 -127 -430 -213 -96 -46 -227 -110
-292 -141 l-116 -56 -479 0 c-263 0 -986 -4 -1608 -10 -621 -5 -1940 -17
-2930 -25 -990 -8 -2241 -19 -2780 -24 -751 -7 -983 -6 -993 3 -13 12 -13 12
21 171 8 39 34 162 57 275 45 219 51 246 100 470 18 80 36 163 41 185 4 22 18
83 29 135 12 52 30 136 41 185 10 50 23 108 28 130 38 162 42 180 96 430 14
66 32 147 40 180 13 56 58 258 91 405 8 36 19 83 24 105 5 22 16 74 25 115 18
84 41 185 55 245 5 22 16 74 25 115 9 41 23 104 31 140 24 101 32 135 64 285
17 77 37 167 45 200 8 33 26 114 40 180 14 66 32 147 39 180 8 33 22 96 31
140 10 44 23 107 31 140 7 33 21 94 30 135 9 41 27 122 40 180 13 58 28 125
34 150 5 25 16 74 24 110 8 36 22 101 31 145 10 44 21 94 27 111 5 18 13 54
17 80 5 27 16 81 25 119 9 39 21 90 26 115 10 48 25 115 60 270 12 52 32 145
46 205 13 61 31 142 39 180 9 39 20 90 25 115 5 25 14 61 20 80 5 19 10 46 10
60 0 14 8 41 18 60 l17 35 65 -2 c92 -3 1134 -12 2755 -23 765 -5 1813 -14
2330 -20 517 -5 1258 -11 1648 -12 685 -3 707 -2 707 16 0 22 -109 252 -153
321 -82 129 -266 364 -347 440 l-31 30 -1107 12 c-1471 16 -5226 18 -5551 3
-706 -32 -829 -43 -878 -82 -12 -10 -40 -99 -68 -218 -10 -41 -23 -95 -30
-120 -7 -25 -18 -65 -24 -90 -6 -25 -28 -119 -50 -210 -22 -91 -54 -223 -71
-295 -17 -71 -42 -175 -55 -230 -13 -55 -38 -158 -55 -230 -17 -71 -37 -157
-45 -190 -38 -157 -76 -320 -100 -425 -14 -63 -32 -140 -40 -170 -8 -30 -21
-86 -30 -125 -23 -102 -34 -153 -50 -215 -16 -65 -52 -221 -95 -410 -17 -74
-37 -160 -45 -190 -7 -30 -25 -107 -40 -170 -38 -171 -52 -228 -69 -300 -19
-80 -54 -231 -96 -415 -18 -77 -43 -187 -57 -245 -13 -58 -30 -132 -38 -165
-7 -33 -25 -112 -40 -175 -15 -63 -33 -144 -41 -180 -8 -36 -21 -94 -30 -130
-8 -36 -21 -92 -29 -125 -7 -33 -21 -91 -30 -130 -9 -38 -20 -88 -25 -110 -5
-22 -15 -69 -24 -105 -8 -36 -29 -128 -46 -205 -17 -77 -38 -169 -46 -205 -8
-36 -19 -83 -23 -105 -13 -57 -38 -165 -55 -238 -9 -34 -25 -107 -37 -162 -11
-55 -28 -129 -36 -165 -8 -36 -19 -83 -23 -105 -4 -22 -22 -105 -40 -185 -47
-215 -59 -269 -70 -335 -21 -117 -24 -123 -83 -129 -149 -14 -1155 -52 -1637
-61 -146 -3 -362 -9 -480 -12 -258 -9 -371 -9 -466 2 -118 13 -274 -31 -349
-96 -47 -41 -69 -82 -88 -159 -58 -237 -154 -656 -177 -773 -5 -27 -12 -53
-15 -58 -4 -5 -10 -30 -15 -57 -4 -26 -22 -110 -40 -187 -18 -77 -39 -169 -47
-205 -21 -93 -29 -126 -48 -210 -9 -41 -21 -95 -26 -120 -5 -25 -13 -61 -18
-80 -5 -19 -17 -69 -26 -110 -8 -41 -22 -102 -30 -135 -8 -33 -32 -143 -55
-245 -22 -102 -47 -214 -56 -250 -19 -80 -29 -125 -49 -215 -9 -38 -22 -97
-30 -130 -7 -33 -16 -73 -19 -90 -3 -16 -15 -70 -26 -120 -18 -77 -51 -225
-80 -355 -28 -131 -62 -281 -70 -315 -5 -22 -16 -74 -25 -115 -9 -41 -23 -102
-31 -135 -7 -33 -30 -134 -50 -225 -20 -91 -40 -181 -44 -200 -5 -19 -15 -66
-24 -105 -9 -38 -23 -101 -31 -140 -8 -38 -26 -119 -40 -180 -31 -134 -63
-276 -75 -330 -5 -22 -16 -71 -25 -110 -9 -38 -20 -88 -24 -110 -13 -61 -109
-472 -126 -535 -7 -30 -26 -102 -40 -160 -70 -278 -130 -464 -170 -525 -37
-58 -77 -85 -103 -68 -17 10 -119 203 -156 293 -10 25 -29 69 -42 98 -13 29
-24 55 -24 58 0 3 -7 22 -16 42 -24 55 -31 72 -54 132 -12 30 -26 64 -31 75
-18 43 -109 277 -135 348 -21 55 -45 118 -59 152 -7 17 -31 82 -55 145 -23 63
-46 124 -51 135 -4 11 -25 65 -45 120 -20 55 -50 136 -66 180 -16 44 -33 91
-38 105 -5 14 -18 50 -30 80 -11 30 -30 82 -41 115 -10 33 -24 68 -29 77 -6
10 -10 23 -10 29 0 6 -6 25 -14 42 -8 18 -16 41 -19 52 -3 11 -19 57 -36 103
-17 45 -45 119 -62 165 -17 45 -34 96 -39 112 -5 17 -23 68 -40 115 -18 47
-36 99 -41 115 -5 17 -13 39 -17 50 -10 21 -19 48 -57 160 -13 39 -56 162 -95
275 -40 113 -82 237 -95 275 -13 39 -56 162 -95 275 -63 182 -180 533 -290
870 -21 63 -63 196 -94 295 -31 99 -63 198 -70 220 -7 22 -21 67 -31 100 -10
33 -28 92 -40 130 -53 173 -101 335 -114 390 -5 22 -19 78 -30 125 -12 47 -25
104 -31 128 -34 143 32 519 124 715 14 29 26 56 26 59 0 25 99 174 145 217 49
46 181 121 214 121 6 0 25 6 43 14 74 32 390 85 598 102 47 3 99 8 115 9 31 3
57 5 520 30 531 28 1811 52 3500 65 1317 10 1505 13 1524 24 6 4 11 15 11 25
0 10 7 32 15 47 8 16 15 48 15 71 0 23 5 45 10 48 6 3 10 28 10 54 0 26 7 56
15 67 8 10 15 37 15 59 0 22 7 51 15 65 8 14 15 43 15 65 0 22 7 51 15 65 8
14 14 43 15 66 0 22 4 44 9 50 5 5 11 34 13 64 l3 55 -425 0 c-234 0 -674 -1
-978 -3 -305 -2 -557 -1 -560 3 -3 3 7 67 22 143 16 75 35 171 43 212 35 177
79 385 134 630 17 74 37 167 45 205 9 39 19 88 24 110 5 22 16 74 25 115 9 41
20 91 25 110 5 19 16 67 24 105 8 39 27 124 41 190 15 66 30 136 35 155 37
171 62 281 70 315 5 22 24 103 40 180 29 129 46 206 70 310 5 22 16 74 25 115
9 41 23 102 30 135 8 33 33 143 55 245 23 102 47 212 55 245 20 81 86 380 95
430 4 22 18 83 30 135 12 52 33 147 46 210 13 63 33 153 44 200 11 47 24 105
30 130 5 25 16 74 24 110 8 36 27 119 42 185 26 118 35 159 74 340 19 90 29
135 70 315 12 52 30 136 41 185 10 50 23 108 28 130 6 22 17 74 26 115 9 41
22 102 30 135 7 33 21 94 30 135 33 159 38 177 54 230 l16 55 115 -2 c135 -3
2112 -19 4065 -33 759 -5 2114 -17 3010 -25 897 -9 1673 -15 1726 -15 l96 0
81 -57 c45 -32 145 -101 222 -153 243 -164 341 -240 459 -354 480 -467 683
-905 731 -1582 13 -178 13 -305 0 -475 -12 -149 -37 -362 -50 -424 -5 -22 -16
-78 -25 -125 -18 -97 -20 -103 -82 -330 -28 -102 -87 -263 -147 -405 -281
-661 -988 -1454 -1732 -1941 -66 -43 -129 -85 -140 -92 -10 -6 -26 -15 -34
-19 -8 -4 -42 -23 -75 -43 -81 -48 -723 -364 -830 -408 -49 -20 -73 -21 -1030
-26 -1859 -11 -3639 -25 -4132 -32 l-494 -7 -15 -28 c-7 -15 -14 -47 -14 -71
0 -24 -7 -52 -15 -62 -8 -11 -15 -38 -15 -61 0 -23 -4 -45 -9 -51 -6 -5 -11
-29 -12 -54 -1 -25 -8 -55 -15 -67 -8 -12 -14 -38 -14 -56 0 -19 -7 -51 -15
-70 -8 -20 -15 -53 -15 -74 0 -21 -7 -47 -15 -57 -8 -11 -15 -41 -15 -66 0
-25 -5 -51 -11 -57 -7 -7 -9 -19 -5 -29 6 -16 24 -17 234 -10 125 3 421 6 657
6 237 0 1080 7 1875 15 795 9 1810 19 2255 23 l810 7 60 32 c65 34 266 130
355 170 173 78 740 358 815 403 28 16 57 33 65 37 28 12 275 167 355 222 617
422 1149 965 1521 1552 43 69 85 134 92 145 6 10 15 26 19 34 4 8 23 42 42 75
20 33 47 80 59 105 13 25 27 52 32 60 9 14 82 168 128 270 122 273 236 634
298 945 88 443 99 942 30 1375 -23 145 -90 424 -106 445 -4 6 -10 24 -13 40
-5 33 -57 175 -88 245 -41 90 -48 106 -89 190 -176 356 -436 691 -741 952
-120 103 -383 295 -439 321 -8 4 -28 16 -45 26 -16 11 -61 36 -100 57 -38 20
-95 50 -125 67 -30 16 -104 56 -165 88 -60 32 -135 71 -165 87 -30 16 -89 47
-130 68 l-75 39 -660 2 c-363 2 -1411 9 -2330 18 -1968 17 -3761 22 -4895 14z"/>
</g>
</svg>
