<svg version="1.1" id="Livello_1" xmlns="http://www.w3.org/2000/svg" xmlns:xlink="http://www.w3.org/1999/xlink" x="0px" y="0px"
	 width="300px" height="100px" viewBox="0 0 300 100" enable-background="new 0 0 300 100" xml:space="preserve">
<g>
	<path fill-rule="evenodd" clip-rule="evenodd" fill="#D2232A" d="M139.845,40.697c-0.642,0.553-1.43,1.003-1.903,1.675
		c-5.613,7.978-11.202,15.972-16.727,24.01c-0.77,1.12-1.548,1.633-2.92,1.54c-1.79-0.121-3.594-0.029-5.715-0.029
		c2.527-9.023,4.993-17.825,7.458-26.628c-0.223-0.141-0.445-0.281-0.668-0.423c-0.782,0.802-1.659,1.531-2.33,2.417
		c-5.486,7.247-11.021,14.46-16.337,21.831c-1.534,2.128-3.124,3.258-5.738,2.821c-0.707-0.117-1.449-0.016-2.485-0.016
		c2.48-8.764,4.89-17.277,7.385-26.092c-0.856-0.042-1.481-0.1-2.105-0.1c-10.095-0.005-20.19-0.008-30.286,0.001
		c-3.784,0.003-4.402,0.402-5.686,4.039c-1.236,3.499-2.073,7.068-0.852,10.768c0.828,2.507,2.085,3.375,4.746,3.475
		c3.624,0.138,6.717-1.072,8.533-4.225c1.914-3.325,3.465-6.873,4.976-10.408c0.477-1.114,0.914-1.558,2.112-1.501
		c1.994,0.092,3.996,0.024,6.293,0.024c-0.338,1.204-0.52,2.238-0.914,3.184c-1.561,3.749-2.83,7.682-4.87,11.156
		c-3.755,6.397-9.559,9.686-17.098,9.679c-12.903-0.011-25.816-0.321-38.706,0.096c-10.634,0.347-12.795-6.064-11.345-13.921
		c0.628-3.399,1.755-6.705,2.652-10.054c0.185-0.69,0.354-1.384,0.61-2.385c-3.133,0-6.029,0-9.256,0
		c0.715-2.621,1.277-4.933,2.025-7.183c0.131-0.397,1.03-0.736,1.59-0.761c2.135-0.091,4.279-0.089,6.416-0.028
		c1.199,0.034,1.768-0.411,2.083-1.592c1.185-4.449,2.507-8.861,3.691-13.31c0.336-1.265,0.78-1.929,2.261-1.814
		c1.979,0.154,3.979,0.038,6.199,0.038c-1.557,5.535-3.052,10.85-4.644,16.506c5.398,0,10.616,0,16.253,0
		c-0.774,2.788-1.379,5.205-2.174,7.559c-0.119,0.354-1.126,0.567-1.726,0.575c-4.278,0.047-8.558,0.078-12.835-0.007
		c-1.382-0.027-1.965,0.366-2.307,1.77c-0.967,3.954-2.193,7.842-3.215,11.783c-0.759,2.929,0.628,4.829,3.582,4.847
		c8.691,0.055,17.382,0.024,26.074,0.02c0.319,0,0.638-0.088,0.583-0.079c0-2.857-0.387-5.632,0.091-8.247
		c0.69-3.774,1.636-7.594,3.156-11.096c1.799-4.144,5.5-6.316,9.986-6.74c2.918-0.275,5.876-0.174,8.817-0.179
		c10.897-0.017,21.795-0.006,32.693-0.006c0.791,0,1.583,0,2.724,0c-0.897,3.333-1.726,6.415-2.556,9.496
		c0.128,0.062,0.257,0.123,0.385,0.185c1.29-1.678,2.531-3.396,3.878-5.026c2.402-2.907,5.161-5.255,9.217-5.328
		c3.999-0.071,6.265,1.849,6.68,5.875c0.182,1.765,0.031,3.566,0.031,5.425c1.108-1.588,2.254-3.276,3.447-4.93
		c1.74-2.414,3.697-4.614,6.612-5.617c1.118-0.383,2.32-0.678,3.493-0.722c4.455-0.167,7.298,2.286,7.138,6.722
		c-0.114,3.146-1.03,6.277-1.709,9.388c-0.525,2.405-1.402,4.739-1.824,7.157c-0.407,2.334,0.531,3.454,2.894,3.578
		c3.067,0.161,6.148,0.131,9.222,0.056c0.413-0.01,1.05-0.693,1.175-1.174c0.986-3.739,1.804-7.523,2.818-11.257
		c0.486-1.794,1.26-3.513,1.943-5.251c2.379-6.038,6.572-9.003,13.307-8.646c6.398,0.34,12.832,0.071,19.249,0.069
		c0.721,0,1.441,0,2.531,0c-0.561,2.137-1.015,3.979-1.53,5.805c-1.665,5.908-3.357,11.809-5.029,17.716
		c-0.731,2.582-0.57,2.792,2.039,2.795c3.142,0.004,6.291-0.135,9.423,0.052c2.082,0.124,3.365-0.689,4.488-2.311
		c4.529-6.535,9.122-13.029,13.693-19.534c3.068-4.364,6.141-8.723,9.288-13.192c2.22,1.04,4.305,2.017,6.619,3.103
		c-1.335,1.911-2.491,3.688-3.774,5.368c-1.249,1.631-1.406,3.219-0.346,4.997c1.642,2.751,3.226,5.538,4.822,8.317
		c2.241,3.904,2.327,7.854,0.236,11.852c-0.175,0.332-0.257,0.711-0.438,1.233c4.544,0,8.918,0,13.375,0
		c2.405-8.587,4.841-17.118,7.154-25.682c0.439-1.626,1.101-2.335,2.84-2.185c1.779,0.154,3.581,0.034,5.75,0.034
		c-2.632,9.35-5.182,18.406-7.833,27.823c11.563,0,22.747,0,34.334,0c-0.812,2.885-1.52,5.401-2.235,7.946
		c-25.007,0-49.868,0-75.131,0c1.197-2.556,2.263-4.961,3.474-7.29c0.183-0.352,1.027-0.447,1.578-0.5
		c2.056-0.202,4.155-0.145,6.17-0.533c3.647-0.704,5.255-4.011,3.81-7.487c-0.307-0.738-0.654-1.469-1.071-2.149
		c-1.148-1.873-2.342-3.715-3.72-5.887c-0.99,1.356-1.853,2.496-2.674,3.666c-3.225,4.594-6.365,9.25-9.688,13.772
		c-1.247,1.698-2.693,3.428-4.435,4.539c-1.652,1.057-3.784,1.729-5.75,1.85c-4.329,0.268-8.686,0.103-13.032,0.073
		c-4.928-0.034-7.418-2.557-7.279-7.494c0.048-1.765,0.422-3.521,0.667-5.43c-2.497,2.444-4.978,4.665-7.216,7.109
		c-3.801,4.152-8.277,6.234-14.03,5.89c-4.995-0.3-10.024-0.037-15.039-0.078c-7.641-0.064-11.662-4.651-10.365-12.206
		c0.719-4.192,2.039-8.28,3.069-12.419c0.17-0.679,0.243-1.382,0.361-2.075C140.279,41.016,140.062,40.856,139.845,40.697z
		 M186.179,41.747c-4.989,0-9.577-0.042-14.161,0.057c-0.541,0.012-1.384,0.701-1.548,1.24c-1.522,5.035-2.946,10.1-4.337,15.173
		c-0.121,0.436,0.035,1.257,0.333,1.425c0.421,0.237,1.24,0.247,1.628-0.021c1.086-0.756,2.096-1.648,3.035-2.587
		c4.576-4.574,9.123-9.179,13.676-13.777C185.216,42.841,185.594,42.393,186.179,41.747z"/>
	<path fill-rule="evenodd" clip-rule="evenodd" fill="#D2232A" d="M257.173,25.172c-0.018-3.758,2.658-6.551,6.314-6.593
		c3.789-0.044,6.526,2.715,6.523,6.573c-0.006,3.607-2.686,6.324-6.303,6.388C260.026,31.603,257.189,28.839,257.173,25.172z"/>
	<path fill-rule="evenodd" clip-rule="evenodd" fill="#D2232A" d="M281.603,83.647c-3.763-0.03-6.092-2.118-6.06-5.428
		c0.031-3.239,2.538-5.4,6.203-5.349c3.613,0.053,6.051,2.336,5.979,5.596C287.656,81.627,285.23,83.679,281.603,83.647z
		 M281.589,73.918c-2.728,0.018-4.771,1.88-4.781,4.356c-0.012,2.535,2.172,4.479,4.95,4.411c2.67-0.065,4.768-2.065,4.699-4.479
		C286.387,75.752,284.286,73.9,281.589,73.918z"/>
	<path fill-rule="evenodd" clip-rule="evenodd" fill="#D2232A" d="M220.132,83.779c-0.417-0.415-1.075-0.763-1.208-1.254
		c-0.75-2.749-2.954-1.508-4.605-1.793c-1.593-0.273-2.017,0.795-2.478,1.972c-0.172,0.437-0.719,0.726-1.092,1.081
		c-0.113-0.138-0.226-0.273-0.34-0.411c1.334-3.109,2.62-6.241,4.046-9.309c0.222-0.478,1.073-0.664,1.644-0.99
		c1.604,3.633,3.069,6.949,4.537,10.265C220.469,83.484,220.3,83.632,220.132,83.779z M217.641,79.767
		c-0.762-1.755-1.391-3.2-2.233-5.137c-0.873,2.014-1.502,3.459-2.229,5.137C214.838,79.767,216.015,79.767,217.641,79.767z"/>
	<path fill-rule="evenodd" clip-rule="evenodd" fill="#D2232A" d="M233.116,73.196c0.444,0,0.833,0,1.285,0
		c0,0.241,0.001,0.426-0.002,0.61c-0.02,2.13-0.114,4.264-0.038,6.391c0.062,1.806,1.242,2.555,3.583,2.484
		c2.389-0.071,3.227-0.672,3.278-2.542c0.062-2.258,0.015-4.52,0.015-7.408c0.543,0.585,1.083,0.894,1.091,1.217
		c0.054,2.131-0.027,4.265-0.025,6.396c0.004,1.958-1.05,2.934-2.883,3.176c-0.788,0.104-1.598,0.126-2.393,0.09
		c-3.017-0.141-3.894-1.057-3.908-4.037C233.108,77.512,233.116,75.451,233.116,73.196z"/>
	<path fill-rule="evenodd" clip-rule="evenodd" fill="#D2232A" d="M264.331,73.312c-0.021,0.375-0.042,0.75-0.062,1.106
		c-1.42,0-2.734,0-4.198,0c0,3.059,0,6.036,0,9.014c-0.205,0.109-0.409,0.218-0.613,0.326c-0.248-0.393-0.694-0.78-0.71-1.182
		c-0.066-1.803-0.003-3.607,0-5.412c0.005-2.919,0-2.899-2.977-2.848c-0.461,0.008-0.924-0.275-1.386-0.425
		c0.056-0.194,0.115-0.386,0.174-0.58C257.741,73.312,260.923,73.312,264.331,73.312z"/>
</g>
</svg>
