<svg xmlns="http://www.w3.org/2000/svg" width="1536" height="2048" viewBox="0 0 1536 2048" version="1.1">
	<path d="M 0 1024.034 L 0 2048.068 10.750 2047.784 L 21.500 2047.500 21.046 2043.500 C 20.324 2037.140, 20.576 2033.728, 22.015 2030.357 C 23.178 2027.634, 23.147 2027.004, 21.779 2025.636 C 20.910 2024.768, 20.200 2022.439, 20.200 2020.462 C 20.200 2018.485, 19.959 2016.625, 19.664 2016.331 C 19.369 2016.036, 19.549 2014.686, 20.064 2013.332 C 20.653 2011.783, 20.642 2010.200, 20.035 2009.066 C 19.505 2008.074, 19.392 2006.940, 19.785 2006.546 C 20.178 2006.151, 20.569 2004.405, 20.653 2002.664 C 20.737 2000.924, 20.962 1998.600, 21.153 1997.500 C 21.345 1996.392, 20.991 1995.595, 20.360 1995.713 C 19.732 1995.831, 19.002 1994.792, 18.737 1993.405 C 18.428 1991.786, 18.659 1991.039, 19.384 1991.317 C 20.593 1991.781, 21.007 1984.317, 19.873 1982.500 C 19.530 1981.950, 19.410 1979.925, 19.607 1978 C 19.804 1976.075, 20.007 1971.693, 20.058 1968.263 C 20.108 1964.832, 20.566 1961.768, 21.075 1961.454 C 21.584 1961.139, 22 1962.060, 22 1963.500 C 22 1964.940, 22.416 1965.861, 22.924 1965.547 C 23.433 1965.233, 24.055 1965.769, 24.308 1966.738 C 24.655 1968.068, 24.796 1967.944, 24.884 1966.231 C 24.981 1964.327, 25.402 1964.063, 27.500 1964.589 C 29.391 1965.064, 30 1964.825, 30 1963.608 C 30 1962.724, 29.531 1962, 28.958 1962 C 26.875 1962, 25.407 1959.584, 25.813 1956.824 C 26.180 1954.322, 27.400 1953.486, 30.154 1953.850 C 30.514 1953.897, 31.414 1953.189, 32.154 1952.276 C 32.916 1951.336, 32.995 1950.919, 32.335 1951.314 C 31.695 1951.698, 30.907 1951.447, 30.585 1950.756 C 30.118 1949.753, 29.882 1949.752, 29.417 1950.750 C 28.549 1952.610, 27.302 1952.264, 26.710 1950 C 26.423 1948.900, 26.595 1948, 27.094 1948 C 27.592 1948, 28 1946.248, 28 1944.107 C 28 1940.028, 25.469 1937.657, 23.845 1940.216 C 23.314 1941.054, 22.991 1940.458, 22.916 1938.500 C 22.805 1935.614, 22.774 1935.595, 22.108 1937.990 C 21.291 1940.925, 20.147 1939.590, 20.403 1936 C 20.501 1934.625, 21.125 1933.612, 21.791 1933.750 C 23.384 1934.079, 23.318 1933.461, 21.573 1931.716 C 20.517 1930.660, 20.360 1929.339, 20.967 1926.644 C 21.439 1924.555, 21.408 1923, 20.895 1923 C 20.403 1923, 20 1923.675, 20 1924.500 C 20 1925.325, 19.545 1926, 18.988 1926 C 17.922 1926, 18.707 1918.325, 19.960 1916.500 C 20.337 1915.950, 20.495 1913.025, 20.311 1910 C 20.127 1906.975, 19.963 1903.263, 19.948 1901.750 C 19.932 1900.237, 19.488 1899, 18.960 1899 C 18.432 1899, 18.007 1898.213, 18.015 1897.250 C 18.028 1895.747, 18.174 1895.712, 19.046 1897 C 19.799 1898.113, 19.896 1897.790, 19.422 1895.750 C 18.967 1893.792, 19.175 1892.991, 20.142 1892.968 C 21.213 1892.943, 21.183 1892.679, 20 1891.718 C 18.029 1890.117, 18.125 1879.210, 20.123 1877.812 C 21.188 1877.066, 21.217 1876.733, 20.250 1876.341 C 18.626 1875.681, 18.626 1873.005, 20.250 1872.985 C 21.024 1872.975, 21.119 1872.690, 20.500 1872.235 C 18.889 1871.051, 18.609 1864.006, 20.172 1863.968 C 21.089 1863.946, 20.969 1863.533, 19.785 1862.633 C 18.830 1861.908, 18.440 1860.925, 18.906 1860.415 C 20.309 1858.879, 21.136 1854, 19.993 1854 C 19.293 1854, 19.084 1848.641, 19.359 1837.750 C 19.598 1828.270, 19.371 1821.006, 18.815 1820.314 C 18.204 1819.554, 18.248 1818.405, 18.938 1817.116 C 19.532 1816.007, 19.983 1810.254, 19.943 1804.302 C 19.869 1793.088, 20.365 1786.836, 21.472 1785.045 C 21.828 1784.470, 21.641 1784, 21.059 1784 C 20.477 1784, 20 1784.525, 20 1785.167 C 20 1785.808, 19.711 1786.044, 19.357 1785.691 C 19.004 1785.337, 19.157 1784.475, 19.698 1783.774 C 20.239 1783.073, 20.481 1780.700, 20.236 1778.500 C 19.679 1773.501, 19.672 1773.039, 19.957 1758.808 C 20.085 1752.378, 19.921 1746.681, 19.592 1746.148 C 18.699 1744.704, 20.013 1742, 21.607 1742 C 23.333 1742, 23.397 1740.797, 21.758 1739.158 C 20.770 1738.170, 20.796 1737.744, 21.886 1737.070 C 22.759 1736.531, 22.942 1735.730, 22.391 1734.862 C 21.915 1734.113, 21.443 1731.779, 21.341 1729.676 C 21.240 1727.573, 20.890 1725.157, 20.564 1724.306 C 20.117 1723.141, 20.468 1722.889, 21.985 1723.286 C 24.432 1723.926, 24.465 1723.640, 22.321 1720.367 C 20.971 1718.307, 20.875 1717.430, 21.829 1715.902 C 22.554 1714.742, 22.624 1714, 22.008 1714 C 21.454 1714, 21 1713.550, 21 1713 C 21 1712.450, 21.563 1711.996, 22.250 1711.992 C 22.938 1711.988, 24.039 1710.824, 24.697 1709.406 C 25.728 1707.183, 25.677 1706.910, 24.327 1707.428 C 23.108 1707.896, 22.864 1707.493, 23.225 1705.606 C 23.569 1703.803, 23.321 1703.323, 22.256 1703.732 C 21.209 1704.134, 20.921 1703.639, 21.186 1701.891 C 21.385 1700.576, 22.099 1699.612, 22.774 1699.750 C 24.302 1700.062, 24.390 1698.359, 22.893 1697.434 C 22.122 1696.957, 22.197 1696.490, 23.143 1695.890 C 24.200 1695.221, 24.113 1695.027, 22.750 1695.015 C 20.331 1694.994, 20.292 1688.496, 22.703 1687.146 C 23.984 1686.429, 24.134 1685.860, 23.311 1684.847 C 22.708 1684.106, 22.195 1681.590, 22.171 1679.256 C 22.146 1676.922, 21.935 1674.672, 21.702 1674.256 C 21.469 1673.840, 21.870 1672.150, 22.594 1670.500 C 23.318 1668.850, 23.937 1668.175, 23.970 1669 C 24.024 1670.333, 24.138 1670.333, 25 1669 C 26.325 1666.950, 26.250 1666.393, 24.400 1664.542 C 22.669 1662.811, 22.010 1655.611, 23.100 1650.329 C 23.611 1647.852, 23.448 1647.275, 22.358 1647.693 C 21.265 1648.112, 21.158 1647.716, 21.862 1645.863 C 22.740 1643.553, 23.500 1626.977, 22.956 1622 C 22.177 1614.878, 22.535 1610.507, 23.873 1610.791 C 24.830 1610.994, 25.024 1610.540, 24.515 1609.291 C 23.336 1606.397, 22.903 1572.739, 23.951 1565.346 C 24.624 1560.588, 24.588 1558.363, 23.827 1557.893 C 23.188 1557.498, 23.089 1556.665, 23.585 1555.862 C 24.048 1555.113, 24.301 1551.170, 24.147 1547.100 C 23.953 1541.991, 24.254 1539.461, 25.119 1538.926 C 25.974 1538.398, 26.058 1537.731, 25.386 1536.826 C 24.844 1536.097, 24.491 1531.450, 24.603 1526.500 C 25.691 1478.354, 26.054 1456.436, 26.494 1412.500 C 26.774 1384.450, 27.222 1355.200, 27.489 1347.500 C 27.756 1339.800, 28.092 1326.864, 28.237 1318.753 C 28.382 1310.642, 28.779 1304.005, 29.121 1304.003 C 29.462 1304.001, 29.349 1301.900, 28.870 1299.333 C 28.372 1296.668, 28.374 1293.303, 28.876 1291.488 C 29.392 1289.616, 29.377 1287.638, 28.837 1286.674 C 28.334 1285.774, 28.158 1283.068, 28.447 1280.662 C 28.892 1276.949, 29.329 1249.537, 30.118 1175.773 C 30.210 1167.224, 30.630 1162.271, 31.232 1162.644 C 31.764 1162.972, 31.711 1162.329, 31.114 1161.213 C 30.370 1159.822, 30.181 1149.423, 30.514 1128.094 C 30.781 1110.993, 31.053 1096.664, 31.118 1096.251 C 31.183 1095.838, 31.134 1095.050, 31.009 1094.500 C 30.744 1093.333, 30.930 1077.570, 31.452 1057 C 32.049 1033.464, 33.376 969.096, 33.424 961.335 C 33.448 957.395, 33.700 954.314, 33.984 954.490 C 34.268 954.665, 34.405 947.314, 34.290 938.154 C 34.034 917.859, 34.538 912.609, 36.663 913.424 C 37.498 913.745, 38.698 913.687, 39.330 913.296 C 40.038 912.859, 39.522 912.350, 37.990 911.974 C 35.715 911.415, 35.522 910.945, 35.758 906.524 C 35.900 903.862, 36.465 901.144, 37.014 900.484 C 37.688 899.671, 37.523 897.900, 36.505 895.015 C 34.803 890.189, 34.585 887.323, 35.884 886.833 C 36.370 886.650, 37.096 884.025, 37.497 881 C 38.299 874.949, 37.121 874.749, 35.959 880.739 C 35.334 883.966, 35.214 883.546, 35.115 877.781 C 35.019 872.191, 35.252 871.159, 36.500 871.638 C 38.471 872.395, 38.421 870.563, 36.414 868.557 C 34.248 866.391, 35.348 859.185, 37.817 859.372 C 38.872 859.452, 39.624 858.621, 39.834 857.139 C 40.024 855.795, 39.750 855.037, 39.197 855.378 C 36.816 856.850, 33.979 848.935, 36.011 846.487 C 36.868 845.454, 36.902 845, 36.122 845 C 35.442 845, 35 843.030, 35 840 C 35 836.660, 35.395 835.083, 36.191 835.250 C 36.845 835.387, 37.553 834.712, 37.764 833.750 C 38.002 832.663, 37.551 832, 36.573 832 C 35.499 832, 35 831.067, 35 829.059 C 35 825.708, 36.616 824.083, 37.308 826.738 C 37.601 827.861, 37.810 827.525, 37.884 825.809 C 37.948 824.329, 37.610 822.877, 37.133 822.582 C 36.656 822.288, 36.382 816.748, 36.523 810.273 C 36.864 794.642, 36.838 794.846, 38.795 792.607 C 39.733 791.534, 39.994 790.950, 39.375 791.310 C 38.655 791.728, 37.970 790.440, 37.473 787.732 C 36.494 782.399, 36.493 783.600, 37.509 745.500 C 37.978 727.900, 38.321 711.739, 38.271 709.587 C 38.205 706.762, 38.451 706.066, 39.155 707.087 C 39.858 708.105, 39.947 707.848, 39.472 706.168 C 38.777 703.709, 38.482 679.823, 39.128 678.356 C 39.335 677.885, 39.504 662.875, 39.503 645 C 39.501 627.125, 39.884 612.220, 40.353 611.877 C 40.823 611.535, 40.689 610.288, 40.057 609.107 C 39.425 607.925, 39.159 606.552, 39.467 606.054 C 39.774 605.556, 40.079 596.920, 40.144 586.862 C 40.209 576.803, 40.640 567.256, 41.102 565.645 C 41.564 564.033, 41.637 562.222, 41.265 561.620 C 40.181 559.865, 40.064 508.648, 41.142 507.339 C 41.756 506.593, 41.723 505.947, 41.049 505.530 C 39.603 504.637, 39.635 484, 41.082 484 C 42.219 484, 41.817 478.132, 40.538 476.062 C 40.147 475.429, 40.354 474.279, 40.997 473.504 C 41.639 472.730, 41.923 471.287, 41.627 470.298 C 40.531 466.631, 40.068 456, 41.005 456 C 41.565 456, 41.499 454.995, 40.846 453.561 C 39.951 451.598, 40.053 450.804, 41.367 449.490 C 43.358 447.499, 43.399 446.288, 41.590 442.821 C 40.651 441.021, 40.303 437.738, 40.531 432.821 C 40.718 428.794, 40.799 423.925, 40.711 422 C 40.488 417.115, 40.573 403.107, 40.848 399.500 C 40.973 397.850, 40.947 389.819, 40.788 381.654 C 40.630 373.489, 40.859 366.587, 41.299 366.315 C 41.738 366.044, 41.609 365.234, 41.013 364.516 C 39.816 363.073, 39.858 345, 41.059 345 C 41.460 345, 41.340 343.239, 40.794 341.087 C 40.142 338.519, 40.137 335.597, 40.779 332.587 C 41.382 329.761, 41.398 328, 40.820 328 C 40.304 328, 40.141 327.581, 40.457 327.069 C 40.774 326.557, 40.646 325.900, 40.174 325.608 C 39.278 325.054, 39.409 319.493, 40.489 312.250 C 40.900 309.493, 40.745 308, 40.048 308 C 39.363 308, 39.525 306.679, 40.494 304.361 C 41.609 301.693, 41.723 300.371, 40.921 299.405 C 40.320 298.680, 40.118 297.618, 40.473 297.044 C 40.828 296.470, 40.631 296, 40.036 296 C 39.388 296, 39.567 295.065, 40.483 293.666 C 41.861 291.563, 41.852 291.010, 40.389 288.078 C 38.922 285.138, 38.912 284.452, 40.283 280.962 C 41.380 278.170, 41.481 276.984, 40.650 276.681 C 39.794 276.369, 39.811 275.734, 40.714 274.202 C 41.382 273.069, 41.536 271.998, 41.058 271.821 C 40.579 271.645, 39.980 269.025, 39.727 266 C 39.474 262.975, 39.462 261.512, 39.700 262.750 C 39.938 263.988, 40.517 265, 40.986 265 C 41.455 265, 41.375 263.321, 40.809 261.269 C 40.242 259.217, 39.756 246.955, 39.728 234.019 C 39.682 212.736, 39.765 205.119, 40.213 189.500 C 40.292 186.750, 40.260 179.391, 40.142 173.146 C 40.009 166.137, 40.342 161.293, 41.012 160.486 C 41.701 159.655, 41.741 158.958, 41.122 158.576 C 40.539 158.215, 40.476 156.826, 40.965 155.120 C 41.415 153.552, 41.449 151.727, 41.041 151.066 C 40.632 150.404, 40.444 143.257, 40.622 135.182 C 40.910 122.154, 41.527 95.102, 41.876 80.191 C 41.952 76.934, 42.386 75.121, 43 75.500 C 43.550 75.840, 44 75.641, 44 75.059 C 44 74.477, 43.556 74, 43.014 74 C 42.416 74, 42.070 69.306, 42.133 62.050 C 42.222 51.903, 42.484 50.035, 43.869 49.666 C 45.278 49.291, 45.286 49.216, 43.932 49.116 C 42.599 49.017, 42.401 47.459, 42.615 38.750 C 42.753 33.112, 43.096 27.233, 43.378 25.685 C 43.798 23.379, 44.285 5.928, 44.060 1.250 C 44.014 0.290, 38.901 0, 22 0 L 0 0 0 1024.034 M 1206.031 1.250 C 1206.084 3.348, 1210.999 6.401, 1212.274 5.126 C 1213.553 3.847, 1217 6.421, 1217 8.655 C 1217 9.395, 1217.675 10, 1218.500 10 C 1219.325 10, 1220 9.325, 1220 8.500 C 1220 7.675, 1220.450 7, 1221 7 C 1221.550 7, 1222.007 8.462, 1222.015 10.250 C 1222.037 14.816, 1222.855 15.531, 1228.250 15.699 C 1231.762 15.809, 1233 15.476, 1233 14.424 C 1233 13.589, 1233.990 13, 1235.393 13 C 1236.710 13, 1238.075 12.246, 1238.430 11.322 C 1239.024 9.773, 1239.198 9.769, 1240.701 11.272 C 1242.113 12.685, 1242.141 13.126, 1240.914 14.616 C 1239.612 16.196, 1239.778 16.280, 1243 15.673 C 1247.841 14.761, 1251.866 14.185, 1249.750 14.707 C 1246.485 15.513, 1247.868 17.253, 1251.250 16.595 C 1257.711 15.340, 1264.484 14.760, 1263.764 15.524 C 1263.359 15.954, 1261.680 16.267, 1260.031 16.220 C 1256.382 16.116, 1255.519 17.258, 1257.207 19.959 C 1258.676 22.313, 1260 22.624, 1260 20.617 C 1260 19.856, 1261.151 19.013, 1262.558 18.744 C 1264.450 18.382, 1264.971 18.612, 1264.558 19.628 C 1262.868 23.784, 1262.839 24.386, 1264.434 22.250 C 1265.358 21.013, 1266.708 20, 1267.434 20 C 1268.161 20, 1269.311 19.330, 1269.991 18.511 C 1270.671 17.692, 1271.607 17.257, 1272.073 17.545 C 1273.502 18.429, 1277 15.632, 1277 13.604 C 1277 11.795, 1277.103 11.783, 1278.876 13.388 C 1280.595 14.943, 1280.805 14.949, 1281.376 13.461 C 1281.719 12.568, 1282 11.179, 1282 10.376 C 1282 8.299, 1285.639 4.659, 1286.923 5.453 C 1287.516 5.819, 1288 5.641, 1288 5.059 C 1288 4.477, 1287.498 4, 1286.883 4 C 1286.257 4, 1285.998 3.117, 1286.293 1.986 C 1286.814 -0.005, 1286.464 -0.025, 1254.660 0.236 L 1222.500 0.500 1221.513 2.750 C 1220.970 3.987, 1219.732 5, 1218.763 5 C 1216.611 5, 1216.436 3.430, 1218.500 2.638 C 1221.747 1.393, 1219.813 0.008, 1215.113 0.212 C 1211.598 0.365, 1210.365 0.787, 1210.720 1.713 C 1210.992 2.421, 1210.702 3, 1210.076 3 C 1209.449 3, 1208.678 2.325, 1208.362 1.500 C 1207.665 -0.315, 1205.988 -0.495, 1206.031 1.250 M 1382.709 15.250 C 1383.467 34.258, 1383.462 35.583, 1382.631 40.500 C 1381.118 49.451, 1380.324 57.774, 1380.534 62.500 C 1380.656 65.250, 1380.337 68.025, 1379.825 68.666 C 1379.262 69.372, 1379.239 72.410, 1379.769 76.360 C 1380.250 79.949, 1380.280 83.535, 1379.837 84.327 C 1379.394 85.119, 1379.302 88.857, 1379.634 92.634 C 1380.488 102.369, 1380.771 173.023, 1379.958 173.526 C 1379.242 173.969, 1379.562 182.827, 1380.535 189.500 C 1381.478 195.966, 1381.773 270.033, 1380.877 275.500 C 1380.426 278.250, 1379.810 287.700, 1379.508 296.500 C 1378.563 324.028, 1377.986 335.214, 1377.468 336.052 C 1377.193 336.497, 1377.401 337.130, 1377.931 337.458 C 1378.462 337.785, 1378.939 340.629, 1378.991 343.777 C 1379.044 346.925, 1379.123 350.175, 1379.166 351 C 1379.210 351.825, 1378.927 359.250, 1378.538 367.500 C 1378.148 375.750, 1377.709 399.600, 1377.562 420.500 C 1377.394 444.320, 1376.899 459.464, 1376.235 461.084 C 1375.574 462.696, 1375.313 470.409, 1375.539 481.584 C 1375.966 502.583, 1375.922 523.842, 1375.440 529.500 C 1374.556 539.897, 1373.802 546.960, 1373.038 552 C 1372.223 557.378, 1372.563 583.484, 1373.467 584.946 C 1374.604 586.787, 1373.403 722.838, 1372.174 731.250 C 1371.713 734.413, 1371.682 739.562, 1372.107 742.693 C 1372.532 745.824, 1372.688 748.696, 1372.454 749.075 C 1372.219 749.454, 1371.941 752.991, 1371.835 756.934 C 1371.729 760.877, 1371.284 764.324, 1370.847 764.595 C 1370.409 764.865, 1370.304 767.205, 1370.612 769.793 C 1371.457 776.882, 1371.503 854.268, 1370.668 863.904 C 1370.267 868.527, 1369.485 874.337, 1368.929 876.816 C 1368.373 879.296, 1367.880 884.626, 1367.833 888.662 C 1367.786 892.698, 1367.355 896, 1366.874 896 C 1365.837 896, 1365.690 901.357, 1366.699 902.366 C 1367.441 903.108, 1367.307 909.860, 1366.418 916.500 C 1366.022 919.454, 1366.155 920.108, 1366.926 919 C 1367.764 917.795, 1367.972 918.029, 1367.985 920.191 C 1367.993 921.671, 1367.502 923.190, 1366.893 923.566 C 1366.121 924.043, 1366.197 924.515, 1367.143 925.125 C 1368.269 925.851, 1368.246 926.163, 1367.009 926.958 C 1365.713 927.791, 1365.772 928.343, 1367.467 931.208 C 1369.199 934.135, 1369.409 936.383, 1369.359 951.500 C 1369.260 981.333, 1367.722 1038.500, 1367.018 1038.500 C 1366.424 1038.500, 1366.053 1044.001, 1365.974 1054 C 1365.923 1060.325, 1365.440 1073.150, 1364.899 1082.500 C 1364.359 1091.850, 1363.721 1107.150, 1363.481 1116.500 C 1363.242 1125.850, 1362.778 1139.575, 1362.452 1147 C 1361.758 1162.743, 1361.786 1188.392, 1362.499 1192 C 1363.292 1196.009, 1363.293 1207.051, 1362.502 1229 C 1362.095 1240.275, 1361.698 1275.825, 1361.620 1308 C 1361.541 1340.175, 1361.174 1366.971, 1360.805 1367.547 C 1360.435 1368.123, 1360.043 1373.298, 1359.933 1379.047 C 1359.823 1384.796, 1359.323 1392.650, 1358.822 1396.500 C 1357.797 1404.366, 1356.937 1430.677, 1356.528 1466.665 C 1356.376 1479.956, 1355.910 1493.006, 1355.492 1495.665 C 1354.256 1503.528, 1354.203 1505.109, 1354.062 1538 C 1353.989 1555.325, 1353.517 1571.975, 1353.015 1575 C 1352.185 1579.999, 1351.552 1601.333, 1350.481 1660.500 C 1349.955 1689.545, 1349.128 1704.892, 1347.974 1707.049 C 1347.328 1708.255, 1347.338 1709.091, 1348.003 1709.502 C 1349.351 1710.335, 1348.973 1718.996, 1347.588 1719.015 C 1346.990 1719.024, 1347.122 1719.425, 1347.882 1719.906 C 1349.006 1720.618, 1349.139 1723.465, 1348.592 1735.141 C 1347.632 1755.668, 1346.984 1775.386, 1347.003 1783.500 C 1347.012 1787.350, 1346.992 1791.400, 1346.958 1792.500 C 1346.779 1798.399, 1346.901 1802.871, 1347.327 1806 C 1347.590 1807.925, 1347.418 1816.025, 1346.945 1824 C 1344.983 1857.072, 1343.768 1892.499, 1343.491 1924.686 C 1343.329 1943.489, 1342.897 1959.357, 1342.531 1959.950 C 1341.948 1960.893, 1340.622 2020.217, 1340.924 2031.875 C 1340.986 2034.282, 1340.515 2036.880, 1339.876 2037.649 C 1339.237 2038.419, 1339 2039.334, 1339.349 2039.682 C 1339.697 2040.031, 1339.527 2040.865, 1338.970 2041.536 C 1338.292 2042.353, 1338.287 2043.624, 1338.954 2045.378 L 1339.950 2048 1437.975 2048 L 1536 2048 1536 1024 L 1536 0 1459.051 0 L 1382.101 0 1382.709 15.250 M 1227.543 9.931 C 1227.226 10.443, 1227.384 11.119, 1227.893 11.434 C 1229.076 12.165, 1232 11.067, 1232 9.893 C 1232 8.710, 1228.278 8.741, 1227.543 9.931 M 1284 12 C 1284 12.550, 1284.450 13, 1285 13 C 1285.550 13, 1286 12.550, 1286 12 C 1286 11.450, 1285.550 11, 1285 11 C 1284.450 11, 1284 11.450, 1284 12 M 1270.500 15 C 1270.160 15.550, 1270.359 16, 1270.941 16 C 1271.523 16, 1272 15.550, 1272 15 C 1272 14.450, 1271.802 14, 1271.559 14 C 1271.316 14, 1270.840 14.450, 1270.500 15 M 1277 18.083 C 1277 20.520, 1279.337 20.176, 1279.823 17.667 C 1280.015 16.680, 1279.505 16, 1278.573 16 C 1277.646 16, 1277 16.855, 1277 18.083 M 667 473.431 C 662.325 474.060, 657.600 474.939, 656.500 475.384 C 646.536 479.417, 642.051 484.130, 640.620 492.068 C 639.839 496.405, 641.246 500.725, 645.807 508 C 650.418 515.352, 655.007 520.095, 663.989 526.788 C 668.108 529.857, 671.933 532.727, 672.489 533.166 C 679.305 538.542, 686.869 544.250, 691.486 547.500 C 694.611 549.700, 698.680 552.625, 700.529 554 C 710.269 561.245, 722.899 570.004, 723.647 570.033 C 724.940 570.084, 729.356 573.977, 728.777 574.556 C 728.499 574.835, 726.972 574.395, 725.385 573.580 C 719.208 570.406, 713.293 568, 711.671 568 C 710.737 568, 709.191 567.566, 708.236 567.034 C 706.373 565.998, 689.570 560.986, 681.736 559.129 C 676.131 557.801, 669.055 557.679, 667.163 558.878 C 666.427 559.345, 665.977 560.791, 666.163 562.093 C 666.527 564.648, 667.581 565.108, 677.500 567.050 C 689.870 569.471, 703.462 573.073, 705.658 574.511 C 706.907 575.330, 708.395 576, 708.963 576 C 712.779 576, 731.387 594.763, 736.991 604.259 C 739.775 608.979, 739.445 608.985, 725.446 604.469 C 702.520 597.073, 699.280 596.117, 691.500 594.451 C 678.364 591.638, 672.869 591.529, 669.702 594.020 C 666.433 596.592, 666.213 599.991, 669.024 604.538 C 671.505 608.553, 683.307 618.933, 692.290 625 C 695.954 627.475, 698.963 629.728, 698.976 630.007 C 699.009 630.702, 691.467 633, 689.151 633 C 684.597 633, 679 640.446, 679 646.506 C 679 649.833, 682.257 655.540, 685.202 657.371 C 687.948 659.078, 688.105 657.729, 685.894 651.439 L 683.813 645.519 686.992 642.866 C 693.555 637.387, 705.133 636.658, 717.225 640.962 C 724.259 643.466, 728.830 643.606, 729.698 641.344 C 730.575 639.058, 726.721 636.139, 721.784 635.350 C 719.597 635, 715.612 633.203, 712.928 631.357 C 710.244 629.511, 707.723 628, 707.326 628 C 706.220 628, 693.486 619.291, 692.035 617.542 C 691.331 616.694, 690.218 616, 689.562 616 C 688.906 616, 684.929 612.537, 680.724 608.305 C 675.006 602.549, 673.343 600.292, 674.127 599.347 C 674.755 598.590, 676.441 598.285, 678.337 598.586 C 692.185 600.778, 710.343 605.818, 725.243 611.605 C 730.052 613.472, 735.058 615, 736.368 615 C 740.756 615, 744.867 613.789, 745.426 612.332 C 746.688 609.044, 738.906 595.979, 730.351 587.024 C 727.473 584.012, 725.299 581.368, 725.518 581.149 C 725.738 580.929, 727.623 581.439, 729.709 582.281 C 735.855 584.764, 769.741 601.570, 779.500 606.974 C 797.608 617.003, 816.887 626.257, 818.435 625.663 C 820.071 625.036, 820.495 622.263, 819.235 620.434 C 818.831 619.847, 816.250 618.224, 813.500 616.827 C 802.472 611.224, 793.106 605.995, 785.500 601.194 C 781.100 598.416, 773.675 593.777, 769 590.885 C 764.325 587.993, 759.917 585.047, 759.203 584.338 C 758.490 583.629, 756.353 582.312, 754.453 581.411 C 752.554 580.510, 751 579.379, 751 578.899 C 751 578.420, 749.456 577.382, 747.568 576.593 C 745.681 575.804, 740.394 572.719, 735.818 569.737 C 731.243 566.755, 726.825 564.027, 726 563.675 C 725.175 563.322, 721.800 561.007, 718.500 558.530 C 715.200 556.052, 709.188 551.882, 705.140 549.263 C 701.092 546.643, 697.267 544.032, 696.640 543.460 C 696.013 542.888, 691.675 539.539, 687 536.017 C 662.858 517.829, 654.676 510.058, 649.909 500.790 C 646.002 493.195, 648.558 487.765, 658.168 483.243 C 670.777 477.309, 691.328 479.382, 711.686 488.641 C 714.538 489.939, 717.068 491, 717.308 491 C 718.237 491, 737.145 502.022, 743.161 506.070 C 754.440 513.660, 770.919 527.729, 782.294 539.481 C 789.888 547.327, 802.377 563.395, 805.628 569.502 C 810.042 577.795, 809.237 583.819, 803.421 586.030 C 799.460 587.536, 785.264 580.819, 775.548 572.841 C 774.972 572.368, 771.374 569.622, 767.553 566.740 C 756.684 558.541, 733.262 534.732, 729.583 528.142 C 729.079 527.239, 727.208 524.700, 725.425 522.500 C 721.375 517.502, 715.011 505.211, 715.005 502.372 C 715.002 501.202, 714.281 499.648, 713.402 498.919 C 712.295 498, 711.966 496.599, 712.329 494.358 C 712.674 492.236, 712.363 490.716, 711.427 489.939 C 710.244 488.957, 710 489.278, 710 491.819 C 710 493.503, 709.582 495.141, 709.070 495.457 C 708.559 495.773, 708.310 498.304, 708.517 501.083 C 709.165 509.789, 714.616 519.117, 731.278 540.034 C 736.465 546.547, 743.073 554.022, 746 556.690 C 765.028 574.034, 781.710 586.233, 792.685 590.829 C 802.391 594.893, 809.218 593.642, 812.223 587.248 C 816.811 577.488, 813.963 568.433, 801.319 552.577 C 791.971 540.856, 782.335 530.752, 772.134 521.977 C 758.941 510.627, 757.399 509.367, 753.406 506.690 C 751.155 505.180, 748.408 502.944, 747.303 501.722 C 746.197 500.500, 743.780 498.600, 741.930 497.500 C 740.080 496.400, 737.427 494.787, 736.033 493.915 C 729.723 489.965, 711.917 481.293, 704.500 478.557 C 700.377 477.036, 688.322 474.128, 683.500 473.492 C 680.750 473.129, 677.825 472.709, 677 472.560 C 676.175 472.410, 671.675 472.802, 667 473.431 M 747.143 661.327 C 746.301 662.342, 746.246 663.517, 746.954 665.378 C 747.604 667.090, 747.609 668, 746.966 668 C 746.425 668, 744.576 669.344, 742.857 670.986 C 740.255 673.473, 739.942 674.226, 740.989 675.486 C 742.877 677.761, 745.495 677.314, 747.610 674.356 C 749.618 671.546, 751.280 669.915, 754.477 667.616 C 756.131 666.427, 756.292 665.729, 755.459 663.347 C 754.699 661.174, 753.738 660.429, 751.397 660.199 C 749.628 660.025, 747.827 660.503, 747.143 661.327 M 691.315 662.298 C 691.044 662.737, 688.812 662.795, 686.356 662.426 C 682.526 661.852, 681.536 662.088, 679.415 664.080 C 678.054 665.358, 677.146 666.939, 677.397 667.592 C 677.648 668.246, 676.918 669.784, 675.775 671.011 C 670.627 676.536, 671.633 688.326, 677.967 696.724 C 681.012 700.762, 692.784 710.095, 696.317 711.272 C 696.922 711.474, 696.282 713.119, 694.841 715.064 C 691.376 719.743, 689.666 726.580, 690.909 730.784 L 691.880 734.068 688.545 733.443 C 684.972 732.772, 681.975 733.905, 678.185 737.360 C 674.129 741.058, 672.681 745.440, 673.236 752.345 C 673.789 759.239, 674.688 761.259, 680.281 768.176 L 684.063 772.853 681.020 777.176 C 676.834 783.124, 676.592 791.877, 680.384 800.158 C 683.943 807.932, 686.714 810.940, 696.344 817.481 C 702.977 821.986, 705.228 823.021, 707.570 822.641 C 709.182 822.379, 711.962 822.127, 713.750 822.082 C 718.163 821.971, 725 815.282, 725 811.077 C 725 807.396, 720.600 802, 717.598 802 C 712.935 802, 707.402 811.370, 710.127 814.653 C 712.361 817.345, 706.903 815.690, 700.994 811.884 C 690.391 805.054, 685.059 797.245, 685.015 788.482 C 684.995 784.467, 689.611 777.637, 691.782 778.470 C 694.170 779.386, 707.916 781.424, 708.365 780.928 C 708.578 780.692, 709.055 779.511, 709.427 778.301 C 710.255 775.605, 707.320 772.331, 703.275 771.438 C 688.865 768.257, 683.322 764.307, 681.147 755.670 C 679.421 748.815, 679.711 747.072, 683.106 743.901 C 688.115 739.222, 694.325 740.285, 703.967 747.471 C 707.010 749.739, 710.737 752.371, 712.250 753.320 C 714.912 754.991, 715 754.982, 715 753.023 C 715 751.910, 715.350 751, 715.778 751 C 717.146 751, 720 754.959, 720 756.856 C 720 757.865, 720.875 759.482, 721.944 760.449 C 723.013 761.417, 724.026 763.128, 724.194 764.252 C 724.362 765.376, 725.281 766.785, 726.236 767.384 C 727.610 768.245, 728.429 768.016, 730.162 766.283 C 732.193 764.251, 732.256 763.807, 731.038 760.115 C 729.910 756.697, 729.956 755.432, 731.363 751.131 C 732.263 748.377, 733 745.219, 733 744.112 C 733 743.005, 733.666 741.726, 734.481 741.271 C 735.295 740.815, 736.250 738.999, 736.603 737.236 C 737.098 734.759, 736.860 733.884, 735.554 733.383 C 733.855 732.730, 729.634 734.427, 727.179 736.750 C 725.489 738.348, 710.710 738.294, 706.318 736.674 C 697.876 733.560, 695.313 727.555, 699.428 720.532 C 700.856 718.096, 702.581 715.747, 703.262 715.311 C 703.943 714.875, 708.234 714.261, 712.798 713.947 C 720.140 713.442, 721.383 713.066, 723.589 710.688 C 724.959 709.210, 726.444 708, 726.887 708 C 728.364 708, 735.122 700.809, 736.157 698.136 C 737.329 695.111, 737.398 684.217, 736.264 681.251 C 735.171 678.393, 729.134 671.232, 725.842 668.887 C 720.359 664.983, 709.070 661.801, 700.154 661.645 C 695.564 661.565, 691.586 661.859, 691.315 662.298 M 699.381 669.192 C 699.074 669.689, 698.075 670.022, 697.161 669.933 C 692.841 669.509, 690.070 670.214, 686.200 672.723 C 683.890 674.221, 682 675.949, 682 676.564 C 682 677.178, 683.376 680.434, 685.058 683.799 C 688.858 691.405, 696.168 698.149, 703.798 701.090 C 713.312 704.756, 725.133 703.498, 728.429 698.468 C 730.766 694.901, 729.528 685.283, 726.347 682.298 C 725.056 681.087, 724 679.227, 724 678.166 C 724 676.020, 718.046 671, 715.501 671 C 714.603 671, 713.111 670.608, 712.184 670.128 C 709.710 668.847, 700.032 668.139, 699.381 669.192 M 720.636 744.809 L 715.773 745.119 719.081 747.559 C 723.287 750.663, 724.802 750.638, 725.601 747.453 C 725.953 746.053, 726.074 744.815, 725.870 744.703 C 725.667 744.592, 723.311 744.639, 720.636 744.809 M 714.500 813 C 714.160 813.550, 714.557 814, 715.382 814 C 716.207 814, 717.160 813.550, 717.500 813 C 717.840 812.450, 717.443 812, 716.618 812 C 715.793 812, 714.840 812.450, 714.500 813 M 702 825.227 C 702 827.050, 703.773 828.561, 704.757 827.576 C 705.100 827.233, 704.620 826.192, 703.690 825.262 C 702.132 823.703, 702 823.700, 702 825.227 M 701.603 830.833 C 700.976 831.848, 702.629 848.590, 703.495 849.991 C 703.835 850.542, 704.293 851.782, 704.513 852.746 C 704.732 853.711, 705.343 855.850, 705.870 857.500 C 706.961 860.917, 706.852 861.776, 707.538 844.414 L 708.016 832.328 705.461 831.164 C 702.414 829.776, 702.264 829.763, 701.603 830.833 M 36 865.559 C 36 866.416, 36.450 866.840, 37 866.500 C 37.550 866.160, 38 865.459, 38 864.941 C 38 864.423, 37.550 864, 37 864 C 36.450 864, 36 864.702, 36 865.559 M 34 899.559 C 34 900.416, 34.457 900.835, 35.016 900.490 C 35.575 900.144, 35.774 899.443, 35.457 898.931 C 34.600 897.544, 34 897.802, 34 899.559 M 869.993 919.196 C 868.791 920.463, 867.402 922.400, 866.906 923.500 C 865.560 926.486, 863.825 929.100, 860.603 932.997 C 857.050 937.294, 835.520 959.524, 831.454 963.094 C 829.829 964.520, 827.551 966.770, 826.392 968.094 C 825.232 969.417, 820.515 973.875, 815.908 978 C 811.302 982.125, 806.018 986.962, 804.166 988.750 C 802.315 990.538, 800.282 992.004, 799.650 992.010 C 799.018 992.015, 796.475 993.644, 794 995.630 C 787.704 1000.683, 779.171 1007, 778.643 1007 C 778.400 1007, 775.861 1008.575, 773 1010.500 C 770.139 1012.425, 767.029 1014, 766.087 1014 C 764.101 1014, 756.195 1017.622, 754 1019.539 C 753.175 1020.259, 747.325 1022.178, 741 1023.804 C 730.874 1026.407, 728.201 1026.713, 718.622 1026.364 C 711.095 1026.089, 707.298 1026.337, 706.296 1027.169 C 705.162 1028.111, 704.674 1028.091, 704.049 1027.079 C 703.558 1026.285, 703.013 1026.170, 702.636 1026.780 C 701.817 1028.104, 703.821 1029.586, 707.500 1030.376 C 709.150 1030.731, 711.435 1031.236, 712.577 1031.499 C 719.862 1033.174, 738.324 1032.022, 740.586 1029.750 C 740.997 1029.338, 742.349 1029, 743.591 1029 C 744.833 1029, 751.541 1026.102, 758.497 1022.559 C 765.454 1019.017, 771.784 1016.364, 772.564 1016.663 C 773.345 1016.963, 774.260 1016.486, 774.599 1015.604 C 774.937 1014.722, 776.043 1014, 777.057 1014 C 778.071 1014, 779.260 1013.431, 779.700 1012.736 C 780.140 1012.041, 783.150 1009.678, 786.390 1007.486 C 789.629 1005.294, 792.775 1002.712, 793.380 1001.750 C 793.986 1000.788, 795.218 1000, 796.118 1000 C 797.018 1000, 798.373 999.255, 799.128 998.344 C 799.882 997.434, 803.650 994.191, 807.500 991.137 C 811.350 988.084, 817.393 982.754, 820.929 979.293 C 824.465 975.832, 827.733 973, 828.191 973 C 828.649 973, 832.506 969.644, 836.762 965.542 C 852.222 950.643, 852.182 950.676, 853.052 952.084 C 854.038 953.680, 853.362 955, 851.558 955 C 850.529 955, 848.599 959.923, 849.338 960.662 C 849.427 960.751, 850.771 960.579, 852.326 960.281 C 854.604 959.843, 855.049 959.328, 854.622 957.619 C 854.268 956.197, 854.900 954.726, 856.547 953.145 C 857.896 951.850, 859 950.365, 859 949.846 C 859 949.327, 860.826 946.154, 863.057 942.795 C 868.679 934.331, 873 926.404, 873 924.554 C 873 923.699, 873.480 923, 874.066 923 C 875.488 923, 874.822 917.760, 873.339 917.273 C 872.700 917.064, 871.195 917.929, 869.993 919.196 M 293 925.275 C 293 926.716, 296.055 930, 297.395 930 C 297.801 930, 297.990 928.763, 297.816 927.250 C 297.590 925.281, 296.861 924.409, 295.250 924.180 C 293.826 923.978, 293 924.380, 293 925.275 M 844.787 966 C 844.444 968.332, 844.726 969, 846.051 969 C 848.764 969, 850.516 966.327, 849 964.500 C 847.025 962.120, 845.264 962.746, 844.787 966 M 839.608 973.881 C 838.020 975.635, 838.017 975.874, 839.569 977.426 C 841.753 979.610, 843.529 978.899, 843.383 975.899 C 843.319 974.579, 843.769 973.169, 844.383 972.765 C 845.045 972.330, 844.647 972.024, 843.405 972.015 C 842.253 972.007, 840.544 972.847, 839.608 973.881 M 836.483 980.750 C 831.430 986.578, 829.066 989.902, 827.771 993 C 826.966 994.925, 825.121 997.625, 823.671 999 C 822.221 1000.375, 821.027 1002.077, 821.017 1002.781 C 821.008 1003.486, 820.325 1004.322, 819.500 1004.638 C 818.675 1004.955, 818 1006.066, 818 1007.107 C 818 1008.148, 817.325 1009, 816.500 1009 C 815.675 1009, 815 1009.516, 815 1010.147 C 815 1011.273, 809.876 1018.072, 805.313 1023 C 790.241 1039.279, 776.044 1052, 772.950 1052 C 772.427 1052, 771.993 1052.338, 771.984 1052.750 C 771.970 1053.441, 767.970 1055.442, 758.934 1059.278 C 751.141 1062.587, 740 1064.924, 729 1065.558 C 722.675 1065.922, 717.261 1066.361, 716.969 1066.534 C 715.689 1067.290, 698.841 1063.681, 692.124 1061.211 C 679.737 1056.658, 672 1047.794, 672 1038.156 C 672 1034.463, 675.791 1025.629, 679.179 1021.431 C 684.202 1015.203, 690.672 1008.870, 693.113 1007.790 C 694.701 1007.087, 696 1006.240, 696 1005.908 C 696 1005.576, 697.772 1004.505, 699.938 1003.528 C 705.462 1001.037, 708.345 1002.092, 715.059 1009.061 C 718.206 1012.328, 721.055 1015, 721.390 1015 C 722.828 1015, 721.803 1010.409, 719.365 1005.929 C 716.238 1000.185, 710.266 995.889, 704.552 995.273 C 701.338 994.927, 699.206 995.531, 694.238 998.195 C 678.943 1006.396, 666.054 1022.834, 664.466 1036.167 C 663.698 1042.612, 664.920 1047.374, 668.906 1053.461 C 674.374 1061.809, 678.133 1064.270, 693.500 1069.559 C 700.899 1072.106, 702.889 1072.338, 719.993 1072.644 C 737.578 1072.959, 738.952 1072.843, 747.993 1070.283 C 753.222 1068.802, 758.573 1066.783, 759.885 1065.795 C 761.197 1064.808, 762.796 1064, 763.439 1064 C 765.231 1064, 774.681 1059.089, 776.040 1057.452 C 776.703 1056.653, 777.752 1055.994, 778.372 1055.986 C 778.993 1055.978, 781.373 1054.282, 783.662 1052.217 C 785.951 1050.152, 789.972 1046.670, 792.598 1044.481 C 795.224 1042.291, 797.851 1039.895, 798.436 1039.155 C 799.021 1038.415, 801.304 1035.715, 803.509 1033.155 C 809.823 1025.823, 814 1020.210, 814 1019.059 C 814 1018.476, 814.353 1018, 814.784 1018 C 815.216 1018, 816.315 1016.763, 817.228 1015.250 C 818.140 1013.737, 820.037 1011.282, 821.443 1009.794 C 822.849 1008.305, 824 1006.655, 824 1006.127 C 824 1005.599, 824.337 1005.017, 824.750 1004.833 C 826.956 1003.853, 835.512 990.179, 834.532 989.199 C 833.910 988.577, 836.646 986, 837.929 986 C 838.518 986, 839 984.875, 839 983.500 C 839 982.125, 839.450 981, 840 981 C 840.550 981, 841 980.550, 841 980 C 841 978.379, 838.125 978.856, 836.483 980.750 M 793.610 1011.427 C 794.320 1013.276, 797.363 1013.589, 796.750 1011.750 C 796.522 1011.063, 795.586 1010.355, 794.671 1010.177 C 793.511 1009.952, 793.190 1010.331, 793.610 1011.427 M 844.304 1114.705 C 837.229 1118.678, 832.418 1125, 836.470 1125 C 837.278 1125, 839.607 1124.063, 841.645 1122.918 C 844.575 1121.273, 846.728 1120.900, 851.926 1121.140 C 855.542 1121.307, 858.622 1121.114, 858.770 1120.712 C 859.275 1119.343, 855.955 1114, 854.599 1114 C 853.857 1114, 851.956 1113.755, 850.375 1113.455 C 848.574 1113.113, 846.306 1113.580, 844.304 1114.705 M 668.250 1139.706 C 666.964 1139.953, 666 1140.871, 666 1141.847 C 666 1143.770, 680.125 1151.253, 686 1152.443 C 687.925 1152.833, 691.408 1154.017, 693.739 1155.076 C 696.071 1156.134, 698.433 1157, 698.989 1157 C 700.678 1157, 700.118 1159.022, 698.250 1159.671 C 695.622 1160.584, 686.148 1170.999, 685.761 1173.402 C 684.810 1179.292, 691.690 1183.983, 701.333 1184.020 C 704.175 1184.031, 709.425 1184.461, 713 1184.976 C 716.575 1185.491, 721.300 1185.972, 723.500 1186.045 C 727.820 1186.189, 735.965 1187.217, 748.273 1189.172 L 756.045 1190.406 757.917 1196.465 C 758.946 1199.798, 760.756 1207.019, 761.939 1212.512 C 763.122 1218.005, 764.994 1225.554, 766.098 1229.286 C 767.203 1233.018, 768.757 1239.543, 769.552 1243.786 C 770.891 1250.925, 772.546 1258.399, 776.468 1275 C 777.312 1278.575, 778.290 1282.766, 778.639 1284.313 L 779.275 1287.127 770.388 1286.450 C 765.499 1286.078, 760.013 1285.485, 758.196 1285.133 L 754.893 1284.492 756.880 1282.359 C 761.703 1277.183, 760.084 1268.613, 753.080 1262.245 C 749.326 1258.832, 740.232 1254, 737.562 1254 C 734.916 1254, 735.833 1252.254, 739.072 1251.125 C 743.392 1249.619, 749.770 1244.346, 751.636 1240.737 C 755.877 1232.536, 748.613 1222.883, 735.538 1219.343 C 728.056 1217.318, 712.482 1216.411, 711.533 1217.946 C 710.241 1220.038, 712.474 1221.121, 720.036 1222.071 C 724.040 1222.574, 728.707 1223.438, 730.408 1223.992 C 732.109 1224.546, 735.300 1225.439, 737.500 1225.978 C 742.721 1227.255, 747 1231.253, 747 1234.853 C 747 1241.823, 734.210 1247.252, 713.500 1249.075 C 697.167 1250.513, 695.388 1250.828, 693.978 1252.526 C 693.014 1253.688, 693.015 1254.313, 693.983 1255.479 C 694.980 1256.681, 698.246 1256.942, 711.355 1256.870 C 729.325 1256.771, 734.637 1257.649, 742.329 1261.991 C 761.010 1272.533, 755.569 1282.431, 730 1284.424 C 712.817 1285.762, 708.436 1286.307, 707.250 1287.251 C 705.747 1288.446, 705.592 1292.630, 707.017 1293.511 C 709.280 1294.909, 729.668 1295.020, 736.790 1293.673 C 743.721 1292.361, 754.602 1292.271, 769.056 1293.406 C 779.227 1294.205, 780.335 1294.873, 781.500 1300.915 C 782.723 1307.256, 784.628 1307.648, 784.167 1301.464 C 783.985 1299.009, 784.252 1297, 784.761 1297 C 786.477 1297, 797.270 1300.979, 798.641 1302.117 C 799.389 1302.737, 800 1302.991, 800 1302.682 C 800 1301.748, 804.171 1304.174, 817 1312.568 C 825.362 1318.040, 838.023 1330.853, 842.511 1338.387 C 844.441 1341.625, 847.702 1348.600, 849.759 1353.887 L 853.500 1363.500 853.362 1385 C 853.284 1397.082, 852.540 1412.414, 851.662 1420 C 850.803 1427.425, 849.801 1436.425, 849.436 1440 C 849.071 1443.575, 848.513 1446.933, 848.195 1447.463 C 847.131 1449.241, 846.933 1455, 847.937 1455 C 849.323 1455, 851.258 1451.116, 850.655 1449.544 C 850.381 1448.829, 850.493 1447.851, 850.904 1447.372 C 854.303 1443.410, 859.958 1398.922, 859.988 1375.910 C 860.019 1351.878, 847.548 1327.474, 826.500 1310.380 C 816.504 1302.261, 801.101 1294.025, 789.354 1290.519 L 783.209 1288.684 781.148 1277.592 C 780.015 1271.491, 778.899 1264.700, 778.668 1262.500 C 777.879 1254.969, 773.953 1233.504, 772.083 1226.500 C 771.055 1222.650, 769.490 1215.675, 768.606 1211 C 767.721 1206.325, 766.251 1199.910, 765.339 1196.744 C 764.426 1193.578, 763.941 1190.725, 764.261 1190.405 C 764.581 1190.085, 780.837 1189.751, 800.386 1189.662 C 832.918 1189.514, 836.078 1189.350, 837.697 1187.731 C 839.070 1186.359, 839.221 1185.575, 838.373 1184.231 C 837.483 1182.820, 835.637 1182.475, 828.390 1182.365 C 818.922 1182.222, 802.787 1180.500, 797 1179.016 C 795.075 1178.522, 789.225 1177.386, 784 1176.491 C 769.919 1174.078, 760.641 1171.860, 759.395 1170.610 C 758.788 1169.999, 757.241 1166.151, 755.958 1162.058 C 753.314 1153.621, 747.508 1145.584, 741.967 1142.689 C 738.368 1140.808, 729.214 1140.851, 726.681 1142.760 C 726.031 1143.249, 723.475 1144.223, 721 1144.924 C 718.525 1145.624, 715.825 1146.751, 715 1147.427 C 714.175 1148.103, 711.749 1149.656, 709.610 1150.877 C 706.385 1152.718, 705.211 1152.921, 702.745 1152.061 C 701.109 1151.491, 699.410 1151.246, 698.971 1151.518 C 698.531 1151.790, 698.020 1151.560, 697.835 1151.008 C 697.414 1149.745, 684.481 1145, 681.460 1145 C 680.225 1145, 678.960 1144.339, 678.650 1143.532 C 678.210 1142.385, 671.189 1138.538, 670.628 1139.136 C 670.558 1139.211, 669.487 1139.467, 668.250 1139.706 M 722.596 1150.214 C 720.999 1150.794, 718.126 1152.332, 716.212 1153.631 L 712.733 1155.992 718.116 1158.372 C 724.807 1161.330, 732.596 1164, 734.535 1164 C 735.341 1164, 736 1164.391, 736 1164.869 C 736 1165.347, 737.462 1166.010, 739.250 1166.341 C 741.038 1166.672, 744.166 1167.354, 746.202 1167.856 L 749.904 1168.768 749.327 1165.634 C 748.606 1161.711, 743.583 1153.604, 740.249 1150.981 C 737.409 1148.748, 727.780 1148.329, 722.596 1150.214 M 704.500 1162.294 C 701.526 1164.087, 695.188 1170.064, 693.455 1172.709 C 692.030 1174.883, 692.084 1175.082, 694.330 1175.935 C 696.452 1176.742, 710.799 1178.176, 730 1179.500 C 733.575 1179.746, 739.875 1180.396, 744 1180.943 C 748.125 1181.490, 751.869 1181.952, 752.320 1181.969 C 752.770 1181.986, 752.995 1180.987, 752.820 1179.750 C 752.558 1177.907, 751.052 1177.019, 744.500 1174.840 C 740.100 1173.376, 735.724 1172.139, 734.775 1172.090 C 733.826 1172.040, 730.103 1170.650, 726.500 1169 C 722.897 1167.350, 719.525 1166, 719.006 1166 C 718.486 1166, 716.360 1165.142, 714.281 1164.092 C 708.776 1161.315, 706.743 1160.941, 704.500 1162.294 M 761.190 1180.762 C 761.468 1182.219, 762.815 1182.533, 769.511 1182.704 C 777.399 1182.906, 777.453 1182.891, 773.738 1181.502 C 771.669 1180.729, 767.925 1179.855, 765.417 1179.560 C 761.469 1179.096, 760.902 1179.257, 761.190 1180.762 M 783 1310.559 C 783 1312.010, 783.433 1312.851, 784 1312.500 C 784.550 1312.160, 785 1311.009, 785 1309.941 C 785 1308.873, 784.550 1308, 784 1308 C 783.450 1308, 783 1309.152, 783 1310.559 M 757.384 1314.442 C 756.642 1316.375, 757.263 1319.263, 758.500 1319.633 C 759.050 1319.798, 760.364 1319.280, 761.419 1318.482 C 763.279 1317.077, 763.282 1316.969, 761.514 1315.016 C 759.359 1312.634, 758.143 1312.465, 757.384 1314.442 M 724.695 1321.210 C 722.917 1324.882, 723.260 1326, 726.167 1326 C 727.872 1326, 728.108 1325.565, 727.568 1323.416 C 727.148 1321.741, 727.285 1321.058, 727.960 1321.475 C 729.154 1322.213, 729.247 1321.807, 728.393 1319.582 C 727.476 1317.193, 726.414 1317.661, 724.695 1321.210 M 762.696 1321.750 C 761.023 1325.881, 761.741 1327.534, 764.789 1326.567 C 767.034 1325.854, 768.141 1322.004, 766.793 1319.595 C 765.407 1317.119, 764.345 1317.677, 762.696 1321.750 M 735 1333.381 C 735 1334.984, 739.120 1338.239, 747.250 1343.058 C 753.244 1346.612, 754.323 1348, 751.089 1348 C 750.038 1348, 746.651 1348.967, 743.561 1350.149 C 734.250 1353.713, 729.519 1361.225, 733.316 1366.418 C 735.343 1369.190, 738.477 1368.042, 738.615 1364.477 C 738.679 1362.840, 738.791 1360.990, 738.865 1360.366 C 739.178 1357.736, 749.854 1354.745, 759.784 1354.506 C 771.849 1354.215, 771.006 1354.423, 770.967 1351.750 C 770.941 1350.013, 769.630 1348.871, 765.217 1346.743 C 762.073 1345.227, 755.675 1341.319, 751 1338.059 C 744.439 1333.484, 741.645 1332.117, 738.750 1332.066 C 736.195 1332.021, 735 1332.440, 735 1333.381 M 743.950 1372.122 C 742.821 1374.847, 742.922 1375.259, 745.098 1376.805 C 746.410 1377.737, 748.352 1378.950, 749.413 1379.500 C 752.695 1381.201, 752.184 1382.427, 747.252 1384.692 C 737.668 1389.093, 732 1396.131, 732 1403.631 C 732 1406.725, 735.847 1413.264, 739.715 1416.744 C 743.115 1419.804, 743.226 1420.093, 741.660 1421.823 C 739.911 1423.756, 739.420 1428.940, 740.835 1430.550 C 741.294 1431.072, 742.477 1433.750, 743.464 1436.500 C 746.665 1445.419, 754.972 1451.929, 763.215 1451.978 C 767.165 1452.001, 769 1450.115, 769 1446.031 C 769 1444.875, 769.660 1442.922, 770.467 1441.691 C 771.794 1439.666, 771.707 1438.974, 769.563 1434.476 C 768.259 1431.739, 764.899 1427.331, 762.096 1424.681 C 759.293 1422.030, 757 1419.443, 757 1418.931 C 757 1418.419, 756.190 1418, 755.200 1418 C 752.948 1418, 741.460 1409.728, 740.048 1407.089 C 737.101 1401.583, 740.013 1396.768, 749.495 1391.465 C 755.641 1388.029, 756.185 1387.912, 764.685 1388.201 L 773.500 1388.500 773.500 1385.611 C 773.500 1383.003, 773.041 1382.605, 768.792 1381.526 C 766.203 1380.869, 762.354 1379.131, 760.239 1377.665 C 758.123 1376.199, 756.016 1375, 755.557 1375 C 755.097 1375, 752.576 1373.680, 749.954 1372.067 L 745.187 1369.134 743.950 1372.122 M 749.607 1427.582 C 748.010 1431.743, 749.073 1434.375, 754.514 1439.730 C 760.130 1445.256, 762.563 1446.001, 762.421 1442.149 C 762.377 1440.967, 762.658 1440, 763.045 1440 C 764.561 1440, 759.622 1431.875, 756.371 1429.021 C 752.534 1425.652, 750.512 1425.222, 749.607 1427.582 M 767.316 1453.899 C 767.014 1455.055, 766.319 1456, 765.772 1456 C 765.179 1456, 765.039 1457.396, 765.426 1459.455 C 766.002 1462.528, 765.766 1463.070, 763.287 1464.351 C 761.754 1465.143, 757.151 1466.809, 753.058 1468.052 C 740.073 1471.995, 737.601 1477.371, 746 1483.405 C 748.750 1485.380, 751 1487.697, 751 1488.553 C 751 1489.409, 750.014 1492.223, 748.809 1494.805 C 746.528 1499.695, 745.954 1507.204, 747.332 1514.158 C 748.133 1518.207, 754.472 1525.468, 758.560 1527.023 C 762.478 1528.512, 770.491 1526.355, 773.972 1522.874 C 778.218 1518.628, 779.241 1514.023, 777.458 1507.179 C 774.618 1496.272, 768.566 1490.688, 761.717 1492.652 C 757.535 1493.852, 757.575 1496.229, 761.791 1497.091 C 765.684 1497.887, 769 1500.620, 769 1503.033 C 769 1505.210, 771.574 1507.498, 772.443 1506.092 C 772.785 1505.540, 773.724 1505.341, 774.531 1505.650 C 775.686 1506.093, 775.490 1506.613, 773.614 1508.089 C 772.302 1509.121, 770.944 1511.486, 770.595 1513.345 C 769.911 1516.993, 767.798 1519.368, 764.288 1520.437 C 761.311 1521.344, 758.884 1519.883, 755.677 1515.256 C 752.238 1510.293, 752.190 1504.581, 755.519 1496.500 C 758.938 1488.201, 758.735 1486.324, 753.883 1481.381 C 751.619 1479.074, 750.034 1476.754, 750.361 1476.225 C 750.688 1475.696, 752.790 1474.969, 755.032 1474.611 C 763.832 1473.204, 773 1466.713, 773 1461.891 C 773 1459.312, 770.513 1453.435, 769.035 1452.521 C 768.322 1452.081, 767.651 1452.618, 767.316 1453.899 M 25.756 1657.824 C 25.443 1659.021, 25.443 1660.979, 25.756 1662.176 L 26.325 1664.353 27.131 1662.176 C 27.573 1660.979, 27.573 1659.021, 27.131 1657.824 L 26.325 1655.647 25.756 1657.824 M 42 1660.059 C 42 1660.641, 42.450 1660.840, 43 1660.500 C 43.550 1660.160, 44 1659.684, 44 1659.441 C 44 1659.198, 43.550 1659, 43 1659 C 42.450 1659, 42 1659.477, 42 1660.059 M 23.030 1673.550 C 23.057 1676.136, 23.193 1676.272, 24.134 1674.654 C 24.903 1673.330, 24.895 1672.495, 24.104 1671.704 C 23.299 1670.899, 23.008 1671.399, 23.030 1673.550 M 23 1682.059 C 23 1683.191, 23.450 1683.840, 24 1683.500 C 24.550 1683.160, 25 1682.234, 25 1681.441 C 25 1680.648, 24.550 1680, 24 1680 C 23.450 1680, 23 1680.927, 23 1682.059 M 27 1752.059 C 27 1752.641, 27.450 1752.840, 28 1752.500 C 28.550 1752.160, 29 1751.684, 29 1751.441 C 29 1751.198, 28.550 1751, 28 1751 C 27.450 1751, 27 1751.477, 27 1752.059 M 33.500 1832 C 33.840 1832.550, 34.316 1833, 34.559 1833 C 34.802 1833, 35 1832.550, 35 1832 C 35 1831.450, 34.523 1831, 33.941 1831 C 33.359 1831, 33.160 1831.450, 33.500 1832 M 32 1841.059 C 32 1841.641, 32.450 1841.840, 33 1841.500 C 33.550 1841.160, 34 1840.684, 34 1840.441 C 34 1840.198, 33.550 1840, 33 1840 C 32.450 1840, 32 1840.477, 32 1841.059 M 33.813 1879.683 C 34.534 1879.972, 35.397 1879.936, 35.729 1879.604 C 36.061 1879.272, 35.471 1879.036, 34.417 1879.079 C 33.252 1879.127, 33.015 1879.364, 33.813 1879.683 M 30 1892.059 C 30 1892.641, 30.450 1892.840, 31 1892.500 C 31.550 1892.160, 32 1891.684, 32 1891.441 C 32 1891.198, 31.550 1891, 31 1891 C 30.450 1891, 30 1891.477, 30 1892.059 M 22.277 1910.032 C 22.365 1911.200, 23.152 1912, 24.213 1912 C 26.553 1912, 26.487 1910.785, 24.065 1909.272 C 22.389 1908.226, 22.149 1908.328, 22.277 1910.032 M 22.500 1916 C 22.160 1916.550, 22.359 1917, 22.941 1917 C 23.523 1917, 24 1916.550, 24 1916 C 24 1915.450, 23.802 1915, 23.559 1915 C 23.316 1915, 22.840 1915.450, 22.500 1916 M 26 1917.941 C 26 1920.824, 27.543 1921.247, 27.777 1918.428 C 27.887 1917.093, 27.533 1916, 26.989 1916 C 26.445 1916, 26 1916.873, 26 1917.941 M 55.500 1917 C 55.160 1917.550, 55.610 1918, 56.500 1918 C 57.390 1918, 57.840 1917.550, 57.500 1917 C 57.160 1916.450, 56.710 1916, 56.500 1916 C 56.290 1916, 55.840 1916.450, 55.500 1917 M 48.079 1918.583 C 48.127 1919.748, 48.364 1919.985, 48.683 1919.188 C 48.972 1918.466, 48.936 1917.603, 48.604 1917.271 C 48.272 1916.939, 48.036 1917.529, 48.079 1918.583 M 31.500 1919 C 31.160 1919.550, 31.610 1920, 32.500 1920 C 33.390 1920, 33.840 1919.550, 33.500 1919 C 33.160 1918.450, 32.710 1918, 32.500 1918 C 32.290 1918, 31.840 1918.450, 31.500 1919 M 23 1929 C 22.207 1929.490, 21.890 1930.223, 22.296 1930.629 C 22.701 1931.035, 23.558 1930.842, 24.200 1930.200 C 25.711 1928.689, 24.868 1927.846, 23 1929 M 31.158 1932 C 31.158 1933.375, 31.385 1933.938, 31.662 1933.250 C 31.940 1932.563, 31.940 1931.438, 31.662 1930.750 C 31.385 1930.063, 31.158 1930.625, 31.158 1932 M 34 1933.559 C 34 1934.416, 34.450 1934.840, 35 1934.500 C 35.550 1934.160, 36 1933.459, 36 1932.941 C 36 1932.423, 35.550 1932, 35 1932 C 34.450 1932, 34 1932.702, 34 1933.559 M 34.813 1936.683 C 35.534 1936.972, 36.397 1936.936, 36.729 1936.604 C 37.061 1936.272, 36.471 1936.036, 35.417 1936.079 C 34.252 1936.127, 34.015 1936.364, 34.813 1936.683 M 46 1940 C 46 1940.550, 46.450 1941, 47 1941 C 47.550 1941, 48 1940.550, 48 1940 C 48 1939.450, 47.550 1939, 47 1939 C 46.450 1939, 46 1939.450, 46 1940 M 32 1943.559 C 32 1944.416, 32.457 1944.835, 33.016 1944.490 C 33.575 1944.144, 33.774 1943.443, 33.457 1942.931 C 32.600 1941.544, 32 1941.802, 32 1943.559 M 19.500 1944 C 19.160 1944.550, 19.835 1945, 21 1945 C 22.165 1945, 22.840 1944.550, 22.500 1944 C 22.160 1943.450, 21.485 1943, 21 1943 C 20.515 1943, 19.840 1943.450, 19.500 1944 M 25 1945 C 25 1945.550, 25.450 1946, 26 1946 C 26.550 1946, 27 1945.550, 27 1945 C 27 1944.450, 26.550 1944, 26 1944 C 25.450 1944, 25 1944.450, 25 1945 M 36.667 1944.667 C 35.682 1945.652, 35.857 1949, 36.893 1949 C 37.384 1949, 38.056 1948.296, 38.386 1947.437 C 38.716 1946.577, 39.439 1946.153, 39.993 1946.496 C 40.547 1946.838, 41 1946.416, 41 1945.559 C 41 1944.013, 37.948 1943.385, 36.667 1944.667 M 44 1944.941 C 44 1946.617, 45.774 1947.033, 46.364 1945.494 C 46.712 1944.587, 46.361 1944, 45.469 1944 C 44.661 1944, 44 1944.423, 44 1944.941 M 20.495 1947.008 C 20.152 1947.563, 20.688 1948.351, 21.686 1948.758 C 23.840 1949.639, 24.544 1953.423, 22.400 1952.600 C 21.630 1952.305, 21 1952.451, 21 1952.924 C 21 1954.025, 23.613 1955.054, 24.402 1954.264 C 25.176 1953.490, 25.171 1949.609, 24.393 1947.582 C 23.711 1945.805, 21.444 1945.472, 20.495 1947.008 M 64 1954.059 C 64 1954.641, 64.450 1954.840, 65 1954.500 C 65.550 1954.160, 66 1953.684, 66 1953.441 C 66 1953.198, 65.550 1953, 65 1953 C 64.450 1953, 64 1953.477, 64 1954.059 M 29.583 1957.866 C 29.152 1958.563, 29.070 1959.403, 29.400 1959.733 C 30.295 1960.628, 31.271 1959.312, 30.787 1957.862 C 30.449 1956.846, 30.213 1956.846, 29.583 1957.866 M 43.500 1958 C 43.840 1958.550, 44.991 1959, 46.059 1959 C 47.127 1959, 48 1958.550, 48 1958 C 48 1957.450, 46.848 1957, 45.441 1957 C 43.990 1957, 43.149 1957.433, 43.500 1958 M 48 1961.059 C 48 1961.641, 48.450 1961.840, 49 1961.500 C 49.550 1961.160, 50 1960.684, 50 1960.441 C 50 1960.198, 49.550 1960, 49 1960 C 48.450 1960, 48 1960.477, 48 1961.059 M 42.597 1962.844 C 42.251 1963.404, 42.455 1964.163, 43.050 1964.531 C 44.588 1965.481, 45.580 1964.180, 44.296 1962.896 C 43.578 1962.178, 43.019 1962.161, 42.597 1962.844 M 32 1966.083 C 32 1968.520, 34.337 1968.176, 34.823 1965.667 C 35.015 1964.680, 34.505 1964, 33.573 1964 C 32.646 1964, 32 1964.855, 32 1966.083 M 34.826 1968.081 C 30.485 1970.283, 29.364 1971.764, 30.887 1973.287 C 31.704 1974.104, 32 1973.948, 32 1972.700 C 32 1971.699, 32.778 1971, 33.893 1971 C 34.934 1971, 36.045 1970.325, 36.362 1969.500 C 37.056 1967.689, 39.994 1967.488, 40.015 1969.250 C 40.026 1970.095, 40.333 1970.023, 40.963 1969.026 C 41.577 1968.055, 41.487 1967.294, 40.697 1966.792 C 39.205 1965.843, 39.266 1965.830, 34.826 1968.081 M 25.200 1972.200 C 24.540 1972.860, 23.968 1974.098, 23.930 1974.950 C 23.880 1976.049, 23.609 1975.918, 23 1974.500 C 22.299 1972.870, 22.128 1972.812, 22.070 1974.191 C 22.032 1975.121, 22.492 1976.186, 23.094 1976.558 C 23.696 1976.930, 23.991 1978.266, 23.750 1979.526 C 23.442 1981.140, 23.707 1981.666, 24.649 1981.304 C 25.469 1980.990, 25.770 1979.934, 25.429 1978.572 C 25.086 1977.208, 25.475 1975.851, 26.436 1975.053 C 28.072 1973.696, 28.580 1971, 27.200 1971 C 26.760 1971, 25.860 1971.540, 25.200 1972.200 M 53 1972 C 53 1972.550, 53.450 1973, 54 1973 C 54.550 1973, 55 1972.550, 55 1972 C 55 1971.450, 54.550 1971, 54 1971 C 53.450 1971, 53 1971.450, 53 1972 M 27 1977.559 C 27 1978.416, 27.450 1978.840, 28 1978.500 C 28.550 1978.160, 29 1977.459, 29 1976.941 C 29 1976.423, 28.550 1976, 28 1976 C 27.450 1976, 27 1976.702, 27 1977.559 M 57.500 1977 C 57.840 1977.550, 58.316 1978, 58.559 1978 C 58.802 1978, 59 1977.550, 59 1977 C 59 1976.450, 58.523 1976, 57.941 1976 C 57.359 1976, 57.160 1976.450, 57.500 1977 M 46 1980 C 46 1980.550, 46.900 1981, 48 1981 C 49.100 1981, 50 1980.550, 50 1980 C 50 1979.450, 49.100 1979, 48 1979 C 46.900 1979, 46 1979.450, 46 1980 M 46.583 1988.866 C 46.152 1989.563, 46.070 1990.403, 46.400 1990.733 C 47.295 1991.628, 48.271 1990.312, 47.787 1988.862 C 47.449 1987.846, 47.213 1987.846, 46.583 1988.866 M 28.510 1993.016 C 28.856 1993.575, 29.557 1993.774, 30.069 1993.457 C 31.456 1992.600, 31.198 1992, 29.441 1992 C 28.584 1992, 28.165 1992.457, 28.510 1993.016 M 35.750 1992.662 C 36.438 1992.940, 37.563 1992.940, 38.250 1992.662 C 38.938 1992.385, 38.375 1992.158, 37 1992.158 C 35.625 1992.158, 35.063 1992.385, 35.750 1992.662 M 31.079 1996.583 C 31.127 1997.748, 31.364 1997.985, 31.683 1997.188 C 31.972 1996.466, 31.936 1995.603, 31.604 1995.271 C 31.272 1994.939, 31.036 1995.529, 31.079 1996.583 M 51 2009 C 51.825 2009.533, 52.950 2009.969, 53.500 2009.969 C 54.050 2009.969, 53.825 2009.533, 53 2009 C 52.175 2008.467, 51.050 2008.031, 50.500 2008.031 C 49.950 2008.031, 50.175 2008.467, 51 2009 M 90 2009.059 C 90 2009.641, 90.450 2009.840, 91 2009.500 C 91.550 2009.160, 92 2008.684, 92 2008.441 C 92 2008.198, 91.550 2008, 91 2008 C 90.450 2008, 90 2008.477, 90 2009.059 M 47 2014 C 47 2014.550, 47.450 2015, 48 2015 C 48.550 2015, 49 2014.550, 49 2014 C 49 2013.450, 48.550 2013, 48 2013 C 47.450 2013, 47 2013.450, 47 2014 M 50 2016.559 C 50 2017.416, 50.457 2017.835, 51.016 2017.490 C 51.575 2017.144, 51.774 2016.443, 51.457 2015.931 C 50.600 2014.544, 50 2014.802, 50 2016.559 M 25.160 2021.240 C 24.522 2021.878, 24 2023.285, 24 2024.367 C 24 2026.201, 25.085 2026.171, 25.234 2024.333 C 25.271 2023.875, 25.977 2023.006, 26.802 2022.403 C 27.697 2021.748, 27.903 2021.058, 27.312 2020.693 C 26.766 2020.356, 25.798 2020.602, 25.160 2021.240 M 42 2025 C 42 2025.550, 42.450 2026, 43 2026 C 43.550 2026, 44 2025.550, 44 2025 C 44 2024.450, 43.550 2024, 43 2024 C 42.450 2024, 42 2024.450, 42 2025 M 30.446 2027.087 C 30.077 2027.685, 30.275 2028.675, 30.887 2029.287 C 31.704 2030.104, 32 2029.815, 32 2028.200 C 32 2025.785, 31.481 2025.413, 30.446 2027.087 M 26.500 2032 C 25.718 2033.266, 27.042 2033.266, 29 2032 C 30.293 2031.165, 30.266 2031.029, 28.809 2031.015 C 27.879 2031.007, 26.840 2031.450, 26.500 2032 M 35 2032 C 34.175 2032.533, 33.950 2032.969, 34.500 2032.969 C 35.050 2032.969, 36.175 2032.533, 37 2032 C 37.825 2031.467, 38.050 2031.031, 37.500 2031.031 C 36.950 2031.031, 35.825 2031.467, 35 2032 M 24.188 2036.063 C 24.428 2036.784, 25.216 2037.572, 25.938 2037.813 C 26.688 2038.063, 27.063 2037.688, 26.813 2036.938 C 26.572 2036.216, 25.784 2035.428, 25.063 2035.188 C 24.313 2034.938, 23.938 2035.313, 24.188 2036.063 M 25 2042 C 25 2043.949, 26.061 2044.606, 27.264 2043.402 C 28.066 2042.601, 27.017 2040, 25.893 2040 C 25.402 2040, 25 2040.900, 25 2042 M 29 2047 C 29 2047.550, 29.477 2048, 30.059 2048 C 30.641 2048, 30.840 2047.550, 30.500 2047 C 30.160 2046.450, 29.684 2046, 29.441 2046 C 29.198 2046, 29 2046.450, 29 2047" stroke="none" fill="#000000" fill-rule="evenodd"></path>
</svg>