<svg width="28" height="28" viewBox="0 0 28 28" fill="none" xmlns="http://www.w3.org/2000/svg">
<path d="M17.4527 8.6665L13.9993 12.1198L10.546 8.6665L8.66602 10.5465L12.1193 13.9998L8.66602 17.4532L10.546 19.3332L13.9993 15.8798L17.4527 19.3332L19.3327 17.4532L15.8793 13.9998L19.3327 10.5465L17.4527 8.6665ZM13.9993 0.666504C6.62602 0.666504 0.666016 6.6265 0.666016 13.9998C0.666016 21.3732 6.62602 27.3332 13.9993 27.3332C21.3727 27.3332 27.3327 21.3732 27.3327 13.9998C27.3327 6.6265 21.3727 0.666504 13.9993 0.666504ZM13.9993 24.6665C8.11935 24.6665 3.33268 19.8798 3.33268 13.9998C3.33268 8.11984 8.11935 3.33317 13.9993 3.33317C19.8793 3.33317 24.666 8.11984 24.666 13.9998C24.666 19.8798 19.8793 24.6665 13.9993 24.6665Z" fill="#7D7D7D"/>
</svg>
