<svg width="12" height="12" viewBox="0 0 12 12" fill="none" xmlns="http://www.w3.org/2000/svg">
<path d="M7.09938 6.00007L11.7719 1.32729C12.076 1.02334 12.076 0.531904 11.7719 0.227959C11.468 -0.0759862 10.9766 -0.0759862 10.6726 0.227959L5.99993 4.90074L1.32737 0.227959C1.02329 -0.0759862 0.532001 -0.0759862 0.228062 0.227959C-0.0760205 0.531904 -0.0760205 1.02334 0.228062 1.32729L4.90062 6.00007L0.228062 10.6728C-0.0760205 10.9768 -0.0760205 11.4682 0.228062 11.7722C0.379533 11.9238 0.578696 12 0.777716 12C0.976736 12 1.17576 11.9238 1.32737 11.7722L5.99993 7.09939L10.6726 11.7722C10.8242 11.9238 11.0233 12 11.2223 12C11.4213 12 11.6203 11.9238 11.7719 11.7722C12.076 11.4682 12.076 10.9768 11.7719 10.6728L7.09938 6.00007Z" fill="#4C4C4C"/>
</svg>
