<?xml version="1.0" encoding="UTF-8" standalone="no"?>
<svg
   xmlns:dc="http://purl.org/dc/elements/1.1/"
   xmlns:cc="http://creativecommons.org/ns#"
   xmlns:rdf="http://www.w3.org/1999/02/22-rdf-syntax-ns#"
   xmlns:svg="http://www.w3.org/2000/svg"
   xmlns="http://www.w3.org/2000/svg"
   xmlns:sodipodi="http://sodipodi.sourceforge.net/DTD/sodipodi-0.dtd"
   xmlns:inkscape="http://www.inkscape.org/namespaces/inkscape"
   inkscape:export-ydpi="18"
   inkscape:export-xdpi="18"
   inkscape:export-filename="/Users/vimalmenon/Desktop/Youtube logo.png"
   width="800"
   height="800"
   viewBox="0 0 211.66666 211.66667"
   version="1.1"
   id="svg8"
   inkscape:version="1.0 (4035a4f, 2020-05-01)"
   sodipodi:docname="Youtube logo.svg">
  <defs
     id="defs2" />
  <sodipodi:namedview
     inkscape:pagecheckerboard="true"
     id="base"
     pagecolor="#ffffff"
     bordercolor="#666666"
     borderopacity="1.0"
     inkscape:pageopacity="0.0"
     inkscape:pageshadow="2"
     inkscape:zoom="0.35"
     inkscape:cx="-150.62256"
     inkscape:cy="789.25901"
     inkscape:document-units="mm"
     inkscape:current-layer="layer5"
     inkscape:document-rotation="0"
     showgrid="false"
     units="px"
     inkscape:window-width="1920"
     inkscape:window-height="1080"
     inkscape:window-x="1344"
     inkscape:window-y="0"
     inkscape:window-maximized="0" />
  <metadata
     id="metadata5">
    <rdf:RDF>
      <cc:Work
         rdf:about="">
        <dc:format>image/svg+xml</dc:format>
        <dc:type
           rdf:resource="http://purl.org/dc/dcmitype/StillImage" />
        <dc:title></dc:title>
      </cc:Work>
    </rdf:RDF>
  </metadata>
  <g
     style="display:inline"
     inkscape:label="background"
     inkscape:groupmode="layer"
     id="layer1" />
  <g
     style="display:inline"
     inkscape:label="circle"
     id="layer2"
     inkscape:groupmode="layer">
    <circle
       r="102"
       cy="106.53571"
       cx="108.04762"
       id="path839"
       style="fill:#00172b;stroke-width:5.89215;stroke-linecap:round;stroke-linejoin:round;paint-order:fill markers stroke" />
    <circle
       r="94"
       style="fill:#c83737;stroke-width:5.43003;stroke-linecap:round;stroke-linejoin:round;paint-order:fill markers stroke"
       id="path839-5"
       cx="108.28751"
       cy="106.54878" />
  </g>
  <g
     style="display:inline"
     inkscape:label="travel"
     id="layer3"
     inkscape:groupmode="layer">
    <text
       transform="scale(0.91394637,1.0941561)"
       id="text859"
       y="65.085999"
       x="42.431763"
       style="font-style:normal;font-weight:normal;font-size:26.3266px;line-height:1.25;font-family:sans-serif;fill:#ffff00;fill-opacity:1;stroke:none;stroke-width:0.365647"
       xml:space="preserve"><tspan
         style="font-size:26.3266px;fill:#ffff00;stroke-width:0.365647"
         y="65.085999"
         x="42.431763"
         id="tspan857"
         sodipodi:role="line">Travel</tspan></text>
  </g>
  <g
     style="display:inline"
     inkscape:label="eat"
     id="layer4"
     inkscape:groupmode="layer">
    <text
       xml:space="preserve"
       style="font-style:normal;font-weight:normal;font-size:26.3266px;line-height:1.25;font-family:sans-serif;fill:#ffff00;fill-opacity:1;stroke:none;stroke-width:0.365646"
       x="154.74336"
       y="148.39629"
       id="text859-6"
       transform="scale(0.91394637,1.0941561)"><tspan
         id="tspan890"
         sodipodi:role="line"
         x="154.74336"
         y="148.39629"
         style="font-size:26.3266px;fill:#ffff00;stroke-width:0.365646">Eat</tspan></text>
  </g>
  <g
     style="display:inline"
     inkscape:label="shop"
     id="layer5"
     inkscape:groupmode="layer">
    <text
       xml:space="preserve"
       style="font-style:normal;font-weight:normal;font-size:26.3266px;line-height:1.25;font-family:sans-serif;fill:#ffff00;fill-opacity:1;stroke:none;stroke-width:0.365646"
       x="90.392639"
       y="110.05134"
       id="text859-7"
       transform="scale(0.91394638,1.0941561)"><tspan
         sodipodi:role="line"
         id="tspan857-0"
         x="90.392639"
         y="110.05134"
         style="font-size:26.3266px;fill:#ffff00;stroke-width:0.365646">Shop</tspan></text>
  </g>
  <g
     style="display:inline"
     inkscape:label="repeat"
     id="layer6"
     inkscape:groupmode="layer">
    <path
       d="m 37.739828,69.816907 c -0.01486,-0.0053 -0.03404,0.0014 -0.05363,0.02197 L 20.052799,87.834964 c -0.0397,0.04048 -0.06681,0.119071 -0.06114,0.176367 l 0.0572,0.57178 19.9844,6.685207 0.177353,-0.180863 c 0.0397,-0.04048 0.06706,-0.119334 0.06128,-0.176689 L 37.768078,69.869127 c -0.0024,-0.02875 -0.01293,-0.04629 -0.02824,-0.05181 z"
       style="fill:#ffd5d5;fill-opacity:1;stroke-width:2.2655;stroke-linecap:round;stroke-linejoin:round;paint-order:fill markers stroke"
       id="rect928" />
    <path
       d="M 82.791368,27.317854 A 83.014536,78.431485 13.378849 0 0 55.67966,41.701572 l 1.601757,4.836112 a 78.13133,73.817869 13.378854 0 1 81.707853,-12.850928 78.13133,73.817869 13.378854 0 1 44.02037,97.046704 78.13133,73.817869 13.378854 0 1 -0.14937,0.35557 l 4.25503,1.69219 c 0.0786,0.0313 0.16679,-0.003 0.19807,-0.0766 1.1e-4,-2.6e-4 1e-4,-9e-4 1.9e-4,-0.001 A 83.014536,78.431485 13.378849 0 0 140.48605,29.725915 83.014536,78.431485 13.378849 0 0 82.791368,27.317854 Z m -45.650746,45.822868 0.700816,0.278499 a 78.13133,73.817869 13.378854 0 1 0.147336,-0.356585 78.13133,73.817869 13.378854 0 1 0.08827,-0.209544 z"
       style="display:inline;fill:#f4d7d7;stroke-width:4.66117;stroke-linecap:round;stroke-linejoin:round;paint-order:fill markers stroke"
       id="path839-4" />
    <path
       id="path839-4-2"
       style="display:inline;fill:#f4d7d7;stroke-width:4.66116;stroke-linecap:round;stroke-linejoin:round;paint-order:fill markers stroke"
       d="m 130.32171,189.09757 a 83.014537,78.431485 17.006267 0 0 27.96742,-12.63959 l -1.29258,-4.92776 A 78.131331,73.817869 17.006272 0 1 74.639361,179.1859 78.131331,73.817869 17.006272 0 1 36.847143,79.548493 78.131331,73.817869 17.006272 0 1 37.01871,79.203096 l -4.139444,-1.958008 c -0.07646,-0.03621 -0.166646,-0.0076 -0.20252,0.06391 -1.26e-4,2.53e-4 -1.5e-4,7.92e-4 -2.53e-4,9.86e-4 a 83.014537,78.431485 17.006267 0 0 40.218491,105.734116 83.014537,78.431485 17.006267 0 0 57.426726,6.05346 z m 48.45842,-42.84283 -0.6818,-0.32228 a 78.131331,73.817869 17.006272 0 1 -0.1696,0.34655 78.131331,73.817869 17.006272 0 1 -0.10138,0.20354 z" />
    <path
       id="rect928-3"
       style="display:inline;fill:#ffd5d5;fill-opacity:1;stroke-width:2.2655;stroke-linecap:round;stroke-linejoin:round;paint-order:fill markers stroke"
       d="m 182.03311,137.63853 c 0.0147,0.006 0.034,-1.4e-4 0.0542,-0.0204 l 18.17163,-17.45242 c 0.041,-0.0392 0.0704,-0.11701 0.0664,-0.17443 l -0.0399,-0.57324 -19.77222,-7.28887 -0.18276,0.1754 c -0.041,0.0392 -0.0708,0.11723 -0.0666,0.17474 l 1.74238,25.10612 c 0.002,0.0288 0.0116,0.0467 0.0266,0.0526 z" />
  </g>
</svg>
