<svg width="241" height="105" viewBox="0 0 241 105" fill="none" xmlns="http://www.w3.org/2000/svg">
<path d="M54.975 70.065C54.975 71.925 54.69 73.59 54.12 75.06C53.55 76.5 52.74 77.715 51.69 78.705C50.67 79.695 49.44 80.445 48 80.955C46.56 81.465 44.955 81.72 43.185 81.72C41.415 81.72 39.81 81.45 38.37 80.91C36.93 80.37 35.685 79.605 34.635 78.615C33.615 77.595 32.82 76.365 32.25 74.925C31.68 73.485 31.395 71.865 31.395 70.065C31.395 68.295 31.68 66.69 32.25 65.25C32.82 63.81 33.615 62.595 34.635 61.605C35.685 60.585 36.93 59.805 38.37 59.265C39.81 58.725 41.415 58.455 43.185 58.455C44.955 58.455 46.56 58.74 48 59.31C49.44 59.85 50.67 60.63 51.69 61.65C52.74 62.64 53.55 63.855 54.12 65.295C54.69 66.735 54.975 68.325 54.975 70.065ZM39.225 70.065C39.225 71.895 39.57 73.305 40.26 74.295C40.98 75.255 41.97 75.735 43.23 75.735C44.49 75.735 45.45 75.24 46.11 74.25C46.8 73.26 47.145 71.865 47.145 70.065C47.145 68.265 46.8 66.885 46.11 65.925C45.42 64.935 44.445 64.44 43.185 64.44C41.925 64.44 40.95 64.935 40.26 65.925C39.57 66.885 39.225 68.265 39.225 70.065ZM81.4122 70.065C81.4122 71.925 81.1272 73.59 80.5572 75.06C79.9872 76.5 79.1772 77.715 78.1272 78.705C77.1072 79.695 75.8772 80.445 74.4372 80.955C72.9972 81.465 71.3922 81.72 69.6222 81.72C67.8522 81.72 66.2472 81.45 64.8072 80.91C63.3672 80.37 62.1222 79.605 61.0722 78.615C60.0522 77.595 59.2572 76.365 58.6872 74.925C58.1172 73.485 57.8322 71.865 57.8322 70.065C57.8322 68.295 58.1172 66.69 58.6872 65.25C59.2572 63.81 60.0522 62.595 61.0722 61.605C62.1222 60.585 63.3672 59.805 64.8072 59.265C66.2472 58.725 67.8522 58.455 69.6222 58.455C71.3922 58.455 72.9972 58.74 74.4372 59.31C75.8772 59.85 77.1072 60.63 78.1272 61.65C79.1772 62.64 79.9872 63.855 80.5572 65.295C81.1272 66.735 81.4122 68.325 81.4122 70.065ZM65.6622 70.065C65.6622 71.895 66.0072 73.305 66.6972 74.295C67.4172 75.255 68.4072 75.735 69.6672 75.735C70.9272 75.735 71.8872 75.24 72.5472 74.25C73.2372 73.26 73.5822 71.865 73.5822 70.065C73.5822 68.265 73.2372 66.885 72.5472 65.925C71.8572 64.935 70.8822 64.44 69.6222 64.44C68.3622 64.44 67.3872 64.935 66.6972 65.925C66.0072 66.885 65.6622 68.265 65.6622 70.065ZM95.6994 58.455C96.9294 58.455 98.1294 58.635 99.2994 58.995C100.499 59.325 101.534 59.835 102.404 60.525C103.304 59.925 104.309 59.43 105.419 59.04C106.559 58.65 107.924 58.455 109.514 58.455C110.654 58.455 111.764 58.605 112.844 58.905C113.954 59.205 114.929 59.685 115.769 60.345C116.639 60.975 117.329 61.83 117.839 62.91C118.349 63.96 118.604 65.25 118.604 66.78V80.955C118.304 81.045 117.824 81.135 117.164 81.225C116.534 81.315 115.874 81.36 115.184 81.36C114.524 81.36 113.924 81.315 113.384 81.225C112.874 81.135 112.439 80.955 112.079 80.685C111.719 80.415 111.434 80.055 111.224 79.605C111.044 79.125 110.954 78.51 110.954 77.76V67.005C110.954 66.105 110.699 65.46 110.189 65.07C109.679 64.65 108.989 64.44 108.119 64.44C107.699 64.44 107.249 64.545 106.769 64.755C106.289 64.935 105.929 65.13 105.689 65.34C105.719 65.46 105.734 65.58 105.734 65.7C105.734 65.79 105.734 65.88 105.734 65.97V80.955C105.404 81.045 104.909 81.135 104.249 81.225C103.619 81.315 102.974 81.36 102.314 81.36C101.654 81.36 101.054 81.315 100.514 81.225C100.004 81.135 99.5694 80.955 99.2094 80.685C98.8494 80.415 98.5644 80.055 98.3544 79.605C98.1744 79.125 98.0844 78.51 98.0844 77.76V67.005C98.0844 66.105 97.7994 65.46 97.2294 65.07C96.6894 64.65 96.0294 64.44 95.2494 64.44C94.7094 64.44 94.2444 64.53 93.8544 64.71C93.4644 64.86 93.1344 65.01 92.8644 65.16V80.955C92.5644 81.045 92.0844 81.135 91.4244 81.225C90.7944 81.315 90.1344 81.36 89.4444 81.36C88.7844 81.36 88.1844 81.315 87.6444 81.225C87.1344 81.135 86.6994 80.955 86.3394 80.685C85.9794 80.415 85.6944 80.055 85.4844 79.605C85.3044 79.125 85.2144 78.51 85.2144 77.76V64.17C85.2144 63.36 85.3794 62.715 85.7094 62.235C86.0694 61.755 86.5494 61.305 87.1494 60.885C88.1694 60.165 89.4294 59.58 90.9294 59.13C92.4594 58.68 94.0494 58.455 95.6994 58.455ZM134.906 81.72C133.136 81.72 131.486 81.48 129.956 81C128.456 80.49 127.136 79.74 125.996 78.75C124.886 77.76 124.001 76.515 123.341 75.015C122.711 73.515 122.396 71.76 122.396 69.75C122.396 67.77 122.711 66.075 123.341 64.665C124.001 63.225 124.856 62.055 125.906 61.155C126.956 60.225 128.156 59.55 129.506 59.13C130.856 58.68 132.236 58.455 133.646 58.455C135.236 58.455 136.676 58.695 137.966 59.175C139.286 59.655 140.411 60.315 141.341 61.155C142.301 61.995 143.036 63 143.546 64.17C144.086 65.34 144.356 66.615 144.356 67.995C144.356 69.015 144.071 69.795 143.501 70.335C142.931 70.875 142.136 71.22 141.116 71.37L130.001 73.035C130.331 74.025 131.006 74.775 132.026 75.285C133.046 75.765 134.216 76.005 135.536 76.005C136.766 76.005 137.921 75.855 139.001 75.555C140.111 75.225 141.011 74.85 141.701 74.43C142.181 74.73 142.586 75.15 142.916 75.69C143.246 76.23 143.411 76.8 143.411 77.4C143.411 78.75 142.781 79.755 141.521 80.415C140.561 80.925 139.481 81.27 138.281 81.45C137.081 81.63 135.956 81.72 134.906 81.72ZM133.646 64.035C132.926 64.035 132.296 64.155 131.756 64.395C131.246 64.635 130.826 64.95 130.496 65.34C130.166 65.7 129.911 66.12 129.731 66.6C129.581 67.05 129.491 67.515 129.461 67.995L137.156 66.735C137.066 66.135 136.736 65.535 136.166 64.935C135.596 64.335 134.756 64.035 133.646 64.035ZM155.758 80.955C155.458 81.045 154.978 81.135 154.318 81.225C153.688 81.315 153.028 81.36 152.338 81.36C151.678 81.36 151.078 81.315 150.538 81.225C150.028 81.135 149.593 80.955 149.233 80.685C148.873 80.415 148.588 80.055 148.378 79.605C148.198 79.125 148.108 78.51 148.108 77.76V64.26C148.108 63.57 148.228 62.985 148.468 62.505C148.738 61.995 149.113 61.545 149.593 61.155C150.073 60.765 150.658 60.42 151.348 60.12C152.068 59.79 152.833 59.505 153.643 59.265C154.453 59.025 155.293 58.845 156.163 58.725C157.033 58.575 157.903 58.5 158.773 58.5C160.213 58.5 161.353 58.785 162.193 59.355C163.033 59.895 163.453 60.795 163.453 62.055C163.453 62.475 163.393 62.895 163.273 63.315C163.153 63.705 163.003 64.065 162.823 64.395C162.193 64.395 161.548 64.425 160.888 64.485C160.228 64.545 159.583 64.635 158.953 64.755C158.323 64.875 157.723 65.01 157.153 65.16C156.613 65.28 156.148 65.43 155.758 65.61V80.955ZM175.38 76.14C175.89 76.14 176.445 76.095 177.045 76.005C177.675 75.885 178.14 75.735 178.44 75.555V71.955L175.2 72.225C174.36 72.285 173.67 72.465 173.13 72.765C172.59 73.065 172.32 73.515 172.32 74.115C172.32 74.715 172.545 75.21 172.995 75.6C173.475 75.96 174.27 76.14 175.38 76.14ZM175.02 58.455C176.64 58.455 178.11 58.62 179.43 58.95C180.78 59.28 181.92 59.79 182.85 60.48C183.81 61.14 184.545 61.995 185.055 63.045C185.565 64.065 185.82 65.28 185.82 66.69V76.77C185.82 77.55 185.595 78.195 185.145 78.705C184.725 79.185 184.215 79.605 183.615 79.965C181.665 81.135 178.92 81.72 175.38 81.72C173.79 81.72 172.35 81.57 171.06 81.27C169.8 80.97 168.705 80.52 167.775 79.92C166.875 79.32 166.17 78.555 165.66 77.625C165.18 76.695 164.94 75.615 164.94 74.385C164.94 72.315 165.555 70.725 166.785 69.615C168.015 68.505 169.92 67.815 172.5 67.545L178.395 66.915V66.6C178.395 65.73 178.005 65.115 177.225 64.755C176.475 64.365 175.38 64.17 173.94 64.17C172.8 64.17 171.69 64.29 170.61 64.53C169.53 64.77 168.555 65.07 167.685 65.43C167.295 65.16 166.965 64.755 166.695 64.215C166.425 63.645 166.29 63.06 166.29 62.46C166.29 61.68 166.47 61.065 166.83 60.615C167.22 60.135 167.805 59.73 168.585 59.4C169.455 59.07 170.475 58.83 171.645 58.68C172.845 58.53 173.97 58.455 175.02 58.455ZM204.428 67.14C204.428 66.21 204.158 65.535 203.618 65.115C203.108 64.665 202.403 64.44 201.503 64.44C200.903 64.44 200.303 64.515 199.703 64.665C199.133 64.815 198.638 65.04 198.218 65.34V80.955C197.918 81.045 197.438 81.135 196.778 81.225C196.148 81.315 195.488 81.36 194.798 81.36C194.138 81.36 193.538 81.315 192.998 81.225C192.488 81.135 192.053 80.955 191.693 80.685C191.333 80.415 191.048 80.055 190.838 79.605C190.658 79.125 190.568 78.51 190.568 77.76V64.26C190.568 63.45 190.733 62.79 191.063 62.28C191.423 61.77 191.903 61.305 192.503 60.885C193.523 60.165 194.798 59.58 196.328 59.13C197.888 58.68 199.613 58.455 201.503 58.455C204.893 58.455 207.503 59.205 209.333 60.705C211.163 62.175 212.078 64.23 212.078 66.87V80.955C211.778 81.045 211.298 81.135 210.638 81.225C210.008 81.315 209.348 81.36 208.658 81.36C207.998 81.36 207.398 81.315 206.858 81.225C206.348 81.135 205.913 80.955 205.553 80.685C205.193 80.415 204.908 80.055 204.698 79.605C204.518 79.125 204.428 78.51 204.428 77.76V67.14ZM227.538 58.455C229.248 58.455 230.793 58.68 232.173 59.13C233.583 59.55 234.768 60.105 235.728 60.795C236.328 61.215 236.793 61.68 237.123 62.19C237.483 62.7 237.663 63.36 237.663 64.17V79.92C237.663 81.51 237.363 82.875 236.763 84.015C236.163 85.185 235.338 86.145 234.288 86.895C233.268 87.675 232.053 88.245 230.643 88.605C229.263 88.965 227.778 89.145 226.188 89.145C223.458 89.145 221.313 88.77 219.753 88.02C218.193 87.3 217.413 86.115 217.413 84.465C217.413 83.775 217.548 83.16 217.818 82.62C218.118 82.11 218.448 81.72 218.808 81.45C219.678 81.93 220.653 82.335 221.733 82.665C222.843 82.995 223.983 83.16 225.153 83.16C226.773 83.16 228.063 82.89 229.023 82.35C229.983 81.81 230.463 80.94 230.463 79.74V79.02C229.233 79.56 227.733 79.83 225.963 79.83C224.613 79.83 223.323 79.635 222.093 79.245C220.893 78.825 219.828 78.195 218.898 77.355C217.998 76.485 217.263 75.375 216.693 74.025C216.153 72.675 215.883 71.07 215.883 69.21C215.883 67.38 216.168 65.79 216.738 64.44C217.338 63.09 218.148 61.98 219.168 61.11C220.218 60.21 221.448 59.55 222.858 59.13C224.298 58.68 225.858 58.455 227.538 58.455ZM230.328 64.98C230.118 64.86 229.803 64.74 229.383 64.62C228.993 64.5 228.498 64.44 227.898 64.44C226.428 64.44 225.318 64.86 224.568 65.7C223.848 66.51 223.488 67.68 223.488 69.21C223.488 70.95 223.848 72.21 224.568 72.99C225.318 73.74 226.263 74.115 227.403 74.115C228.633 74.115 229.608 73.83 230.328 73.26V64.98Z" fill="black"/>
<path fill-rule="evenodd" clip-rule="evenodd" d="M60.6024 29.2206C60.2931 35.8763 51.7941 41.6196 43.5766 47.1804C42.0302 48.2165 40.1746 49.4783 38.288 50.8515C35.7488 52.7072 33.1664 54.7329 31.3045 56.6907C28.0602 60.0927 24.8963 63.968 24.8963 70.5649C24.8963 77.369 27.989 82.1782 34.0973 89.2081C35.5231 90.8442 36.8437 92.3009 38.0035 93.5628C40.7313 96.5504 43.3076 99.3772 42.7725 100.172C42.763 100.19 42.7504 100.207 42.7354 100.221C42.5653 100.28 40.9942 100.627 34.1251 96.5596C29.8849 94.0514 25.3818 90.9246 22.6818 89.0535L21.754 88.4349L20.8726 87.8164C16.0138 84.4793 7.01241 77.8237 7.01241 71.4844C7.01241 65.1451 12.6551 60.9216 20.5447 55.3731C21.6025 54.6309 22.7097 53.8639 23.8138 53.0567L24.4324 52.6082C26.2293 51.3154 28.1437 49.9546 29.9994 48.5041C36.5158 43.4443 42.5962 37.299 42.5962 29.2392C42.5962 20.1341 34.5117 11.6691 28.6138 5.48667C27.686 4.51863 26.8138 3.60007 26.0313 2.74647C25.5913 2.28418 25.2063 1.77253 24.8839 1.22173C24.6272 0.785646 24.5313 0.374307 24.72 0.0990498C24.7756 0.0597659 24.8408 0.0362549 24.9086 0.0310086C25.0301 0.00932257 25.1533 -0.00103116 25.2767 8.09108e-05C29.2787 8.09108e-05 41.9777 8.82686 46.224 11.7867L46.4808 11.966C53.4766 16.831 60.9086 22.5743 60.6024 29.2206Z" fill="black"/>
<path d="M33.54 1.06201C37.6185 3.3428 42.38 6.4746 47.188 9.81614L47.4477 9.99552C55.0838 15.3058 63.2283 21.6519 62.7292 29.6348C62.5406 33.7173 59.5877 37.2661 56.0279 40.6186C62.8258 36.1001 67.0962 32.0748 67.5106 26.7955C68.0611 19.7254 58.4797 13.4811 53.2436 10.5182C50.3858 8.89317 46.3626 6.76052 41.8081 4.47188C38.4935 2.89892 35.7996 1.79482 33.54 1.06201Z" fill="#FF3166"/>
<path d="M33.9933 98.932C29.9148 96.6512 25.1533 93.5194 20.3454 90.1779L20.0856 89.9985C12.4495 84.6882 4.30498 78.3421 4.80407 70.3592C4.99273 66.2768 7.94563 62.7279 11.5054 59.3754C4.70749 63.8939 0.437166 67.9192 0.022733 73.1985C-0.527781 80.2686 9.05364 86.5129 14.2897 89.4758C17.1475 91.1008 21.1708 93.2335 25.7252 95.5221C29.0398 97.0951 31.7337 98.1992 33.9933 98.932Z" fill="#00C5F0"/>
</svg>
